<?xml version="1.0" encoding="utf-8"?>
<svg version="1.1" xmlns:xlink="http://www.w3.org/1999/xlink" width="17px" height="16px" xmlns="http://www.w3.org/2000/svg">
  <g transform="matrix(1 0 0 1 -1146 -319 )">
    <path d="M 16.13265306122449 3.197916666666666  C 16.391156462585037 3.302083333333334  16.591836734693878 3.4513888888888875  16.73469387755102 3.645833333333334  C 17.006802721088434 4.041666666666666  17.068027210884352 4.489583333333334  16.918367346938776 4.989583333333334  L 14.112244897959183 14.427083333333334  C 13.982993197278914 14.871527777777779  13.72278911564626 15.244791666666666  13.331632653061224 15.546875  C 12.940476190476192 15.848958333333334  12.523809523809526 16  12.081632653061225 16  L 2.663265306122449 16  C 2.139455782312925 16  1.634353741496599 15.814236111111112  1.1479591836734695 15.442708333333334  C 0.6615646258503403 15.071180555555555  0.32312925170068035 14.614583333333334  0.1326530612244898 14.072916666666666  C -0.030612244897959183 13.607638888888888  -0.03741496598639456 13.166666666666666  0.11224489795918367 12.75  C 0.11224489795918367 12.722222222222221  0.12244897959183673 12.628472222222221  0.14285714285714285 12.46875  C 0.16326530612244897 12.309027777777777  0.17687074829931976 12.180555555555555  0.1836734693877551 12.083333333333334  C 0.19047619047619047 12.027777777777779  0.18027210884353742 11.953125  0.15306122448979592 11.859375  C 0.12585034013605442 11.765625  0.11564625850340138 11.697916666666668  0.12244897959183673 11.65625  C 0.1360544217687075 11.57986111111111  0.16326530612244897 11.506944444444443  0.20408163265306123 11.4375  C 0.24489795918367346 11.368055555555554  0.3010204081632653 11.286458333333332  0.37244897959183676 11.192708333333332  C 0.44387755102040816 11.098958333333332  0.5 11.01736111111111  0.5408163265306122 10.947916666666668  C 0.697278911564626 10.684027777777775  0.8503401360544218 10.366319444444443  1 9.994791666666668  C 1.1496598639455782 9.62326388888889  1.251700680272109 9.305555555555554  1.3061224489795917 9.041666666666668  C 1.3265306122448979 8.972222222222221  1.328231292517007 8.868055555555554  1.3112244897959184 8.729166666666668  C 1.29421768707483 8.590277777777779  1.2925170068027212 8.493055555555554  1.3061224489795917 8.4375  C 1.3265306122448979 8.36111111111111  1.3843537414965987 8.26388888888889  1.479591836734694 8.145833333333332  C 1.5748299319727892 8.027777777777779  1.6326530612244898 7.947916666666666  1.653061224489796 7.90625  C 1.7959183673469388 7.65625  1.9387755102040816 7.336805555555555  2.0816326530612246 6.947916666666666  C 2.2244897959183674 6.559027777777777  2.3095238095238098 6.246527777777777  2.3367346938775513 6.010416666666666  C 2.3435374149659864 5.947916666666666  2.335034013605442 5.836805555555555  2.311224489795918 5.677083333333334  C 2.2874149659863945 5.517361111111111  2.289115646258504 5.4201388888888875  2.316326530612245 5.385416666666666  C 2.3435374149659864 5.2951388888888875  2.4183673469387754 5.189236111111109  2.5408163265306123 5.067708333333334  C 2.663265306122449 4.946180555555555  2.738095238095238 4.868055555555555  2.7653061224489797 4.833333333333334  C 2.894557823129252 4.652777777777777  3.039115646258504 4.359375  3.1989795918367347 3.953125  C 3.358843537414966 3.546875  3.452380952380953 3.2118055555555554  3.4795918367346936 2.947916666666666  C 3.4863945578231292 2.892361111111109  3.4761904761904767 2.803819444444443  3.4489795918367347 2.682291666666666  C 3.421768707482993 2.5607638888888875  3.414965986394558 2.46875  3.428571428571429 2.40625  C 3.4421768707482996 2.350694444444443  3.472789115646259 2.288194444444443  3.520408163265306 2.21875  C 3.568027210884354 2.1493055555555554  3.629251700680272 2.069444444444443  3.704081632653061 1.979166666666666  C 3.778911564625851 1.8888888888888875  3.836734693877551 1.8159722222222214  3.877551020408163 1.760416666666666  C 3.9319727891156466 1.677083333333334  3.9880952380952386 1.5711805555555554  4.045918367346939 1.442708333333334  C 4.10374149659864 1.314236111111109  4.154761904761905 1.192708333333334  4.198979591836735 1.078125  C 4.243197278911564 0.9635416666666661  4.297619047619048 0.8385416666666661  4.362244897959183 0.703125  C 4.42687074829932 0.5677083333333339  4.493197278911564 0.45659722222222143  4.561224489795918 0.3697916666666661  C 4.629251700680273 0.28298611111110894  4.719387755102042 0.2013888888888875  4.831632653061225 0.125  C 4.9438775510204085 0.04861111111110894  5.066326530612246 0.008680555555555358  5.198979591836735 0.0052083333333339255  C 5.331632653061225 0.00173611111110894  5.493197278911565 0.020833333333333925  5.683673469387755 0.0625  L 5.673469387755103 0.09375  C 5.931972789115647 0.03125  6.105442176870748 0  6.1938775510204085 0  L 13.959183673469388 0  C 14.462585034013607 0  14.850340136054424 0.19444444444444287  15.122448979591837 0.5833333333333339  C 15.394557823129253 0.9722222222222214  15.455782312925171 1.423611111111109  15.306122448979593 1.9375  L 12.510204081632653 11.375  C 12.26530612244898 12.201388888888888  12.022108843537415 12.734375  11.78061224489796 12.973958333333334  C 11.539115646258505 13.213541666666666  11.10204081632653 13.333333333333334  10.46938775510204 13.333333333333334  L 1.6020408163265307 13.333333333333334  C 1.4183673469387756 13.333333333333334  1.2891156462585034 13.385416666666666  1.2142857142857142 13.489583333333334  C 1.1394557823129252 13.600694444444445  1.1360544217687076 13.75  1.2040816326530612 13.9375  C 1.3673469387755102 14.423611111111112  1.8571428571428572 14.666666666666666  2.6734693877551017 14.666666666666666  L 12.091836734693876 14.666666666666666  C 12.289115646258505 14.666666666666666  12.479591836734695 14.612847222222221  12.66326530612245 14.505208333333334  C 12.846938775510203 14.397569444444445  12.965986394557824 14.253472222222221  13.020408163265305 14.072916666666666  L 16.081632653061224 3.791666666666666  C 16.129251700680275 3.6388888888888875  16.146258503401363 3.4409722222222214  16.13265306122449 3.197916666666666  Z M 6.091836734693877 3  L 5.877551020408164 3.666666666666666  C 5.850340136054422 3.756944444444443  5.857142857142857 3.835069444444443  5.8979591836734695 3.901041666666666  C 5.938775510204081 3.9670138888888875  6.0068027210884365 4  6.1020408163265305 4  L 12.306122448979592 4  C 12.394557823129253 4  12.481292517006803 3.9670138888888875  12.566326530612244 3.901041666666666  C 12.651360544217688 3.835069444444443  12.70748299319728 3.756944444444443  12.73469387755102 3.666666666666666  L 12.948979591836734 3  C 12.976190476190478 2.9097222222222214  12.96938775510204 2.8315972222222214  12.928571428571427 2.765625  C 12.887755102040817 2.699652777777777  12.819727891156464 2.666666666666666  12.724489795918368 2.666666666666666  L 6.520408163265306 2.666666666666666  C 6.431972789115647 2.666666666666666  6.345238095238095 2.699652777777777  6.2602040816326525 2.765625  C 6.175170068027211 2.8315972222222214  6.11904761904762 2.9097222222222214  6.091836734693877 3  Z M 5.244897959183674 5.666666666666666  L 5.030612244897959 6.333333333333334  C 5.003401360544219 6.423611111111111  5.010204081632653 6.501736111111111  5.051020408163266 6.567708333333334  C 5.091836734693878 6.633680555555555  5.159863945578231 6.666666666666666  5.255102040816327 6.666666666666666  L 11.459183673469388 6.666666666666666  C 11.547619047619047 6.666666666666666  11.6343537414966 6.633680555555555  11.71938775510204 6.567708333333334  C 11.804421768707485 6.501736111111111  11.860544217687076 6.423611111111111  11.887755102040817 6.333333333333334  L 12.10204081632653 5.666666666666666  C 12.129251700680273 5.5763888888888875  12.122448979591837 5.4982638888888875  12.081632653061225 5.432291666666666  C 12.040816326530612 5.366319444444445  11.97278911564626 5.333333333333334  11.877551020408163 5.333333333333334  L 5.673469387755103 5.333333333333334  C 5.585034013605442 5.333333333333334  5.4982993197278915 5.366319444444445  5.413265306122449 5.432291666666666  C 5.328231292517008 5.4982638888888875  5.272108843537415 5.5763888888888875  5.244897959183674 5.666666666666666  Z " fill-rule="nonzero" fill="#7f7f7f" stroke="none" transform="matrix(1 0 0 1 1146 319 )" />
  </g>
</svg>