<?xml version="1.0" encoding="utf-8"?>
<svg version="1.1" xmlns:xlink="http://www.w3.org/1999/xlink" width="21px" height="20px" preserveAspectRatio="xMinYMid meet" viewBox="153 531  21 18" xmlns="http://www.w3.org/2000/svg">
  <path d="M 166 540  L 218 540  " stroke-width="2" stroke="#ffb300" fill="none" />
  <path d="M 163.5 536.5  A 3.5 3.5 0 0 0 160 540 A 3.5 3.5 0 0 0 163.5 543.5 A 3.5 3.5 0 0 0 167 540 A 3.5 3.5 0 0 0 163.5 536.5 Z M 163.5 538.5  A 1.5 1.5 0 0 1 165 540 A 1.5 1.5 0 0 1 163.5 541.5 A 1.5 1.5 0 0 1 162 540 A 1.5 1.5 0 0 1 163.5 538.5 Z M 212.89289321881344 535.7071067811866  L 217.1857864376269 540  L 212.89289321881344 544.2928932188134  L 214.30710678118655 545.7071067811866  L 219.30710678118655 540.7071067811866  L 220.0142135623731 540  L 219.30710678118655 539.2928932188134  L 214.30710678118655 534.2928932188134  L 212.89289321881344 535.7071067811866  Z " fill-rule="nonzero" fill="#ffb300" stroke="none" />
</svg>