<?xml version="1.0" encoding="utf-8"?>
<svg version="1.1" xmlns:xlink="http://www.w3.org/1999/xlink" width="35px" height="10px" preserveAspectRatio="xMinYMid meet" viewBox="360 536  35 8" xmlns="http://www.w3.org/2000/svg">
  <path d="M 366 540  L 385 540  A 5 5 0 0 0 390 535 L 390 415  A 5 5 0 0 1 395 410 L 418 410  " stroke-width="2" stroke="#ffb300" fill="none" />
  <path d="M 363.5 536.5  A 3.5 3.5 0 0 0 360 540 A 3.5 3.5 0 0 0 363.5 543.5 A 3.5 3.5 0 0 0 367 540 A 3.5 3.5 0 0 0 363.5 536.5 Z M 363.5 538.5  A 1.5 1.5 0 0 1 365 540 A 1.5 1.5 0 0 1 363.5 541.5 A 1.5 1.5 0 0 1 362 540 A 1.5 1.5 0 0 1 363.5 538.5 Z M 412.89289321881347 405.70710678118655  L 417.1857864376269 410  L 412.89289321881347 414.29289321881345  L 414.3071067811866 415.70710678118655  L 419.3071067811866 410.70710678118655  L 420.01421356237313 410  L 419.3071067811866 409.29289321881345  L 414.3071067811866 404.29289321881345  L 412.89289321881347 405.70710678118655  Z " fill-rule="nonzero" fill="#ffb300" stroke="none" />
</svg>