<?xml version="1.0" encoding="utf-8"?>
<svg version="1.1" xmlns:xlink="http://www.w3.org/1999/xlink" width="35px" height="10px" preserveAspectRatio="xMinYMid meet" viewBox="385 646  35 8" xmlns="http://www.w3.org/2000/svg">
  <path d="M 366 540  L 385 540  A 5 5 0 0 1 390 545 L 390 645  A 5 5 0 0 0 395 650 L 418 650  " stroke-width="2" stroke="#ffb300" fill="none" />
  <path d="M 363.5 536.5  A 3.5 3.5 0 0 0 360 540 A 3.5 3.5 0 0 0 363.5 543.5 A 3.5 3.5 0 0 0 367 540 A 3.5 3.5 0 0 0 363.5 536.5 Z M 363.5 538.5  A 1.5 1.5 0 0 1 365 540 A 1.5 1.5 0 0 1 363.5 541.5 A 1.5 1.5 0 0 1 362 540 A 1.5 1.5 0 0 1 363.5 538.5 Z M 412.89289321881347 645.7071067811866  L 417.1857864376269 650  L 412.89289321881347 654.2928932188134  L 414.3071067811866 655.7071067811866  L 419.3071067811866 650.7071067811866  L 420.01421356237313 650  L 419.3071067811866 649.2928932188134  L 414.3071067811866 644.2928932188134  L 412.89289321881347 645.7071067811866  Z " fill-rule="nonzero" fill="#ffb300" stroke="none" />
</svg>