<?xml version="1.0" encoding="utf-8"?>
<svg version="1.1" xmlns:xlink="http://www.w3.org/1999/xlink" width="20px" height="20px" preserveAspectRatio="xMinYMid meet" viewBox="910 433  20 18" xmlns="http://www.w3.org/2000/svg">
  <path d="M 726 650  L 915 650  A 5 5 0 0 0 920 645 L 920 442  " stroke-width="2" stroke="#ffb300" fill="none" />
  <path d="M 723.5 646.5  A 3.5 3.5 0 0 0 720 650 A 3.5 3.5 0 0 0 723.5 653.5 A 3.5 3.5 0 0 0 727 650 A 3.5 3.5 0 0 0 723.5 646.5 Z M 723.5 648.5  A 1.5 1.5 0 0 1 725 650 A 1.5 1.5 0 0 1 723.5 651.5 A 1.5 1.5 0 0 1 722 650 A 1.5 1.5 0 0 1 723.5 648.5 Z M 915.7071067811866 447.10710678118653  L 920 442.8142135623731  L 924.2928932188134 447.10710678118653  L 925.7071067811866 445.6928932188134  L 920.7071067811866 440.6928932188134  L 920 439.98578643762687  L 919.2928932188134 440.6928932188134  L 914.2928932188134 445.6928932188134  L 915.7071067811866 447.10710678118653  Z " fill-rule="nonzero" fill="#ffb300" stroke="none" />
</svg>