<?xml version="1.0" encoding="utf-8"?>
<svg version="1.1" xmlns:xlink="http://www.w3.org/1999/xlink" width="20px" height="20px" preserveAspectRatio="xMinYMid meet" viewBox="1475 509  20 18" xmlns="http://www.w3.org/2000/svg">
  <path d="M 1201 260  L 1480 260  A 5 5 0 0 1 1485 265 L 1485 518  " stroke-width="2" stroke="#ffb300" fill="none" />
  <path d="M 1198.5 256.5  A 3.5 3.5 0 0 0 1195 260 A 3.5 3.5 0 0 0 1198.5 263.5 A 3.5 3.5 0 0 0 1202 260 A 3.5 3.5 0 0 0 1198.5 256.5 Z M 1198.5 258.5  A 1.5 1.5 0 0 1 1200 260 A 1.5 1.5 0 0 1 1198.5 261.5 A 1.5 1.5 0 0 1 1197 260 A 1.5 1.5 0 0 1 1198.5 258.5 Z M 1489.2928932188136 512.8928932188135  L 1485 517.185786437627  L 1480.7071067811864 512.8928932188135  L 1479.2928932188136 514.3071067811866  L 1484.2928932188136 519.3071067811866  L 1485 520.014213562373  L 1485.7071067811864 519.3071067811866  L 1490.7071067811864 514.3071067811866  L 1489.2928932188136 512.8928932188135  Z " fill-rule="nonzero" fill="#ffb300" stroke="none" />
</svg>