<?xml version="1.0" encoding="utf-8"?>
<svg version="1.1" xmlns:xlink="http://www.w3.org/1999/xlink" width="726px" height="10px" preserveAspectRatio="xMinYMid meet" viewBox="954 647  726 8" xmlns="http://www.w3.org/2000/svg">
  <path d="M 959 660  L 959 656  A 5 5 0 0 1 964 651 L 1674 651  " stroke-width="2" stroke="#ffb300" fill="none" />
  <path d="M 959 659  A 3.5 3.5 0 0 0 955.5 662.5 A 3.5 3.5 0 0 0 959 666 A 3.5 3.5 0 0 0 962.5 662.5 A 3.5 3.5 0 0 0 959 659 Z M 959 661  A 1.5 1.5 0 0 1 960.5 662.5 A 1.5 1.5 0 0 1 959 664 A 1.5 1.5 0 0 1 957.5 662.5 A 1.5 1.5 0 0 1 959 661 Z M 1673 658.6  L 1680 651  L 1673 643.4  L 1673 658.6  Z " fill-rule="nonzero" fill="#ffb300" stroke="none" />
</svg>