<?xml version="1.0" encoding="utf-8"?>
<svg version="1.1" xmlns:xlink="http://www.w3.org/1999/xlink" width="20px" height="20px" preserveAspectRatio="xMinYMid meet" viewBox="1665 642  20 18" xmlns="http://www.w3.org/2000/svg">
  <path d="M 921 651  L 1674 651  " stroke-width="2" stroke="#ffb300" fill="none" />
  <path d="M 922.929203673205 647.5  A 3.5 3.5 0 0 0 919.429203673205 651 A 3.5 3.5 0 0 0 922.929203673205 654.5 A 3.5 3.5 0 0 0 926.429203673205 651 A 3.5 3.5 0 0 0 922.929203673205 647.5 Z M 922.929203673205 649.5  A 1.5 1.5 0 0 1 924.429203673205 651 A 1.5 1.5 0 0 1 922.929203673205 652.5 A 1.5 1.5 0 0 1 921.429203673205 651 A 1.5 1.5 0 0 1 922.929203673205 649.5 Z M 1673 658.6  L 1680 651  L 1673 643.4  L 1673 658.6  Z " fill-rule="nonzero" fill="#ffb300" stroke="none" />
</svg>