<?xml version="1.0" encoding="utf-8"?>
<svg version="1.1" xmlns:xlink="http://www.w3.org/1999/xlink" width="375px" height="10px" preserveAspectRatio="xMinYMid meet" viewBox="1750 363  375 8" xmlns="http://www.w3.org/2000/svg">
  <path d="M 1756 367  L 2115 367  A 5 5 0 0 0 2120 362 L 2120 283  A 5 5 0 0 1 2125 278 L 2605 278  " stroke-width="2" stroke="#ffb300" fill="none" />
  <path d="M 1753.5 363.5  A 3.5 3.5 0 0 0 1750 367 A 3.5 3.5 0 0 0 1753.5 370.5 A 3.5 3.5 0 0 0 1757 367 A 3.5 3.5 0 0 0 1753.5 363.5 Z M 1753.5 365.5  A 1.5 1.5 0 0 1 1755 367 A 1.5 1.5 0 0 1 1753.5 368.5 A 1.5 1.5 0 0 1 1752 367 A 1.5 1.5 0 0 1 1753.5 365.5 Z M 2603 287.5  L 2617 278  L 2603 268.5  L 2603 287.5  Z " fill-rule="nonzero" fill="#ffb300" stroke="none" />
</svg>