<?xml version="1.0" encoding="utf-8"?>
<svg version="1.1" xmlns:xlink="http://www.w3.org/1999/xlink" width="361px" height="10px" preserveAspectRatio="xMinYMid meet" viewBox="2266 397  361 8" xmlns="http://www.w3.org/2000/svg">
  <path d="M 1922 454  L 2266 454  A 5 5 0 0 0 2271 449 L 2271 406  A 5 5 0 0 1 2276 401 L 2615 401  " stroke-width="2" stroke="#ffb300" fill="none" />
  <path d="M 1919.5 450.5  A 3.5 3.5 0 0 0 1916 454 A 3.5 3.5 0 0 0 1919.5 457.5 A 3.5 3.5 0 0 0 1923 454 A 3.5 3.5 0 0 0 1919.5 450.5 Z M 1919.5 452.5  A 1.5 1.5 0 0 1 1921 454 A 1.5 1.5 0 0 1 1919.5 455.5 A 1.5 1.5 0 0 1 1918 454 A 1.5 1.5 0 0 1 1919.5 452.5 Z M 2613 410.5  L 2627 401  L 2613 391.5  L 2613 410.5  Z " fill-rule="nonzero" fill="#ffb300" stroke="none" />
</svg>