<?xml version="1.0" encoding="utf-8"?>
<svg version="1.1" xmlns:xlink="http://www.w3.org/1999/xlink" width="21px" height="20px" preserveAspectRatio="xMinYMid meet" viewBox="1883 558  21 18" xmlns="http://www.w3.org/2000/svg">
  <path d="M 1896 567  L 2295 567  A 5 5 0 0 0 2300 562 L 2300 484  A 5 5 0 0 1 2305 479 L 2628 479  " stroke-width="2" stroke="#ffb300" fill="none" />
  <path d="M 1893.5 563.5  A 3.5 3.5 0 0 0 1890 567 A 3.5 3.5 0 0 0 1893.5 570.5 A 3.5 3.5 0 0 0 1897 567 A 3.5 3.5 0 0 0 1893.5 563.5 Z M 1893.5 565.5  A 1.5 1.5 0 0 1 1895 567 A 1.5 1.5 0 0 1 1893.5 568.5 A 1.5 1.5 0 0 1 1892 567 A 1.5 1.5 0 0 1 1893.5 565.5 Z M 2626 488.5  L 2640 479  L 2626 469.5  L 2626 488.5  Z " fill-rule="nonzero" fill="#ffb300" stroke="none" />
</svg>