<?xml version="1.0" encoding="utf-8"?>
<svg version="1.1" xmlns:xlink="http://www.w3.org/1999/xlink" width="10px" height="40px" preserveAspectRatio="xMidYMin meet" viewBox="2223 576  8 40" xmlns="http://www.w3.org/2000/svg">
  <path d="M 1811 611  L 2222 611  A 5 5 0 0 0 2227 606 L 2227 586  A 5 5 0 0 1 2232 581 L 2638 581  " stroke-width="2" stroke="#ffb300" fill="none" />
  <path d="M 1808.5 607.5  A 3.5 3.5 0 0 0 1805 611 A 3.5 3.5 0 0 0 1808.5 614.5 A 3.5 3.5 0 0 0 1812 611 A 3.5 3.5 0 0 0 1808.5 607.5 Z M 1808.5 609.5  A 1.5 1.5 0 0 1 1810 611 A 1.5 1.5 0 0 1 1808.5 612.5 A 1.5 1.5 0 0 1 1807 611 A 1.5 1.5 0 0 1 1808.5 609.5 Z M 2636 590.5  L 2650 581  L 2636 571.5  L 2636 590.5  Z " fill-rule="nonzero" fill="#ffb300" stroke="none" />
</svg>