<?xml version="1.0" encoding="utf-8"?>
<svg version="1.1" xmlns:xlink="http://www.w3.org/1999/xlink" width="29px" height="22px" xmlns="http://www.w3.org/2000/svg">
  <g transform="matrix(1 0 0 1 -1300 -207 )">
    <path d="M 4.9003300330033 20.14125412541254  L 6.9485148514851485 20.14125412541254  L 8.69042904290429 18.81980198019802  L 4.192079207920791 15.407260726072607  L 2.45016501650165 16.72871287128713  L 2.45016501650165 18.28250825082508  L 4.9003300330033 18.28250825082508  L 4.9003300330033 20.14125412541254  Z M 16.825742574257426 6.912211221122112  C 16.915071507150717 6.844444444444445  16.95973597359736 6.762156215621561  16.95973597359736 6.665346534653466  C 16.95973597359736 6.452365236523653  16.81936193619362 6.345874587458745  16.538613861386136 6.345874587458745  C 16.411001100110013 6.345874587458745  16.302530253025306 6.379757975797578  16.213201320132015 6.447524752475248  L 5.838283828382838 14.318151815181519  C 5.7489548954895495 14.385918591859184  5.704290429042905 14.468206820682065  5.704290429042905 14.565016501650165  C 5.704290429042905 14.777997799779975  5.844664466446646 14.884488448844886  6.125412541254126 14.884488448844886  C 6.253025302530253 14.884488448844886  6.361496149614962 14.85060506050605  6.450825082508251 14.782838283828383  L 16.825742574257426 6.912211221122112  Z M 0 15.95907590759076  L 15.926072607260727 3.877227722772278  L 23.88910891089109 9.918151815181519  L 7.963036303630363 22  L 0 22  L 0 15.95907590759076  Z M 28.29174917491749 3.9498349834983495  C 28.763916391639164 4.327392739273928  29 4.767876787678768  29 5.271287128712871  C 29 5.784378437843785  28.763916391639164 6.220022002200218  28.29174917491749 6.578217821782179  L 25.114191419141914 8.988778877887789  L 17.15115511551155 2.947854785478549  L 20.328712871287127 0.5518151815181507  C 20.788118811881187 0.18393839383938193  21.362376237623764 0  22.051485148514853 0  C 22.72783278327833 0  23.30847084708471 0.18393839383938193  23.793399339933995 0.5518151815181507  L 28.29174917491749 3.9498349834983495  Z " fill-rule="nonzero" fill="#7f7f7f" stroke="none" transform="matrix(1 0 0 1 1300 207 )" />
  </g>
</svg>