<?xml version="1.0" encoding="utf-8"?>
<svg version="1.1" xmlns:xlink="http://www.w3.org/1999/xlink" width="17px" height="16px" xmlns="http://www.w3.org/2000/svg">
  <g transform="matrix(1 0 0 1 -1369 -307 )">
    <path d="M 16.661931818181817 6.136363636363637  C 16.887310606060606 6.348484848484846  17 6.6060606060606055  17 6.909090909090908  L 17 9.09090909090909  C 17 9.393939393939394  16.887310606060606 9.65151515151515  16.661931818181817 9.863636363636363  C 16.43655303030303 10.075757575757574  16.16287878787879 10.181818181818182  15.84090909090909 10.181818181818182  L 10.818181818181818 10.181818181818182  L 10.818181818181818 14.90909090909091  C 10.818181818181818 15.212121212121213  10.705492424242424 15.469696969696969  10.480113636363637 15.681818181818182  C 10.254734848484851 15.893939393939394  9.981060606060607 16  9.65909090909091 16  L 7.340909090909091 16  C 7.0189393939393945 16  6.745265151515152 15.893939393939394  6.519886363636364 15.681818181818182  C 6.294507575757576 15.469696969696969  6.181818181818182 15.212121212121213  6.181818181818182 14.90909090909091  L 6.181818181818182 10.181818181818182  L 1.159090909090909 10.181818181818182  C 0.8371212121212122 10.181818181818182  0.5634469696969698 10.075757575757574  0.3380681818181818 9.863636363636363  C 0.11268939393939392 9.65151515151515  0 9.393939393939394  0 9.09090909090909  L 0 6.909090909090908  C 0 6.6060606060606055  0.11268939393939392 6.348484848484846  0.3380681818181818 6.136363636363637  C 0.5634469696969698 5.924242424242424  0.8371212121212122 5.818181818181818  1.159090909090909 5.818181818181818  L 6.181818181818182 5.818181818181818  L 6.181818181818182 1.0909090909090917  C 6.181818181818182 0.7878787878787872  6.294507575757576 0.5303030303030294  6.519886363636364 0.31818181818181834  C 6.745265151515152 0.10606060606060552  7.0189393939393945 0  7.340909090909091 0  L 9.65909090909091 0  C 9.981060606060607 0  10.254734848484851 0.10606060606060552  10.480113636363637 0.31818181818181834  C 10.705492424242424 0.5303030303030294  10.818181818181818 0.7878787878787872  10.818181818181818 1.0909090909090917  L 10.818181818181818 5.818181818181818  L 15.84090909090909 5.818181818181818  C 16.16287878787879 5.818181818181818  16.43655303030303 5.924242424242424  16.661931818181817 6.136363636363637  Z " fill-rule="nonzero" fill="#02a7f0" stroke="none" transform="matrix(1 0 0 1 1369 307 )" />
  </g>
</svg>