<?xml version="1.0" encoding="utf-8"?>
<svg version="1.1" xmlns:xlink="http://www.w3.org/1999/xlink" width="16px" height="16px" xmlns="http://www.w3.org/2000/svg">
  <g transform="matrix(1 0 0 1 -19 -506 )">
    <path d="M 27 506  C 31.48 506  35 509.52  35 514  C 35 518.48  31.48 522  27 522  C 22.52 522  19 518.48  19 514  C 19 509.52  22.52 506  27 506  Z " fill-rule="nonzero" fill="#ffffff" stroke="none" />
    <path d="M 27 506.5  C 31.200000000000003 506.5  34.5 509.8  34.5 514  C 34.5 518.2  31.200000000000003 521.5  27 521.5  C 22.8 521.5  19.5 518.2  19.5 514  C 19.5 509.8  22.8 506.5  27 506.5  Z " stroke-width="1" stroke="#797979" fill="none" />
  </g>
</svg>