<?xml version="1.0" encoding="utf-8"?>
<svg version="1.1" xmlns:xlink="http://www.w3.org/1999/xlink" width="20px" height="29px" xmlns="http://www.w3.org/2000/svg">
  <g transform="matrix(1 0 0 1 -348 -11 )">
    <path d="M 5.078125 26.658854166666668  C 5.442708333333334 26.30642361111111  5.625 25.878472222222225  5.625 25.375  C 5.625 24.871527777777775  5.442708333333334 24.44357638888889  5.078125 24.091145833333332  C 4.713541666666667 23.738715277777775  4.270833333333334 23.5625  3.75 23.5625  C 3.229166666666667 23.5625  2.786458333333334 23.738715277777775  2.421875 24.091145833333332  C 2.0572916666666665 24.44357638888889  1.875 24.871527777777775  1.875 25.375  C 1.875 25.878472222222225  2.0572916666666665 26.30642361111111  2.421875 26.658854166666668  C 2.786458333333334 27.011284722222225  3.229166666666667 27.1875  3.75 27.1875  C 4.270833333333334 27.1875  4.713541666666667 27.011284722222225  5.078125 26.658854166666668  Z M 5.078125 4.908854166666668  C 5.442708333333334 4.556423611111109  5.625 4.1284722222222205  5.625 3.625  C 5.625 3.1215277777777763  5.442708333333334 2.693576388888885  5.078125 2.341145833333332  C 4.713541666666667 1.9887152777777763  4.270833333333334 1.8125  3.75 1.8125  C 3.229166666666667 1.8125  2.786458333333334 1.9887152777777763  2.421875 2.341145833333332  C 2.0572916666666665 2.693576388888885  1.875 3.1215277777777763  1.875 3.625  C 1.875 4.1284722222222205  2.0572916666666665 4.556423611111109  2.421875 4.908854166666668  C 2.786458333333334 5.2612847222222205  3.229166666666667 5.4375  3.75 5.4375  C 4.270833333333334 5.4375  4.713541666666667 5.2612847222222205  5.078125 4.908854166666668  Z M 17.578125 7.325520833333332  C 17.942708333333336 6.973090277777777  18.125 6.545138888888885  18.125 6.041666666666668  C 18.125 5.538194444444444  17.942708333333336 5.110243055555553  17.578125 4.7578125  C 17.213541666666668 4.405381944444444  16.770833333333336 4.229166666666668  16.25 4.229166666666668  C 15.72916666666667 4.229166666666668  15.286458333333336 4.405381944444444  14.921875 4.7578125  C 14.557291666666668 5.110243055555553  14.375 5.538194444444444  14.375 6.041666666666668  C 14.375 6.545138888888885  14.557291666666668 6.973090277777777  14.921875 7.325520833333332  C 15.286458333333336 7.677951388888885  15.72916666666667 7.854166666666668  16.25 7.854166666666668  C 16.770833333333336 7.854166666666668  17.213541666666668 7.677951388888885  17.578125 7.325520833333332  Z M 18.90625 3.473958333333332  C 19.635416666666668 4.178819444444444  20 5.0347222222222205  20 6.041666666666668  C 20 6.696180555555553  19.830729166666668 7.303493923611109  19.4921875 7.863606770833332  C 19.153645833333336 8.423719618055554  18.69791666666667 8.861111111111109  18.125 9.17578125  C 18.098958333333336 12.788194444444445  16.627604166666668 15.393663194444441  13.7109375 16.9921875  C 12.825520833333336 17.47048611111111  11.50390625 17.98025173611111  9.74609375 18.521484375  C 8.079427083333334 19.024956597222225  6.975911458333334 19.47178819444444  6.435546875 19.861979166666664  C 5.895182291666668 20.25217013888889  5.625 20.881510416666664  5.625 21.75  L 5.625 22.240885416666668  C 6.197916666666668 22.555555555555557  6.653645833333334 22.99294704861111  6.9921875 23.553059895833332  C 7.330729166666666 24.113172743055557  7.5 24.72048611111111  7.5 25.375  C 7.5 26.381944444444443  7.135416666666666 27.237847222222225  6.40625 27.942708333333332  C 5.677083333333334 28.647569444444443  4.791666666666667 29  3.75 29  C 2.708333333333334 29  1.822916666666667 28.647569444444443  1.09375 27.942708333333332  C 0.36458333333333326 27.237847222222225  0 26.381944444444443  0 25.375  C 0 24.72048611111111  0.16927083333333331 24.113172743055557  0.5078125 23.553059895833332  C 0.8463541666666667 22.99294704861111  1.3020833333333335 22.555555555555557  2 22.240885416666668  L 2 6.759114583333332  C 1.3020833333333335 6.444444444444444  0.8463541666666667 6.007052951388885  0.5078125 5.446940104166668  C 0.16927083333333331 4.886827256944444  0 4.279513888888885  0 3.625  C 0 2.6180555555555527  0.36458333333333326 1.7621527777777763  1.09375 1.0572916666666679  C 1.822916666666667 0.3524305555555527  2.708333333333334 0  3.75 0  C 4.791666666666667 0  5.677083333333334 0.3524305555555527  6.40625 1.0572916666666679  C 7.135416666666666 1.7621527777777763  7.5 2.6180555555555527  7.5 3.625  C 7.5 4.279513888888885  7.330729166666666 4.886827256944444  6.9921875 5.446940104166668  C 6.653645833333334 6.007052951388885  6.197916666666668 6.444444444444444  5.625 6.759114583333332  L 5.625 16.142578125  C 6.328125 15.815321180555554  7.330729166666668 15.456597222222223  8.6328125 15.06640625  C 9.348958333333334 14.852430555555554  9.918619791666668 14.666775173611112  10.341796875 14.509440104166664  C 10.764973958333336 14.35210503472222  11.223958333333336 14.157009548611109  11.71875 13.924153645833332  C 12.213541666666668 13.691297743055555  12.59765625 13.442708333333332  12.87109375 13.178385416666668  C 13.14453125 12.9140625  13.408203125 12.593098958333332  13.662109375 12.215494791666668  C 13.916015625 11.837890625  14.098307291666668 11.400499131944445  14.208984375 10.9033203125  C 14.319661458333336 10.406141493055554  14.375 9.830295138888886  14.375 9.17578125  C 13.802083333333336 8.861111111111109  13.346354166666668 8.423719618055554  13.0078125 7.863606770833332  C 12.669270833333336 7.303493923611109  12.5 6.696180555555553  12.5 6.041666666666668  C 12.5 5.0347222222222205  12.864583333333336 4.178819444444444  13.59375 3.473958333333332  C 14.322916666666668 2.7690972222222205  15.208333333333336 2.416666666666668  16.25 2.416666666666668  C 17.29166666666667 2.416666666666668  18.177083333333336 2.7690972222222205  18.90625 3.473958333333332  Z " fill-rule="nonzero" fill="#333333" stroke="none" transform="matrix(1 0 0 1 348 11 )" />
  </g>
</svg>