<?xml version="1.0" encoding="utf-8"?>
<svg version="1.1" xmlns:xlink="http://www.w3.org/1999/xlink" width="10px" height="12px" xmlns="http://www.w3.org/2000/svg">
  <g transform="matrix(1 0 0 1 -1004 -314 )">
    <path d="M 9.828178694158074 5.7234468937875755  C 9.942726231386027 5.803607214428857  10 5.895791583166332  10 6  C 10 6.104208416833666  9.942726231386027 6.196392785571142  9.828178694158074 6.2765531062124245  L 1.8213058419243986 11.879759519038076  C 1.7067583046964492 11.959919839679358  1.575028636884307 12  1.4261168384879723 12  C 1.2772050400916382 12  1.1454753722794961 11.959919839679358  1.0309278350515463 11.879759519038076  L 0.1718213058419244 11.278557114228457  C 0.05727376861397484 11.198396793587174  0 11.1062124248497  0 11.002004008016032  C 0 10.897795591182364  0.05727376861397484 10.80561122244489  0.1718213058419244 10.725450901803608  L 6.9243986254295535 6  L 0.1718213058419244 1.2745490981963927  C 0.05727376861397484 1.1943887775551096  0 1.1022044088176348  0 0.9979959919839683  C 0 0.893787575150299  0.05727376861397484 0.8016032064128242  0.1718213058419244 0.7214428857715425  L 1.0309278350515463 0.12024048096192397  C 1.1454753722794961 0.04008016032064088  1.2772050400916382 0  1.4261168384879723 0  C 1.575028636884307 0  1.7067583046964492 0.04008016032064088  1.8213058419243986 0.12024048096192397  L 9.828178694158074 5.7234468937875755  Z " fill-rule="nonzero" fill="#000000" stroke="none" transform="matrix(1 0 0 1 1004 314 )" />
  </g>
</svg>