<?xml version="1.0" encoding="utf-8"?>
<svg version="1.1" xmlns:xlink="http://www.w3.org/1999/xlink" width="13px" height="13px" xmlns="http://www.w3.org/2000/svg">
  <g transform="matrix(1 0 0 1 -946 -502 )">
    <path d="M 952.5 502  C 956.14 502  959 504.86  959 508.5  C 959 512.14  956.14 515  952.5 515  C 948.86 515  946 512.14  946 508.5  C 946 504.86  948.86 502  952.5 502  Z " fill-rule="nonzero" fill="#555555" stroke="none" />
    <path d="M 952.5 502.5  C 955.86 502.5  958.5 505.14  958.5 508.5  C 958.5 511.86  955.86 514.5  952.5 514.5  C 949.14 514.5  946.5 511.86  946.5 508.5  C 946.5 505.14  949.14 502.5  952.5 502.5  Z " stroke-width="1" stroke="#797979" fill="none" />
  </g>
</svg>