<?xml version="1.0" encoding="utf-8"?>
<svg version="1.1" xmlns:xlink="http://www.w3.org/1999/xlink" width="94px" height="38px" xmlns="http://www.w3.org/2000/svg">
  <g transform="matrix(1 0 0 1 -490 -126 )">
    <path d="M 491 128  A 1 1 0 0 1 492 127 L 582 127  A 1 1 0 0 1 583 128 L 583 162  A 1 1 0 0 1 582 163 L 492 163  A 1 1 0 0 1 491 162 L 491 128  Z " fill-rule="nonzero" fill="#ff784e" stroke="none" fill-opacity="0.8" />
    <path d="M 490.5 128  A 1.5 1.5 0 0 1 492 126.5 L 582 126.5  A 1.5 1.5 0 0 1 583.5 128 L 583.5 162  A 1.5 1.5 0 0 1 582 163.5 L 492 163.5  A 1.5 1.5 0 0 1 490.5 162 L 490.5 128  Z " stroke-width="1" stroke="#ff784e" fill="none" stroke-opacity="0.8" />
  </g>
</svg>