<?xml version="1.0" encoding="utf-8"?>
<svg version="1.1" xmlns:xlink="http://www.w3.org/1999/xlink" width="13px" height="10px" xmlns="http://www.w3.org/2000/svg">
  <g transform="matrix(1 0 0 1 -993 -294 )">
    <path d="M 12.869739478957916 1.030927835051546  C 12.956579826319306 1.145475372279493  13 1.2772050400916368  13 1.426116838487973  C 13 1.5750286368843058  12.956579826319306 1.7067583046964474  12.869739478957916 1.8213058419243988  L 6.799599198396793 9.828178694158074  C 6.712758851035405 9.942726231386022  6.612892451569807 10  6.5 10  C 6.387107548430195 10  6.287241148964597 9.942726231386022  6.200400801603206 9.828178694158074  L 0.13026052104208416 1.8213058419243988  C 0.04342017368069485 1.7067583046964474  0 1.5750286368843058  0 1.426116838487973  C 0 1.2772050400916368  0.04342017368069485 1.145475372279493  0.13026052104208416 1.030927835051546  L 0.781563126252505 0.1718213058419249  C 0.8684034736138947 0.057273768613973486  0.9682698730794924 0  1.0811623246492985 0  C 1.1940547762191052 0  1.2939211756847029 0.057273768613973486  1.3807615230460921 0.1718213058419249  L 6.5 6.9243986254295535  L 11.619238476953909 0.1718213058419249  C 11.706078824315298 0.057273768613973486  11.805945223780896 0  11.918837675350701 0  C 12.03173012692051 0  12.131596526386106 0.057273768613973486  12.218436873747496 0.1718213058419249  L 12.869739478957916 1.030927835051546  Z " fill-rule="nonzero" fill="#555555" stroke="none" transform="matrix(1 0 0 1 993 294 )" />
  </g>
</svg>