<?xml version="1.0" encoding="utf-8"?>
<svg version="1.1" xmlns:xlink="http://www.w3.org/1999/xlink" width="20px" height="24px" xmlns="http://www.w3.org/2000/svg">
  <defs>
    <mask fill="white" id="clip5">
      <path d="M 8.786057692307693 2.2433035714285703  C 8.489583333333334 1.8906249999999991  8.125 1.7142857142857135  7.6923076923076925 1.7142857142857135  C 7.267628205128206 1.7142857142857135  6.905048076923077 1.8816964285714297  6.6045673076923075 2.2165178571428568  C 6.304086538461538 2.5513392857142865  6.153846153846154 2.9553571428571397  6.153846153846154 3.4285714285714297  L 6.153846153846154 10.285714285714286  L 6.153846153846154 15.428571428571427  L 4.3389423076923075 12.723214285714286  C 4.010416666666667 12.241071428571427  3.581730769230769 12  3.052884615384616 12  C 2.636217948717949 12  2.279647435897436 12.169642857142856  1.9831730769230769 12.508928571428573  C 1.686698717948718 12.848214285714285  1.5384615384615385 13.249999999999998  1.5384615384615385 13.714285714285714  C 1.5384615384615385 14.098214285714285  1.6426282051282053 14.441964285714285  1.8509615384615385 14.745535714285714  L 6.466346153846154 21.60267857142857  C 6.770833333333334 22.058035714285715  7.17948717948718 22.285714285714285  7.6923076923076925 22.285714285714285  L 16.322115384615387 22.285714285714285  C 16.498397435897438 22.285714285714285  16.656650641025642 22.22544642857143  16.796875 22.104910714285715  C 16.937099358974358 21.984375  17.02724358974359 21.830357142857142  17.067307692307693 21.642857142857142  L 18.173076923076923 16.714285714285715  C 18.365384615384613 15.857142857142858  18.461538461538463 14.99107142857143  18.461538461538463 14.116071428571427  L 18.461538461538463 11.20982142857143  C 18.461538461538463 10.84375  18.349358974358974 10.526785714285714  18.125 10.25892857142857  C 17.900641025641026 9.99107142857143  17.62820512820513 9.857142857142858  17.307692307692307 9.857142857142858  C 16.98717948717949 9.857142857142858  16.71474358974359 9.982142857142854  16.490384615384613 10.232142857142858  C 16.266025641025642 10.482142857142856  16.153846153846153 10.785714285714285  16.153846153846153 11.142857142857142  L 15.769230769230768 11.142857142857142  L 15.769230769230768 10.325892857142858  C 15.769230769230768 9.89732142857143  15.641025641025642 9.533482142857142  15.384615384615385 9.234375  C 15.12820512820513 8.935267857142856  14.807692307692308 8.785714285714286  14.423076923076923 8.785714285714286  C 14.05448717948718 8.785714285714286  13.737980769230768 8.933035714285714  13.473557692307692 9.22767857142857  C 13.209134615384615 9.52232142857143  13.076923076923077 9.874999999999998  13.076923076923077 10.285714285714286  L 13.076923076923077 11.142857142857142  L 12.692307692307692 11.142857142857142  L 12.692307692307692 9.9375  C 12.692307692307692 9.446428571428571  12.544070512820513 9.024553571428571  12.247596153846153 8.671875  C 11.951121794871796 8.319196428571427  11.586538461538463 8.142857142857142  11.153846153846153 8.142857142857142  C 10.729166666666668 8.142857142857142  10.366586538461537 8.310267857142858  10.066105769230768 8.645089285714286  C 9.765625 8.979910714285714  9.615384615384615 9.38392857142857  9.615384615384615 9.857142857142858  L 9.615384615384615 11.142857142857142  L 9.230769230769232 11.142857142857142  L 9.230769230769232 3.5089285714285703  C 9.230769230769232 3.0178571428571415  9.082532051282051 2.5959821428571415  8.786057692307693 2.2433035714285703  Z M 5.516826923076923 1.0044642857142865  C 6.117788461538463 0.3348214285714297  6.842948717948718 0  7.6923076923076925 0  C 8.549679487179487 0  9.276842948717949 0.3459821428571441  9.873798076923077 1.0379464285714297  C 10.470753205128208 1.7299107142857126  10.769230769230768 2.553571428571426  10.769230769230768 3.5089285714285703  L 10.769230769230768 6.455357142857143  C 10.945512820512821 6.437499999999999  11.073717948717952 6.42857142857143  11.153846153846153 6.42857142857143  C 11.947115384615385 6.42857142857143  12.64022435897436 6.736607142857143  13.233173076923077 7.35267857142857  C 13.609775641025642 7.16517857142857  14.006410256410257 7.07142857142857  14.423076923076923 7.07142857142857  C 15.328525641025642 7.07142857142857  16.06570512820513 7.45982142857143  16.634615384615387 8.236607142857142  C 16.850961538461537 8.174107142857142  17.075320512820515 8.142857142857142  17.307692307692307 8.142857142857142  C 18.060897435897438 8.142857142857142  18.697916666666668 8.44419642857143  19.21875 9.046875  C 19.739583333333336 9.64955357142857  20 10.370535714285715  20 11.20982142857143  L 20 14.116071428571427  C 20 15.151785714285712  19.887820512820515 16.15625  19.663461538461537 17.129464285714285  L 18.557692307692307 22.058035714285715  C 18.429487179487182 22.629464285714285  18.15705128205128 23.095982142857142  17.740384615384613 23.457589285714285  C 17.323717948717952 23.81919642857143  16.850961538461537 24  16.322115384615387 24  L 7.6923076923076925 24  C 7.211538461538462 24  6.752804487179488 23.877232142857142  6.316105769230768 23.63169642857143  C 5.879407051282052 23.386160714285715  5.516826923076924 23.05357142857143  5.228365384615384 22.63392857142857  L 0.6129807692307692 15.776785714285714  C 0.20432692307692307 15.169642857142856  0 14.482142857142858  0 13.714285714285714  C 0 12.776785714285714  0.2984775641025641 11.970982142857142  0.8954326923076923 11.296875  C 1.4923878205128205 10.622767857142858  2.2115384615384617 10.285714285714286  3.052884615384616 10.285714285714286  C 3.6217948717948723 10.285714285714286  4.142628205128205 10.441964285714285  4.615384615384616 10.754464285714286  L 4.615384615384616 3.4285714285714297  C 4.615384615384616 2.482142857142855  4.915865384615384 1.6741071428571432  5.516826923076923 1.0044642857142865  Z M 8.846153846153847 18.857142857142858  L 9.230769230769232 18.857142857142858  L 9.230769230769232 13.714285714285714  L 8.846153846153847 13.714285714285714  L 8.846153846153847 18.857142857142858  Z M 11.923076923076923 18.857142857142858  L 12.307692307692308 18.857142857142858  L 12.307692307692308 13.714285714285714  L 11.923076923076923 13.714285714285714  L 11.923076923076923 18.857142857142858  Z M 15 18.857142857142858  L 15.384615384615385 18.857142857142858  L 15.384615384615385 13.714285714285714  L 15 13.714285714285714  L 15 18.857142857142858  Z " fill-rule="evenodd" />
    </mask>
  </defs>
  <g transform="matrix(1 0 0 1 -800 -392 )">
    <path d="M 8.786057692307693 2.2433035714285703  C 8.489583333333334 1.8906249999999991  8.125 1.7142857142857135  7.6923076923076925 1.7142857142857135  C 7.267628205128206 1.7142857142857135  6.905048076923077 1.8816964285714297  6.6045673076923075 2.2165178571428568  C 6.304086538461538 2.5513392857142865  6.153846153846154 2.9553571428571397  6.153846153846154 3.4285714285714297  L 6.153846153846154 10.285714285714286  L 6.153846153846154 15.428571428571427  L 4.3389423076923075 12.723214285714286  C 4.010416666666667 12.241071428571427  3.581730769230769 12  3.052884615384616 12  C 2.636217948717949 12  2.279647435897436 12.169642857142856  1.9831730769230769 12.508928571428573  C 1.686698717948718 12.848214285714285  1.5384615384615385 13.249999999999998  1.5384615384615385 13.714285714285714  C 1.5384615384615385 14.098214285714285  1.6426282051282053 14.441964285714285  1.8509615384615385 14.745535714285714  L 6.466346153846154 21.60267857142857  C 6.770833333333334 22.058035714285715  7.17948717948718 22.285714285714285  7.6923076923076925 22.285714285714285  L 16.322115384615387 22.285714285714285  C 16.498397435897438 22.285714285714285  16.656650641025642 22.22544642857143  16.796875 22.104910714285715  C 16.937099358974358 21.984375  17.02724358974359 21.830357142857142  17.067307692307693 21.642857142857142  L 18.173076923076923 16.714285714285715  C 18.365384615384613 15.857142857142858  18.461538461538463 14.99107142857143  18.461538461538463 14.116071428571427  L 18.461538461538463 11.20982142857143  C 18.461538461538463 10.84375  18.349358974358974 10.526785714285714  18.125 10.25892857142857  C 17.900641025641026 9.99107142857143  17.62820512820513 9.857142857142858  17.307692307692307 9.857142857142858  C 16.98717948717949 9.857142857142858  16.71474358974359 9.982142857142854  16.490384615384613 10.232142857142858  C 16.266025641025642 10.482142857142856  16.153846153846153 10.785714285714285  16.153846153846153 11.142857142857142  L 15.769230769230768 11.142857142857142  L 15.769230769230768 10.325892857142858  C 15.769230769230768 9.89732142857143  15.641025641025642 9.533482142857142  15.384615384615385 9.234375  C 15.12820512820513 8.935267857142856  14.807692307692308 8.785714285714286  14.423076923076923 8.785714285714286  C 14.05448717948718 8.785714285714286  13.737980769230768 8.933035714285714  13.473557692307692 9.22767857142857  C 13.209134615384615 9.52232142857143  13.076923076923077 9.874999999999998  13.076923076923077 10.285714285714286  L 13.076923076923077 11.142857142857142  L 12.692307692307692 11.142857142857142  L 12.692307692307692 9.9375  C 12.692307692307692 9.446428571428571  12.544070512820513 9.024553571428571  12.247596153846153 8.671875  C 11.951121794871796 8.319196428571427  11.586538461538463 8.142857142857142  11.153846153846153 8.142857142857142  C 10.729166666666668 8.142857142857142  10.366586538461537 8.310267857142858  10.066105769230768 8.645089285714286  C 9.765625 8.979910714285714  9.615384615384615 9.38392857142857  9.615384615384615 9.857142857142858  L 9.615384615384615 11.142857142857142  L 9.230769230769232 11.142857142857142  L 9.230769230769232 3.5089285714285703  C 9.230769230769232 3.0178571428571415  9.082532051282051 2.5959821428571415  8.786057692307693 2.2433035714285703  Z M 5.516826923076923 1.0044642857142865  C 6.117788461538463 0.3348214285714297  6.842948717948718 0  7.6923076923076925 0  C 8.549679487179487 0  9.276842948717949 0.3459821428571441  9.873798076923077 1.0379464285714297  C 10.470753205128208 1.7299107142857126  10.769230769230768 2.553571428571426  10.769230769230768 3.5089285714285703  L 10.769230769230768 6.455357142857143  C 10.945512820512821 6.437499999999999  11.073717948717952 6.42857142857143  11.153846153846153 6.42857142857143  C 11.947115384615385 6.42857142857143  12.64022435897436 6.736607142857143  13.233173076923077 7.35267857142857  C 13.609775641025642 7.16517857142857  14.006410256410257 7.07142857142857  14.423076923076923 7.07142857142857  C 15.328525641025642 7.07142857142857  16.06570512820513 7.45982142857143  16.634615384615387 8.236607142857142  C 16.850961538461537 8.174107142857142  17.075320512820515 8.142857142857142  17.307692307692307 8.142857142857142  C 18.060897435897438 8.142857142857142  18.697916666666668 8.44419642857143  19.21875 9.046875  C 19.739583333333336 9.64955357142857  20 10.370535714285715  20 11.20982142857143  L 20 14.116071428571427  C 20 15.151785714285712  19.887820512820515 16.15625  19.663461538461537 17.129464285714285  L 18.557692307692307 22.058035714285715  C 18.429487179487182 22.629464285714285  18.15705128205128 23.095982142857142  17.740384615384613 23.457589285714285  C 17.323717948717952 23.81919642857143  16.850961538461537 24  16.322115384615387 24  L 7.6923076923076925 24  C 7.211538461538462 24  6.752804487179488 23.877232142857142  6.316105769230768 23.63169642857143  C 5.879407051282052 23.386160714285715  5.516826923076924 23.05357142857143  5.228365384615384 22.63392857142857  L 0.6129807692307692 15.776785714285714  C 0.20432692307692307 15.169642857142856  0 14.482142857142858  0 13.714285714285714  C 0 12.776785714285714  0.2984775641025641 11.970982142857142  0.8954326923076923 11.296875  C 1.4923878205128205 10.622767857142858  2.2115384615384617 10.285714285714286  3.052884615384616 10.285714285714286  C 3.6217948717948723 10.285714285714286  4.142628205128205 10.441964285714285  4.615384615384616 10.754464285714286  L 4.615384615384616 3.4285714285714297  C 4.615384615384616 2.482142857142855  4.915865384615384 1.6741071428571432  5.516826923076923 1.0044642857142865  Z M 8.846153846153847 18.857142857142858  L 9.230769230769232 18.857142857142858  L 9.230769230769232 13.714285714285714  L 8.846153846153847 13.714285714285714  L 8.846153846153847 18.857142857142858  Z M 11.923076923076923 18.857142857142858  L 12.307692307692308 18.857142857142858  L 12.307692307692308 13.714285714285714  L 11.923076923076923 13.714285714285714  L 11.923076923076923 18.857142857142858  Z M 15 18.857142857142858  L 15.384615384615385 18.857142857142858  L 15.384615384615385 13.714285714285714  L 15 13.714285714285714  L 15 18.857142857142858  Z " fill-rule="nonzero" fill="#ffffff" stroke="none" transform="matrix(1 0 0 1 800 392 )" />
    <path d="M 8.786057692307693 2.2433035714285703  C 8.489583333333334 1.8906249999999991  8.125 1.7142857142857135  7.6923076923076925 1.7142857142857135  C 7.267628205128206 1.7142857142857135  6.905048076923077 1.8816964285714297  6.6045673076923075 2.2165178571428568  C 6.304086538461538 2.5513392857142865  6.153846153846154 2.9553571428571397  6.153846153846154 3.4285714285714297  L 6.153846153846154 10.285714285714286  L 6.153846153846154 15.428571428571427  L 4.3389423076923075 12.723214285714286  C 4.010416666666667 12.241071428571427  3.581730769230769 12  3.052884615384616 12  C 2.636217948717949 12  2.279647435897436 12.169642857142856  1.9831730769230769 12.508928571428573  C 1.686698717948718 12.848214285714285  1.5384615384615385 13.249999999999998  1.5384615384615385 13.714285714285714  C 1.5384615384615385 14.098214285714285  1.6426282051282053 14.441964285714285  1.8509615384615385 14.745535714285714  L 6.466346153846154 21.60267857142857  C 6.770833333333334 22.058035714285715  7.17948717948718 22.285714285714285  7.6923076923076925 22.285714285714285  L 16.322115384615387 22.285714285714285  C 16.498397435897438 22.285714285714285  16.656650641025642 22.22544642857143  16.796875 22.104910714285715  C 16.937099358974358 21.984375  17.02724358974359 21.830357142857142  17.067307692307693 21.642857142857142  L 18.173076923076923 16.714285714285715  C 18.365384615384613 15.857142857142858  18.461538461538463 14.99107142857143  18.461538461538463 14.116071428571427  L 18.461538461538463 11.20982142857143  C 18.461538461538463 10.84375  18.349358974358974 10.526785714285714  18.125 10.25892857142857  C 17.900641025641026 9.99107142857143  17.62820512820513 9.857142857142858  17.307692307692307 9.857142857142858  C 16.98717948717949 9.857142857142858  16.71474358974359 9.982142857142854  16.490384615384613 10.232142857142858  C 16.266025641025642 10.482142857142856  16.153846153846153 10.785714285714285  16.153846153846153 11.142857142857142  L 15.769230769230768 11.142857142857142  L 15.769230769230768 10.325892857142858  C 15.769230769230768 9.89732142857143  15.641025641025642 9.533482142857142  15.384615384615385 9.234375  C 15.12820512820513 8.935267857142856  14.807692307692308 8.785714285714286  14.423076923076923 8.785714285714286  C 14.05448717948718 8.785714285714286  13.737980769230768 8.933035714285714  13.473557692307692 9.22767857142857  C 13.209134615384615 9.52232142857143  13.076923076923077 9.874999999999998  13.076923076923077 10.285714285714286  L 13.076923076923077 11.142857142857142  L 12.692307692307692 11.142857142857142  L 12.692307692307692 9.9375  C 12.692307692307692 9.446428571428571  12.544070512820513 9.024553571428571  12.247596153846153 8.671875  C 11.951121794871796 8.319196428571427  11.586538461538463 8.142857142857142  11.153846153846153 8.142857142857142  C 10.729166666666668 8.142857142857142  10.366586538461537 8.310267857142858  10.066105769230768 8.645089285714286  C 9.765625 8.979910714285714  9.615384615384615 9.38392857142857  9.615384615384615 9.857142857142858  L 9.615384615384615 11.142857142857142  L 9.230769230769232 11.142857142857142  L 9.230769230769232 3.5089285714285703  C 9.230769230769232 3.0178571428571415  9.082532051282051 2.5959821428571415  8.786057692307693 2.2433035714285703  Z " stroke-width="2" stroke="#7f7f7f" fill="none" transform="matrix(1 0 0 1 800 392 )" mask="url(#clip5)" />
    <path d="M 5.516826923076923 1.0044642857142865  C 6.117788461538463 0.3348214285714297  6.842948717948718 0  7.6923076923076925 0  C 8.549679487179487 0  9.276842948717949 0.3459821428571441  9.873798076923077 1.0379464285714297  C 10.470753205128208 1.7299107142857126  10.769230769230768 2.553571428571426  10.769230769230768 3.5089285714285703  L 10.769230769230768 6.455357142857143  C 10.945512820512821 6.437499999999999  11.073717948717952 6.42857142857143  11.153846153846153 6.42857142857143  C 11.947115384615385 6.42857142857143  12.64022435897436 6.736607142857143  13.233173076923077 7.35267857142857  C 13.609775641025642 7.16517857142857  14.006410256410257 7.07142857142857  14.423076923076923 7.07142857142857  C 15.328525641025642 7.07142857142857  16.06570512820513 7.45982142857143  16.634615384615387 8.236607142857142  C 16.850961538461537 8.174107142857142  17.075320512820515 8.142857142857142  17.307692307692307 8.142857142857142  C 18.060897435897438 8.142857142857142  18.697916666666668 8.44419642857143  19.21875 9.046875  C 19.739583333333336 9.64955357142857  20 10.370535714285715  20 11.20982142857143  L 20 14.116071428571427  C 20 15.151785714285712  19.887820512820515 16.15625  19.663461538461537 17.129464285714285  L 18.557692307692307 22.058035714285715  C 18.429487179487182 22.629464285714285  18.15705128205128 23.095982142857142  17.740384615384613 23.457589285714285  C 17.323717948717952 23.81919642857143  16.850961538461537 24  16.322115384615387 24  L 7.6923076923076925 24  C 7.211538461538462 24  6.752804487179488 23.877232142857142  6.316105769230768 23.63169642857143  C 5.879407051282052 23.386160714285715  5.516826923076924 23.05357142857143  5.228365384615384 22.63392857142857  L 0.6129807692307692 15.776785714285714  C 0.20432692307692307 15.169642857142856  0 14.482142857142858  0 13.714285714285714  C 0 12.776785714285714  0.2984775641025641 11.970982142857142  0.8954326923076923 11.296875  C 1.4923878205128205 10.622767857142858  2.2115384615384617 10.285714285714286  3.052884615384616 10.285714285714286  C 3.6217948717948723 10.285714285714286  4.142628205128205 10.441964285714285  4.615384615384616 10.754464285714286  L 4.615384615384616 3.4285714285714297  C 4.615384615384616 2.482142857142855  4.915865384615384 1.6741071428571432  5.516826923076923 1.0044642857142865  Z " stroke-width="2" stroke="#7f7f7f" fill="none" transform="matrix(1 0 0 1 800 392 )" mask="url(#clip5)" />
    <path d="M 8.846153846153847 18.857142857142858  L 9.230769230769232 18.857142857142858  L 9.230769230769232 13.714285714285714  L 8.846153846153847 13.714285714285714  L 8.846153846153847 18.857142857142858  Z " stroke-width="2" stroke="#7f7f7f" fill="none" transform="matrix(1 0 0 1 800 392 )" mask="url(#clip5)" />
    <path d="M 11.923076923076923 18.857142857142858  L 12.307692307692308 18.857142857142858  L 12.307692307692308 13.714285714285714  L 11.923076923076923 13.714285714285714  L 11.923076923076923 18.857142857142858  Z " stroke-width="2" stroke="#7f7f7f" fill="none" transform="matrix(1 0 0 1 800 392 )" mask="url(#clip5)" />
    <path d="M 15 18.857142857142858  L 15.384615384615385 18.857142857142858  L 15.384615384615385 13.714285714285714  L 15 13.714285714285714  L 15 18.857142857142858  Z " stroke-width="2" stroke="#7f7f7f" fill="none" transform="matrix(1 0 0 1 800 392 )" mask="url(#clip5)" />
  </g>
</svg>