<?xml version="1.0" encoding="utf-8"?>
<svg version="1.1" xmlns:xlink="http://www.w3.org/1999/xlink" width="23px" height="25px" xmlns="http://www.w3.org/2000/svg">
  <g transform="matrix(1 0 0 1 -1342 -370 )">
    <path d="M 3.8864686468646865 22.887788778877887  L 5.5108910891089105 22.887788778877887  L 6.892409240924093 21.386138613861387  L 3.3247524752475246 17.50825082508251  L 1.9432343234323433 19.00990099009901  L 1.9432343234323433 20.775577557755774  L 3.8864686468646865 20.775577557755774  L 3.8864686468646865 22.887788778877887  Z M 13.344554455445543 7.854785478547854  C 13.415401540154017 7.777777777777778  13.450825082508251 7.684268426842683  13.450825082508251 7.574257425742576  C 13.450825082508251 7.332233223322332  13.33949394939494 7.21122112211221  13.116831683168316 7.21122112211221  C 13.015621562156216 7.21122112211221  12.929592959295931 7.249724972497249  12.85874587458746 7.326732673267328  L 4.63036303630363 16.27062706270627  C 4.55951595159516 16.347634763476346  4.524092409240924 16.441144114411436  4.524092409240924 16.551155115511552  C 4.524092409240924 16.793179317931788  4.6354235423542365 16.914191419141915  4.858085808580858 16.914191419141915  C 4.95929592959296 16.914191419141915  5.045324532453246 16.875687568756874  5.116171617161716 16.7986798679868  L 13.344554455445543 7.854785478547854  Z M 0 18.135313531353138  L 12.63102310231023 4.405940594059407  L 18.946534653465346 11.27062706270627  L 6.315511551155115 25  L 0 25  L 0 18.135313531353138  Z M 22.43828382838284 4.488448844884488  C 22.812761276127613 4.917491749174918  23 5.418041804180418  23 5.99009900990099  C 23 6.5731573157315735  22.812761276127613 7.068206820682066  22.43828382838284 7.475247524752477  L 19.918151815181517 10.214521452145215  L 13.602640264026403 3.3498349834983507  L 16.12277227722772 0.6270627062706258  C 16.487128712871286 0.20902090209020674  16.942574257425743 0  17.48910891089109 0  C 18.02552255225523 0  18.486028602860287 0.20902090209020674  18.870627062706273 0.6270627062706258  L 22.43828382838284 4.488448844884488  Z " fill-rule="nonzero" fill="#7f7f7f" stroke="none" transform="matrix(1 0 0 1 1342 370 )" />
  </g>
</svg>