<?xml version="1.0" encoding="utf-8"?>
<svg version="1.1" xmlns:xlink="http://www.w3.org/1999/xlink" width="20px" height="25px" xmlns="http://www.w3.org/2000/svg">
  <g transform="matrix(1 0 0 1 -1391 -370 )">
    <path d="M 7.144886363636363 9.521484375  C 7.230113636363637 9.619140625  7.272727272727273 9.74392361111111  7.272727272727273 9.895833333333334  L 7.272727272727273 19.270833333333336  C 7.272727272727273 19.422743055555554  7.230113636363637 19.547526041666664  7.144886363636363 19.645182291666664  C 7.059659090909091 19.742838541666664  6.950757575757577 19.791666666666664  6.8181818181818175 19.791666666666664  L 5.909090909090909 19.791666666666664  C 5.776515151515152 19.791666666666664  5.667613636363638 19.742838541666664  5.582386363636363 19.645182291666664  C 5.497159090909091 19.547526041666664  5.454545454545454 19.422743055555554  5.454545454545454 19.270833333333336  L 5.454545454545454 9.895833333333334  C 5.454545454545454 9.74392361111111  5.497159090909091 9.619140625  5.582386363636363 9.521484375  C 5.667613636363638 9.423828125  5.776515151515152 9.375  5.909090909090909 9.375  L 6.8181818181818175 9.375  C 6.950757575757577 9.375  7.059659090909091 9.423828125  7.144886363636363 9.521484375  Z M 10.78125 9.521484375  C 10.866477272727273 9.619140625  10.909090909090908 9.74392361111111  10.909090909090908 9.895833333333334  L 10.909090909090908 19.270833333333336  C 10.909090909090908 19.422743055555554  10.866477272727273 19.547526041666664  10.78125 19.645182291666664  C 10.696022727272727 19.742838541666664  10.587121212121213 19.791666666666664  10.454545454545453 19.791666666666664  L 9.545454545454547 19.791666666666664  C 9.412878787878789 19.791666666666664  9.303977272727273 19.742838541666664  9.21875 19.645182291666664  C 9.133522727272727 19.547526041666664  9.09090909090909 19.422743055555554  9.09090909090909 19.270833333333336  L 9.09090909090909 9.895833333333334  C 9.09090909090909 9.74392361111111  9.133522727272727 9.619140625  9.21875 9.521484375  C 9.303977272727273 9.423828125  9.412878787878789 9.375  9.545454545454547 9.375  L 10.454545454545453 9.375  C 10.587121212121213 9.375  10.696022727272727 9.423828125  10.78125 9.521484375  Z M 14.417613636363635 9.521484375  C 14.502840909090908 9.619140625  14.545454545454547 9.74392361111111  14.545454545454547 9.895833333333334  L 14.545454545454547 19.270833333333336  C 14.545454545454547 19.422743055555554  14.502840909090908 19.547526041666664  14.417613636363635 19.645182291666664  C 14.332386363636365 19.742838541666664  14.223484848484848 19.791666666666664  14.090909090909092 19.791666666666664  L 13.181818181818182 19.791666666666664  C 13.049242424242424 19.791666666666664  12.940340909090908 19.742838541666664  12.855113636363635 19.645182291666664  C 12.769886363636365 19.547526041666664  12.727272727272727 19.422743055555554  12.727272727272727 19.270833333333336  L 12.727272727272727 9.895833333333334  C 12.727272727272727 9.74392361111111  12.769886363636365 9.619140625  12.855113636363635 9.521484375  C 12.940340909090908 9.423828125  13.049242424242424 9.375  13.181818181818182 9.375  L 14.090909090909092 9.375  C 14.223484848484848 9.375  14.332386363636365 9.423828125  14.417613636363635 9.521484375  Z M 16.264204545454547 22.3388671875  C 16.330492424242426 22.13812934027778  16.363636363636363 21.91840277777778  16 21.6796875  L 16 6.25  L 4 6.25  L 4 21.6796875  C 3.6363636363636367 21.91840277777778  3.669507575757576 22.13812934027778  3.7357954545454546 22.3388671875  C 3.802083333333334 22.53960503472222  3.8707386363636367 22.68608940972222  3.9417613636363633 22.7783203125  C 4.012784090909091 22.87055121527778  4.0625 22.916666666666664  4.090909090909091 23  L 15.909090909090908 23  C 15.9375 22.916666666666664  15.987215909090908 22.87055121527778  16.058238636363637 22.7783203125  C 16.129261363636363 22.68608940972222  16.19791666666667 22.53960503472222  16.264204545454547 22.3388671875  Z M 7.514204545454546 2.2623697916666656  L 6.8181818181818175 4.166666666666666  L 13.181818181818182 4.166666666666666  L 12.5 2.2623697916666656  C 12.433712121212125 2.1647135416666656  12.353219696969697 2.105034722222221  12.258522727272727 2.0833333333333344  L 7.7556818181818175 2.0833333333333344  C 7.660984848484849 2.105034722222221  7.580492424242426 2.1647135416666656  7.514204545454546 2.2623697916666656  Z M 19.872159090909093 4.313151041666666  C 19.957386363636363 4.410807291666666  20 4.535590277777776  20 4.6875  L 20 5.729166666666666  C 20 5.881076388888887  19.957386363636363 6.005859375  19.872159090909093 6.103515625  C 19.78693181818182 6.201171875  19.678030303030305 6.25  19.545454545454547 6.25  L 18 6.25  L 18 21.6796875  C 18.18181818181818 22.580295138888886  17.959280303030305 23.35883246527778  17.514204545454547 24.015299479166664  C 17.06912878787879 24.671766493055554  16.534090909090907 25  15.909090909090908 25  L 4.090909090909091 25  C 3.4659090909090913 25  2.930871212121213 24.6826171875  2.4857954545454546 24.0478515625  C 2.0407196969696972 23.4130859375  1.8181818181818183 22.645399305555554  2 21.744791666666664  L 2 6.25  L 0.4545454545454546 6.25  C 0.32196969696969696 6.25  0.21306818181818182 6.201171875  0.1278409090909091 6.103515625  C 0.04261363636363636 6.005859375  0 5.881076388888887  0 5.729166666666666  L 0 4.6875  C 0 4.535590277777776  0.04261363636363636 4.410807291666666  0.1278409090909091 4.313151041666666  C 0.21306818181818182 4.215494791666666  0.32196969696969696 4.166666666666666  0.4545454545454546 4.166666666666666  L 4.84375 4.166666666666666  L 5.8380681818181825 1.4485677083333344  C 5.980113636363638 1.0470920138888866  6.235795454545455 0.7052951388888867  6.605113636363637 0.42317708333333426  C 6.974431818181818 0.14105902777777624  7.348484848484849 0  7.727272727272727 0  L 12.272727272727273 0  C 12.651515151515154 0  13.025568181818182 0.14105902777777624  13.394886363636365 0.42317708333333426  C 13.764204545454547 0.7052951388888867  14.019886363636365 1.0470920138888866  14.161931818181818 1.4485677083333344  L 15.15625 4.166666666666666  L 19.545454545454547 4.166666666666666  C 19.678030303030305 4.166666666666666  19.78693181818182 4.215494791666666  19.872159090909093 4.313151041666666  Z " fill-rule="nonzero" fill="#000000" stroke="none" transform="matrix(1 0 0 1 1391 370 )" />
  </g>
</svg>