<?xml version="1.0" encoding="utf-8"?>
<svg version="1.1" xmlns:xlink="http://www.w3.org/1999/xlink" width="24px" height="23px" xmlns="http://www.w3.org/2000/svg">
  <g transform="matrix(1 0 0 1 -421 -381 )">
    <path d="M 19.78125 9.748046875  C 19.96875 9.568359375  20.0625 9.34375  20.0625 9.07421875  C 20.0625 8.79470486111111  19.96875 8.565104166666668  19.78125 8.385416666666668  L 18.359375 7.037760416666668  C 18.161458333333336 6.848090277777776  17.927083333333336 6.753255208333332  17.65625 6.753255208333332  C 17.385416666666668 6.753255208333332  17.151041666666668 6.848090277777776  16.953125 7.037760416666668  L 10.578125 13.132161458333336  L 7.046875 9.748046875  C 6.848958333333334 9.55837673611111  6.614583333333334 9.463541666666668  6.34375 9.463541666666668  C 6.072916666666668 9.463541666666668  5.838541666666667 9.55837673611111  5.640625 9.748046875  L 4.21875 11.095703125  C 4.03125 11.275390625  3.937500000000001 11.504991319444443  3.9375 11.784505208333336  C 3.937500000000001 12.054036458333336  4.03125 12.278645833333336  4.21875 12.458333333333336  L 9.875 17.87890625  C 10.072916666666668 18.068576388888886  10.307291666666668 18.163411458333332  10.578125 18.163411458333332  C 10.859375 18.163411458333332  11.098958333333334 18.068576388888886  11.296875 17.87890625  L 19.78125 9.748046875  Z M 22.390625 5.7275390625  C 23.463541666666664 7.489474826388887  24 9.41362847222222  24 11.5  C 24 13.586371527777779  23.463541666666664 15.510525173611109  22.390625 17.2724609375  C 21.317708333333336 19.03439670138889  19.861979166666668 20.42947048611111  18.0234375 21.457682291666668  C 16.184895833333336 22.485894097222225  14.177083333333334 23  12 23  C 9.822916666666668 23  7.815104166666667 22.485894097222225  5.9765625 21.457682291666668  C 4.138020833333334 20.42947048611111  2.682291666666667 19.03439670138889  1.609375 17.2724609375  C 0.5364583333333333 15.510525173611109  0 13.586371527777779  0 11.5  C 0 9.41362847222222  0.5364583333333333 7.489474826388887  1.609375 5.7275390625  C 2.682291666666667 3.9656032986111107  4.138020833333334 2.5705295138888866  5.9765625 1.5423177083333326  C 7.815104166666667 0.5141059027777758  9.822916666666668 0  12 0  C 14.177083333333334 0  16.184895833333336 0.5141059027777758  18.0234375 1.5423177083333326  C 19.861979166666668 2.5705295138888866  21.317708333333336 3.9656032986111107  22.390625 5.7275390625  Z " fill-rule="nonzero" fill="#63a103" stroke="none" transform="matrix(1 0 0 1 421 381 )" />
  </g>
</svg>