<?xml version="1.0" encoding="utf-8"?>
<svg version="1.1" xmlns:xlink="http://www.w3.org/1999/xlink" width="24px" height="23px" xmlns="http://www.w3.org/2000/svg">
  <g transform="matrix(1 0 0 1 -421 -509 )">
    <path d="M 17.65625 15.572916666666664  C 17.854166666666668 15.383246527777779  17.953125 15.153645833333336  17.953125 14.884114583333336  C 17.953125 14.624565972222221  17.854166666666668 14.399956597222221  17.65625 14.210286458333336  L 14.828125 11.5  L 17.65625 8.789713541666668  C 17.854166666666668 8.600043402777775  17.953125 8.375434027777775  17.953125 8.115885416666668  C 17.953125 7.846354166666668  17.854166666666668 7.616753472222219  17.65625 7.427083333333332  L 16.25 6.079427083333332  C 16.052083333333336 5.889756944444443  15.8125 5.794921875  15.53125 5.794921875  C 15.260416666666668 5.794921875  15.026041666666668 5.889756944444443  14.828125 6.079427083333332  L 12 8.789713541666668  L 9.171875 6.079427083333332  C 8.973958333333334 5.889756944444443  8.739583333333334 5.794921875  8.46875 5.794921875  C 8.1875 5.794921875  7.947916666666668 5.889756944444443  7.75 6.079427083333332  L 6.34375 7.427083333333332  C 6.145833333333334 7.616753472222219  6.046875000000002 7.846354166666668  6.046875 8.115885416666668  C 6.046875000000002 8.375434027777775  6.145833333333334 8.600043402777775  6.34375 8.789713541666668  L 9.171875 11.5  L 6.34375 14.210286458333336  C 6.145833333333334 14.399956597222221  6.046875000000002 14.624565972222221  6.046875 14.884114583333336  C 6.046875000000002 15.153645833333336  6.145833333333334 15.383246527777779  6.34375 15.572916666666664  L 7.75 16.920572916666664  C 7.947916666666668 17.11024305555555  8.1875 17.205078125  8.46875 17.205078125  C 8.739583333333334 17.205078125  8.973958333333334 17.11024305555555  9.171875 16.920572916666664  L 12 14.210286458333336  L 14.828125 16.920572916666664  C 15.026041666666668 17.11024305555555  15.260416666666668 17.205078125  15.53125 17.205078125  C 15.8125 17.205078125  16.052083333333336 17.11024305555555  16.25 16.920572916666664  L 17.65625 15.572916666666664  Z M 22.390625 5.7275390625  C 23.463541666666664 7.489474826388887  24 9.41362847222222  24 11.5  C 24 13.586371527777779  23.463541666666664 15.510525173611109  22.390625 17.2724609375  C 21.317708333333336 19.03439670138889  19.861979166666668 20.42947048611111  18.0234375 21.457682291666668  C 16.184895833333336 22.485894097222225  14.177083333333334 23  12 23  C 9.822916666666668 23  7.815104166666667 22.485894097222225  5.9765625 21.457682291666668  C 4.138020833333334 20.42947048611111  2.682291666666667 19.03439670138889  1.609375 17.2724609375  C 0.5364583333333333 15.510525173611109  0 13.586371527777779  0 11.5  C 0 9.41362847222222  0.5364583333333333 7.489474826388887  1.609375 5.7275390625  C 2.682291666666667 3.9656032986111107  4.138020833333334 2.5705295138888866  5.9765625 1.5423177083333326  C 7.815104166666667 0.5141059027777758  9.822916666666668 0  12 0  C 14.177083333333334 0  16.184895833333336 0.5141059027777758  18.0234375 1.5423177083333326  C 19.861979166666668 2.5705295138888866  21.317708333333336 3.9656032986111107  22.390625 5.7275390625  Z " fill-rule="nonzero" fill="#d9001b" stroke="none" transform="matrix(1 0 0 1 421 509 )" />
  </g>
</svg>