<?xml version="1.0" encoding="utf-8"?>
<svg version="1.1" xmlns:xlink="http://www.w3.org/1999/xlink" width="22px" height="26px" xmlns="http://www.w3.org/2000/svg">
  <g transform="matrix(1 0 0 1 -804 -355 )">
    <path d="M 5.5859375 23.901041666666668  C 5.986979166666667 23.585069444444443  6.1875 23.20138888888889  6.1875 22.75  C 6.1875 22.29861111111111  5.986979166666667 21.914930555555557  5.5859375 21.598958333333332  C 5.184895833333334 21.28298611111111  4.697916666666667 21.125  4.125 21.125  C 3.5520833333333335 21.125  3.065104166666667 21.28298611111111  2.6640625 21.598958333333332  C 2.263020833333333 21.914930555555557  2.0625 22.29861111111111  2.0625 22.75  C 2.0625 23.20138888888889  2.263020833333333 23.585069444444443  2.6640625 23.901041666666668  C 3.065104166666667 24.21701388888889  3.5520833333333335 24.375  4.125 24.375  C 4.697916666666667 24.375  5.184895833333334 24.21701388888889  5.5859375 23.901041666666668  Z M 5.5859375 4.401041666666668  C 5.986979166666667 4.085069444444442  6.1875 3.7013888888888875  6.1875 3.25  C 6.1875 2.79861111111111  5.986979166666667 2.414930555555552  5.5859375 2.098958333333332  C 5.184895833333334 1.7829861111111098  4.697916666666667 1.625  4.125 1.625  C 3.5520833333333335 1.625  3.065104166666667 1.7829861111111098  2.6640625 2.098958333333332  C 2.263020833333333 2.414930555555552  2.0625 2.79861111111111  2.0625 3.25  C 2.0625 3.7013888888888875  2.263020833333333 4.085069444444442  2.6640625 4.401041666666668  C 3.065104166666667 4.7170138888888875  3.5520833333333335 4.875  4.125 4.875  C 4.697916666666667 4.875  5.184895833333334 4.7170138888888875  5.5859375 4.401041666666668  Z M 19.3359375 6.567708333333332  C 19.736979166666668 6.25173611111111  19.9375 5.868055555555552  19.9375 5.416666666666668  C 19.9375 4.965277777777778  19.736979166666668 4.58159722222222  19.3359375 4.265625  C 18.934895833333336 3.9496527777777777  18.447916666666668 3.791666666666668  17.875 3.791666666666668  C 17.302083333333336 3.791666666666668  16.815104166666668 3.9496527777777777  16.4140625 4.265625  C 16.013020833333336 4.58159722222222  15.8125 4.965277777777778  15.8125 5.416666666666668  C 15.8125 5.868055555555552  16.013020833333336 6.25173611111111  16.4140625 6.567708333333332  C 16.815104166666668 6.883680555555552  17.302083333333336 7.041666666666668  17.875 7.041666666666668  C 18.447916666666668 7.041666666666668  18.934895833333336 6.883680555555552  19.3359375 6.567708333333332  Z M 20.796875 3.114583333333332  C 21.598958333333336 3.7465277777777777  22 4.5138888888888875  22 5.416666666666668  C 22 6.00347222222222  21.813802083333336 6.547960069444442  21.44140625 7.050130208333332  C 21.069010416666668 7.55230034722222  20.567708333333336 7.944444444444442  19.9375 8.2265625  C 19.908854166666668 11.465277777777777  18.290364583333336 13.801215277777775  15.08203125 15.234375  C 14.122395833333334 15.663194444444445  12.668619791666668 16.120225694444446  10.720703125 16.60546875  C 8.887369791666668 17.056857638888886  7.673502604166667 17.457465277777775  7.0791015625 17.807291666666664  C 6.484700520833334 18.157118055555554  6.1875 18.721354166666664  6.1875 19.5  L 6.1875 19.940104166666668  C 6.817708333333334 20.22222222222222  7.319010416666667 20.614366319444443  7.69140625 21.116536458333332  C 8.063802083333332 21.61870659722222  8.25 22.163194444444443  8.25 22.75  C 8.25 23.65277777777778  7.848958333333333 24.42013888888889  7.046875 25.052083333333332  C 6.244791666666667 25.68402777777778  5.270833333333334 26  4.125 26  C 2.979166666666667 26  2.0052083333333335 25.68402777777778  1.203125 25.052083333333332  C 0.4010416666666667 24.42013888888889  0 23.65277777777778  0 22.75  C 0 22.163194444444443  0.18619791666666674 21.61870659722222  0.5585937500000001 21.116536458333332  C 0.9309895833333335 20.614366319444443  1.4322916666666667 20.22222222222222  2 19.940104166666668  L 2 6.059895833333332  C 1.4322916666666667 5.777777777777778  0.9309895833333335 5.385633680555552  0.5585937500000001 4.883463541666668  C 0.18619791666666674 4.381293402777778  0 3.836805555555552  0 3.25  C 0 2.3472222222222197  0.4010416666666667 1.5798611111111098  1.203125 0.9479166666666676  C 2.0052083333333335 0.31597222222221966  2.979166666666667 0  4.125 0  C 5.270833333333334 0  6.244791666666667 0.31597222222221966  7.046875 0.9479166666666676  C 7.848958333333333 1.5798611111111098  8.25 2.3472222222222197  8.25 3.25  C 8.25 3.836805555555552  8.063802083333332 4.381293402777778  7.69140625 4.883463541666668  C 7.319010416666667 5.385633680555552  6.817708333333334 5.777777777777778  6.1875 6.059895833333332  L 6.1875 14.47265625  C 6.9609375 14.17925347222222  8.063802083333334 13.85763888888889  9.49609375 13.5078125  C 10.283854166666668 13.31597222222222  10.910481770833334 13.149522569444445  11.3759765625 13.008463541666664  C 11.841471354166668 12.867404513888888  12.346354166666668 12.692491319444443  12.890625 12.483723958333332  C 13.434895833333334 12.274956597222223  13.857421875 12.052083333333332  14.158203125 11.815104166666668  C 14.458984375 11.578125  14.7490234375 11.290364583333332  15.0283203125 10.951822916666668  C 15.3076171875 10.61328125  15.508138020833334 10.221137152777777  15.6298828125 9.775390625  C 15.751627604166668 9.32964409722222  15.8125 8.813368055555552  15.8125 8.2265625  C 15.182291666666668 7.944444444444442  14.680989583333334 7.55230034722222  14.30859375 7.050130208333332  C 13.936197916666668 6.547960069444442  13.75 6.00347222222222  13.75 5.416666666666668  C 13.75 4.5138888888888875  14.151041666666668 3.7465277777777777  14.953125 3.114583333333332  C 15.755208333333334 2.4826388888888875  16.729166666666668 2.166666666666668  17.875 2.166666666666668  C 19.020833333333336 2.166666666666668  19.994791666666668 2.4826388888888875  20.796875 3.114583333333332  Z " fill-rule="nonzero" fill="#7f7f7f" stroke="none" transform="matrix(1 0 0 1 804 355 )" />
  </g>
</svg>