<?xml version="1.0" encoding="utf-8"?>
<svg version="1.1" xmlns:xlink="http://www.w3.org/1999/xlink" width="24px" height="23px" xmlns="http://www.w3.org/2000/svg">
  <g transform="matrix(1 0 0 1 -421 -641 )">
    <path d="M 19.828125 14.664179104477611  C 20.276041666666668 13.654228855721392  20.5 12.597014925373132  20.5 11.492537313432836  C 20.5 9.89054726368159  20.046875 8.422885572139302  19.140625 7.089552238805972  L 7.359375 18.328358208955223  C 8.786458333333334 19.213930348258707  10.333333333333334 19.65671641791045  12 19.65671641791045  C 13.15625 19.65671641791045  14.2578125 19.440298507462686  15.3046875 19.007462686567166  C 16.3515625 18.57462686567164  17.255208333333336 17.99502487562189  18.015625 17.26865671641791  C 18.776041666666668 16.54228855721393  19.380208333333336 15.674129353233827  19.828125 14.664179104477611  Z M 3.5 11.492537313432836  C 3.5 13.104477611940297  3.963541666666667 14.592039800995023  4.890625 15.955223880597014  L 16.6875 4.701492537313434  C 15.281250000000004 3.7960199004975124  13.71875 3.3432835820895512  12 3.3432835820895512  C 10.458333333333334 3.3432835820895512  9.036458333333334 3.7064676616915415  7.734375 4.432835820895521  C 6.432291666666667 5.159203980099499  5.401041666666667 6.149253731343283  4.640625 7.402985074626867  C 3.880208333333334 8.656716417910449  3.5 10.019900497512438  3.5 11.492537313432836  Z M 23.046875 7.022388059701493  C 23.682291666666664 8.440298507462686  24 9.930348258706466  24 11.492537313432836  C 24 13.054726368159203  23.682291666666664 14.547263681592039  23.046875 15.970149253731345  C 22.411458333333336 17.393034825870643  21.559895833333336 18.61691542288557  20.4921875 19.64179104477612  C 19.424479166666668 20.666666666666668  18.1484375 21.482587064676615  16.6640625 22.089552238805968  C 15.179687500000002 22.696517412935325  13.625 23  12 23  C 10.375 23  8.8203125 22.696517412935325  7.3359375 22.089552238805968  C 5.8515625 21.482587064676615  4.575520833333334 20.666666666666668  3.5078125 19.64179104477612  C 2.440104166666667 18.61691542288557  1.588541666666667 17.393034825870643  0.9531250000000001 15.970149253731345  C 0.3177083333333334 14.547263681592039  0 13.054726368159203  0 11.492537313432836  C 0 9.930348258706466  0.3177083333333334 8.440298507462686  0.9531250000000001 7.022388059701493  C 1.588541666666667 5.604477611940298  2.440104166666667 4.383084577114427  3.5078125 3.3582089552238816  C 4.575520833333334 2.333333333333331  5.8515625 1.5174129353233798  7.3359375 0.910447761194031  C 8.8203125 0.30348258706467446  10.375 0  12 0  C 13.625 0  15.179687500000002 0.30348258706467446  16.6640625 0.910447761194031  C 18.1484375 1.5174129353233798  19.424479166666668 2.333333333333331  20.4921875 3.3582089552238816  C 21.559895833333336 4.383084577114427  22.411458333333336 5.604477611940298  23.046875 7.022388059701493  Z " fill-rule="nonzero" fill="#aaaaaa" stroke="none" transform="matrix(1 0 0 1 421 641 )" />
  </g>
</svg>