<?xml version="1.0" encoding="utf-8"?>
<svg version="1.1" xmlns:xlink="http://www.w3.org/1999/xlink" width="24px" height="23px" xmlns="http://www.w3.org/2000/svg">
  <g transform="matrix(1 0 0 1 -418 -513 )">
    <path d="M 13.859375 5.884765625  C 13.953125 5.974609375  14 6.089409722222219  14 6.229166666666668  L 14 12.9375  C 14 13.077256944444443  13.953125 13.192057291666664  13.859375 13.281901041666664  C 13.765625 13.371744791666664  13.645833333333336 13.416666666666664  13.5 13.416666666666664  L 8.5 13.416666666666664  C 8.354166666666668 13.416666666666664  8.234375 13.371744791666664  8.140625 13.281901041666664  C 8.046875 13.192057291666664  8 13.077256944444443  8 12.9375  L 8 11.979166666666664  C 8 11.839409722222221  8.046875 11.724609375  8.140625 11.634765625  C 8.234375 11.544921875  8.354166666666668 11.5  8.5 11.5  L 12 11.5  L 12 6.229166666666668  C 12 6.089409722222219  12.046875 5.974609375  12.140625 5.884765625  C 12.234375000000004 5.794921875  12.354166666666668 5.75  12.5 5.75  L 13.5 5.75  C 13.645833333333336 5.75  13.765625 5.794921875  13.859375 5.884765625  Z M 19.359375 15.587890625  C 20.119791666666668 14.340060763888886  20.5 12.977430555555557  20.5 11.5  C 20.5 10.022569444444443  20.119791666666668 8.65993923611111  19.359375 7.412109375  C 18.598958333333336 6.164279513888887  17.567708333333336 5.175998263888887  16.265625 4.447265625  C 14.963541666666668 3.7185329861111107  13.541666666666668 3.3541666666666674  12 3.3541666666666674  C 10.458333333333334 3.3541666666666674  9.036458333333334 3.7185329861111107  7.734375 4.447265625  C 6.432291666666667 5.175998263888887  5.401041666666667 6.164279513888887  4.640625 7.412109375  C 3.880208333333334 8.65993923611111  3.5 10.022569444444443  3.5 11.5  C 3.5 12.977430555555557  3.880208333333334 14.340060763888886  4.640625 15.587890625  C 5.401041666666667 16.835720486111107  6.432291666666667 17.82400173611111  7.734375 18.552734375  C 9.036458333333334 19.28146701388889  10.458333333333334 19.645833333333332  12 19.645833333333332  C 13.541666666666668 19.645833333333332  14.963541666666668 19.28146701388889  16.265625 18.552734375  C 17.567708333333336 17.82400173611111  18.598958333333336 16.835720486111107  19.359375 15.587890625  Z M 22.390625 5.7275390625  C 23.463541666666664 7.489474826388887  24 9.41362847222222  24 11.5  C 24 13.586371527777779  23.463541666666664 15.510525173611109  22.390625 17.2724609375  C 21.317708333333336 19.03439670138889  19.861979166666668 20.42947048611111  18.0234375 21.457682291666668  C 16.184895833333336 22.485894097222225  14.177083333333334 23  12 23  C 9.822916666666668 23  7.815104166666667 22.485894097222225  5.9765625 21.457682291666668  C 4.138020833333334 20.42947048611111  2.682291666666667 19.03439670138889  1.609375 17.2724609375  C 0.5364583333333333 15.510525173611109  0 13.586371527777779  0 11.5  C 0 9.41362847222222  0.5364583333333333 7.489474826388887  1.609375 5.7275390625  C 2.682291666666667 3.9656032986111107  4.138020833333334 2.5705295138888866  5.9765625 1.5423177083333326  C 7.815104166666667 0.5141059027777758  9.822916666666668 0  12 0  C 14.177083333333334 0  16.184895833333336 0.5141059027777758  18.0234375 1.5423177083333326  C 19.861979166666668 2.5705295138888866  21.317708333333336 3.9656032986111107  22.390625 5.7275390625  Z " fill-rule="nonzero" fill="#8400ff" stroke="none" transform="matrix(1 0 0 1 418 513 )" />
  </g>
</svg>