<?xml version="1.0" encoding="utf-8"?>
<svg version="1.1" xmlns:xlink="http://www.w3.org/1999/xlink" width="15px" height="15px" xmlns="http://www.w3.org/2000/svg">
  <g transform="matrix(1 0 0 1 -945 -308 )">
    <path d="M 14.814453125 12.22265625  C 14.938151041666666 12.371093750000002  15 12.546875000000002  15 12.75  L 15 14.25  C 15 14.453125  14.938151041666666 14.62890625  14.814453125 14.77734375  C 14.690755208333336 14.92578125  14.544270833333336 15  14.375 15  L 0.625 15  C 0.45572916666666674 15  0.3092447916666667 14.92578125  0.185546875 14.77734375  C 0.061848958333333336 14.62890625  0 14.453125  0 14.25  L 0 12.75  C 0 12.546875000000002  0.061848958333333336 12.371093750000002  0.185546875 12.22265625  C 0.3092447916666667 12.07421875  0.45572916666666674 12  0.625 12  L 14.375 12  C 14.544270833333336 12  14.690755208333336 12.07421875  14.814453125 12.22265625  Z M 14.814453125 6.222656249999999  C 14.938151041666666 6.371093749999999  15 6.546874999999999  15 6.749999999999999  L 15 8.25  C 15 8.453125  14.938151041666666 8.62890625  14.814453125 8.77734375  C 14.690755208333336 8.925781249999998  14.544270833333336 9  14.375 9  L 0.625 9  C 0.45572916666666674 9  0.3092447916666667 8.925781249999998  0.185546875 8.77734375  C 0.061848958333333336 8.62890625  0 8.453125  0 8.25  L 0 6.749999999999999  C 0 6.546874999999999  0.061848958333333336 6.371093749999999  0.185546875 6.222656249999999  C 0.3092447916666667 6.074218750000001  0.45572916666666674 6  0.625 6  L 14.375 6  C 14.544270833333336 6  14.690755208333336 6.074218750000001  14.814453125 6.222656249999999  Z M 14.814453125 0.22265625000000067  C 14.938151041666666 0.3710937499999989  15 0.5468749999999989  15 0.7500000000000007  L 15 2.2500000000000004  C 15 2.4531249999999987  14.938151041666666 2.6289062499999987  14.814453125 2.7773437500000004  C 14.690755208333336 2.9257812499999987  14.544270833333336 2.999999999999999  14.375 3  L 0.625 3  C 0.45572916666666674 2.999999999999999  0.3092447916666667 2.9257812499999987  0.185546875 2.7773437500000004  C 0.061848958333333336 2.6289062499999987  0 2.4531249999999987  0 2.2500000000000004  L 0 0.7500000000000007  C 0 0.5468749999999989  0.061848958333333336 0.3710937499999989  0.185546875 0.22265625000000067  C 0.3092447916666667 0.07421874999999911  0.45572916666666674 0  0.625 0  L 14.375 0  C 14.544270833333336 0  14.690755208333336 0.07421874999999911  14.814453125 0.22265625000000067  Z " fill-rule="nonzero" fill="#000000" stroke="none" transform="matrix(1 0 0 1 945 308 )" />
  </g>
</svg>