<?xml version="1.0" encoding="utf-8"?>
<svg version="1.1" xmlns:xlink="http://www.w3.org/1999/xlink" width="37px" height="50px" xmlns="http://www.w3.org/2000/svg">
  <defs>
    <filter x="1603px" y="200px" width="37px" height="50px" filterUnits="userSpaceOnUse" id="filter80">
      <feOffset dx="1" dy="1" in="SourceAlpha" result="shadowOffsetInner" />
      <feGaussianBlur stdDeviation="2.5" in="shadowOffsetInner" result="shadowGaussian" />
      <feComposite in2="shadowGaussian" operator="atop" in="SourceAlpha" result="shadowComposite" />
      <feColorMatrix type="matrix" values="0 0 0 0 0  0 0 0 0 0  0 0 0 0 0  0 0 0 0.6980392156862745 0  " in="shadowComposite" />
    </filter>
    <g id="widget81">
      <path d="M 1620.5 242.96462580081257  C 1615.3 233.3628466466539  1607.5 227.6017791541587  1607.5 218  C 1607.5 212.9857142857143  1610.1 204.5  1620.5 204.5  C 1630.9 204.5  1633.5 212.9857142857143  1633.5 218  C 1633.5 227.6017791541587  1625.7 233.3628466466539  1620.5 242.96462580081257  Z " fill-rule="nonzero" fill="#00c2ff" stroke="none" />
      <path d="M 1620.5 244  C 1615.1 234  1607 228  1607 218  C 1607 212.8  1609.7 204  1620.5 204  C 1631.3 204  1634 212.8  1634 218  C 1634 228  1625.9 234  1620.5 244  Z M 1620.5 241.92925160162514  C 1625.5 232.72569329330778  1633 227.20355830831735  1633 218  C 1633 213.17142857142858  1630.5 205  1620.5 205  C 1610.5 205  1608 213.17142857142858  1608 218  C 1608 227.20355830831735  1615.5 232.72569329330778  1620.5 241.92925160162514  Z " fill-rule="nonzero" fill="#ffffff" stroke="none" />
    </g>
  </defs>
  <g transform="matrix(1 0 0 1 -1603 -200 )">
    <use xlink:href="#widget81" filter="url(#filter80)" />
    <use xlink:href="#widget81" />
  </g>
</svg>