<?xml version="1.0" encoding="utf-8"?>
<svg version="1.1" xmlns:xlink="http://www.w3.org/1999/xlink" width="18px" height="18px" viewBox="17 101  18 18" xmlns="http://www.w3.org/2000/svg">
  <path d="M 26 102  C 30.48 102  34 105.52  34 110  C 34 114.48  30.48 118  26 118  C 21.52 118  18 114.48  18 110  C 18 105.52  21.52 102  26 102  Z " fill-rule="nonzero" fill="#6200ee" stroke="none" fill-opacity="0" />
  <path d="M 26 102  C 30.48 102  34 105.52  34 110  C 34 114.48  30.48 118  26 118  C 21.52 118  18 114.48  18 110  C 18 105.52  21.52 102  26 102  Z " stroke-width="2" stroke="#1e98d7" fill="none" />
  <path d="M 26 114.5  C 23.48 114.5  21.5 112.52  21.5 110  C 21.5 107.48  23.48 105.5  26 105.5  C 28.52 105.5  30.5 107.48  30.5 110  C 30.5 112.52  28.52 114.5  26 114.5  " fill-rule="nonzero" fill="#1e98d7" stroke="none" />
</svg>