<?xml version="1.0" encoding="utf-8"?>
<svg version="1.1" xmlns:xlink="http://www.w3.org/1999/xlink" width="18px" height="18px" viewBox="17 55  18 18" xmlns="http://www.w3.org/2000/svg">
  <path d="M 26 56  C 30.48 56  34 59.519999999999996  34 64  C 34 68.48  30.48 72  26 72  C 21.52 72  18 68.48  18 64  C 18 59.519999999999996  21.52 56  26 56  Z " fill-rule="nonzero" fill="#6200ee" stroke="none" fill-opacity="0" />
  <path d="M 26 56  C 30.48 56  34 59.519999999999996  34 64  C 34 68.48  30.48 72  26 72  C 21.52 72  18 68.48  18 64  C 18 59.519999999999996  21.52 56  26 56  Z " stroke-width="2" stroke="#1e98d7" fill="none" />
  <path d="M 26 68.5  C 23.48 68.5  21.5 66.52  21.5 64  C 21.5 61.48  23.48 59.5  26 59.5  C 28.52 59.5  30.5 61.48  30.5 64  C 30.5 66.52  28.52 68.5  26 68.5  " fill-rule="nonzero" fill="#1e98d7" stroke="none" />
</svg>