<?xml version="1.0" encoding="utf-8"?>
<svg version="1.1" xmlns:xlink="http://www.w3.org/1999/xlink" width="18px" height="18px" viewBox="17 135  18 18" xmlns="http://www.w3.org/2000/svg">
  <path d="M 26 136  C 30.48 136  34 139.52  34 144  C 34 148.48  30.48 152  26 152  C 21.52 152  18 148.48  18 144  C 18 139.52  21.52 136  26 136  Z " fill-rule="nonzero" fill="#6200ee" stroke="none" fill-opacity="0" />
  <path d="M 26 136  C 30.48 136  34 139.52  34 144  C 34 148.48  30.48 152  26 152  C 21.52 152  18 148.48  18 144  C 18 139.52  21.52 136  26 136  Z " stroke-width="2" stroke="#1e98d7" fill="none" />
  <path d="M 26 148.5  C 23.48 148.5  21.5 146.52  21.5 144  C 21.5 141.48  23.48 139.5  26 139.5  C 28.52 139.5  30.5 141.48  30.5 144  C 30.5 146.52  28.52 148.5  26 148.5  " fill-rule="nonzero" fill="#1e98d7" stroke="none" />
</svg>