<?xml version="1.0" encoding="utf-8"?>
<svg version="1.1" xmlns:xlink="http://www.w3.org/1999/xlink" width="94px" height="38px" xmlns="http://www.w3.org/2000/svg">
  <g transform="matrix(1 0 0 1 -215 -227 )">
    <path d="M 215.5 229  A 1.5 1.5 0 0 1 217 227.5 L 307 227.5  A 1.5 1.5 0 0 1 308.5 229 L 308.5 263  A 1.5 1.5 0 0 1 307 264.5 L 217 264.5  A 1.5 1.5 0 0 1 215.5 263 L 215.5 229  Z " fill-rule="nonzero" fill="#33ab9f" stroke="none" />
    <path d="M 215.5 229  A 1.5 1.5 0 0 1 217 227.5 L 307 227.5  A 1.5 1.5 0 0 1 308.5 229 L 308.5 263  A 1.5 1.5 0 0 1 307 264.5 L 217 264.5  A 1.5 1.5 0 0 1 215.5 263 L 215.5 229  Z " stroke-width="1" stroke="#33ab9f" fill="none" />
  </g>
</svg>