<?xml version="1.0" encoding="utf-8"?>
<svg version="1.1" xmlns:xlink="http://www.w3.org/1999/xlink" width="10px" height="52px" preserveAspectRatio="xMidYMin meet" viewBox="655 764  8 52" xmlns="http://www.w3.org/2000/svg">
  <path d="M 621 769  L 654 769  A 5 5 0 0 1 659 774 L 659 806  A 5 5 0 0 0 664 811 L 697 811  " stroke-width="2" stroke="#ffb300" fill="none" />
  <path d="M 618.5 765.5  A 3.5 3.5 0 0 0 615 769 A 3.5 3.5 0 0 0 618.5 772.5 A 3.5 3.5 0 0 0 622 769 A 3.5 3.5 0 0 0 618.5 765.5 Z M 618.5 767.5  A 1.5 1.5 0 0 1 620 769 A 1.5 1.5 0 0 1 618.5 770.5 A 1.5 1.5 0 0 1 617 769 A 1.5 1.5 0 0 1 618.5 767.5 Z M 699.5 807.5  A 3.5 3.5 0 0 0 696 811 A 3.5 3.5 0 0 0 699.5 814.5 A 3.5 3.5 0 0 0 703 811 A 3.5 3.5 0 0 0 699.5 807.5 Z M 699.5 809.5  A 1.5 1.5 0 0 1 701 811 A 1.5 1.5 0 0 1 699.5 812.5 A 1.5 1.5 0 0 1 698 811 A 1.5 1.5 0 0 1 699.5 809.5 Z " fill-rule="nonzero" fill="#ffb300" stroke="none" />
</svg>