<?xml version="1.0" encoding="utf-8"?>
<svg version="1.1" xmlns:xlink="http://www.w3.org/1999/xlink" width="49px" height="10px" preserveAspectRatio="xMinYMid meet" viewBox="615 842  49 8" xmlns="http://www.w3.org/2000/svg">
  <path d="M 621 846  L 654 846  A 5 5 0 0 1 659 851 L 659 877  A 5 5 0 0 0 664 882 L 697 882  " stroke-width="2" stroke="#ffb300" fill="none" />
  <path d="M 618.5 842.5  A 3.5 3.5 0 0 0 615 846 A 3.5 3.5 0 0 0 618.5 849.5 A 3.5 3.5 0 0 0 622 846 A 3.5 3.5 0 0 0 618.5 842.5 Z M 618.5 844.5  A 1.5 1.5 0 0 1 620 846 A 1.5 1.5 0 0 1 618.5 847.5 A 1.5 1.5 0 0 1 617 846 A 1.5 1.5 0 0 1 618.5 844.5 Z M 699.5 878.5  A 3.5 3.5 0 0 0 696 882 A 3.5 3.5 0 0 0 699.5 885.5 A 3.5 3.5 0 0 0 703 882 A 3.5 3.5 0 0 0 699.5 878.5 Z M 699.5 880.5  A 1.5 1.5 0 0 1 701 882 A 1.5 1.5 0 0 1 699.5 883.5 A 1.5 1.5 0 0 1 698 882 A 1.5 1.5 0 0 1 699.5 880.5 Z " fill-rule="nonzero" fill="#ffb300" stroke="none" />
</svg>