<?xml version="1.0" encoding="utf-8"?>
<svg version="1.1" xmlns:xlink="http://www.w3.org/1999/xlink" width="93px" height="10px" preserveAspectRatio="xMinYMid meet" viewBox="615 688  93 8" xmlns="http://www.w3.org/2000/svg">
  <path d="M 621 692  L 697 692  " stroke-width="2" stroke="#ffb300" fill="none" />
  <path d="M 618.5 688.5  A 3.5 3.5 0 0 0 615 692 A 3.5 3.5 0 0 0 618.5 695.5 A 3.5 3.5 0 0 0 622 692 A 3.5 3.5 0 0 0 618.5 688.5 Z M 618.5 690.5  A 1.5 1.5 0 0 1 620 692 A 1.5 1.5 0 0 1 618.5 693.5 A 1.5 1.5 0 0 1 617 692 A 1.5 1.5 0 0 1 618.5 690.5 Z M 699.5 688.5  A 3.5 3.5 0 0 0 696 692 A 3.5 3.5 0 0 0 699.5 695.5 A 3.5 3.5 0 0 0 703 692 A 3.5 3.5 0 0 0 699.5 688.5 Z M 699.5 690.5  A 1.5 1.5 0 0 1 701 692 A 1.5 1.5 0 0 1 699.5 693.5 A 1.5 1.5 0 0 1 698 692 A 1.5 1.5 0 0 1 699.5 690.5 Z " fill-rule="nonzero" fill="#ffb300" stroke="none" />
</svg>