<?xml version="1.0" encoding="utf-8"?>
<svg version="1.1" xmlns:xlink="http://www.w3.org/1999/xlink" width="21px" height="20px" xmlns="http://www.w3.org/2000/svg">
  <g transform="matrix(1 0 0 1 -75 -415 )">
    <path d="M 17.30859375 8.4765625  C 17.47265625 8.3203125  17.5546875 8.125  17.5546875 7.890625  C 17.5546875 7.647569444444445  17.47265625 7.447916666666668  17.30859375 7.291666666666668  L 16.064453125 6.119791666666668  C 15.89127604166667 5.954861111111109  15.68619791666667 5.872395833333332  15.44921875 5.872395833333332  C 15.212239583333334 5.872395833333332  15.007161458333334 5.954861111111109  14.833984375 6.119791666666668  L 9.255859375 11.419270833333336  L 6.166015625 8.4765625  C 5.992838541666667 8.311631944444445  5.787760416666667 8.229166666666668  5.55078125 8.229166666666668  C 5.313802083333334 8.229166666666668  5.108723958333333 8.311631944444445  4.935546875 8.4765625  L 3.69140625 9.6484375  C 3.52734375 9.8046875  3.4453125000000004 10.004340277777777  3.4453125 10.247395833333336  C 3.4453125000000004 10.481770833333336  3.52734375 10.677083333333336  3.69140625 10.833333333333336  L 8.640625 15.546875  C 8.813802083333334 15.711805555555554  9.018880208333334 15.794270833333332  9.255859375 15.794270833333332  C 9.501953125 15.794270833333332  9.711588541666668 15.711805555555554  9.884765625 15.546875  L 17.30859375 8.4765625  Z M 19.591796875 4.98046875  C 20.530598958333332 6.512586805555554  21 8.185763888888886  21 10  C 21 11.81423611111111  20.530598958333332 13.487413194444443  19.591796875 15.01953125  C 18.652994791666668 16.551649305555557  17.379231770833332 17.764756944444443  15.7705078125 18.658854166666668  C 14.161783854166668 19.55295138888889  12.404947916666668 20  10.5 20  C 8.595052083333334 20  6.838216145833334 19.55295138888889  5.2294921875 18.658854166666668  C 3.620768229166667 17.764756944444443  2.3470052083333335 16.551649305555557  1.408203125 15.01953125  C 0.46940104166666663 13.487413194444443  0 11.81423611111111  0 10  C 0 8.185763888888886  0.46940104166666663 6.512586805555554  1.408203125 4.98046875  C 2.3470052083333335 3.448350694444444  3.620768229166667 2.2352430555555536  5.2294921875 1.3411458333333326  C 6.838216145833334 0.4470486111111094  8.595052083333334 0  10.5 0  C 12.404947916666668 0  14.161783854166668 0.4470486111111094  15.7705078125 1.3411458333333326  C 17.379231770833332 2.2352430555555536  18.652994791666668 3.448350694444444  19.591796875 4.98046875  Z " fill-rule="nonzero" fill="#63a103" stroke="none" transform="matrix(1 0 0 1 75 415 )" />
  </g>
</svg>