<?xml version="1.0" encoding="utf-8"?>
<svg version="1.1" xmlns:xlink="http://www.w3.org/1999/xlink" width="27px" height="25px" xmlns="http://www.w3.org/2000/svg">
  <g transform="matrix(1 0 0 1 -1200 -485 )">
    <path d="M 20.4609375 22.607421875  C 20.666466346153847 22.401258680555554  20.76923076923077 22.157118055555554  20.76923076923077 21.875  C 20.76923076923077 21.592881944444446  20.666466346153847 21.348741319444446  20.4609375 21.142578125  C 20.255408653846157 20.936414930555554  20.012019230769234 20.833333333333336  19.73076923076923 20.833333333333336  C 19.44951923076923 20.833333333333336  19.20612980769231 20.936414930555554  19.000600961538463 21.142578125  C 18.795072115384617 21.348741319444446  18.692307692307693 21.592881944444446  18.692307692307693 21.875  C 18.692307692307693 22.157118055555554  18.795072115384617 22.401258680555554  19.000600961538463 22.607421875  C 19.20612980769231 22.813585069444446  19.44951923076923 22.916666666666664  19.73076923076923 22.916666666666664  C 20.012019230769234 22.916666666666664  20.255408653846157 22.813585069444446  20.4609375 22.607421875  Z M 24.614783653846153 22.607421875  C 24.820312499999996 22.401258680555554  24.923076923076923 22.157118055555554  24.923076923076923 21.875  C 24.923076923076923 21.592881944444446  24.820312499999996 21.348741319444446  24.614783653846153 21.142578125  C 24.40925480769231 20.936414930555554  24.165865384615387 20.833333333333336  23.884615384615383 20.833333333333336  C 23.603365384615383 20.833333333333336  23.359975961538463 20.936414930555554  23.154447115384617 21.142578125  C 22.948918269230774 21.348741319444446  22.846153846153847 21.592881944444446  22.846153846153847 21.875  C 22.846153846153847 22.157118055555554  22.948918269230774 22.401258680555554  23.154447115384617 22.607421875  C 23.359975961538463 22.813585069444446  23.603365384615383 22.916666666666664  23.884615384615383 22.916666666666664  C 24.165865384615387 22.916666666666664  24.40925480769231 22.813585069444446  24.614783653846153 22.607421875  Z M 26.545673076923077 17.122395833333332  C 26.848557692307693 17.426215277777775  27 17.79513888888889  27 18.229166666666668  L 27 23.4375  C 27 23.87152777777778  26.848557692307693 24.240451388888886  26.545673076923077 24.544270833333336  C 26.242788461538463 24.84809027777778  25.875000000000004 25  25.442307692307693 25  L 1.5576923076923077 25  C 1.1250000000000002 25  0.7572115384615385 24.84809027777778  0.4543269230769231 24.544270833333336  C 0.15144230769230768 24.240451388888886  0 23.87152777777778  0 23.4375  L 0 18.229166666666668  C 0 17.79513888888889  0.15144230769230768 17.426215277777775  0.4543269230769231 17.122395833333332  C 0.7572115384615385 16.81857638888889  1.1250000000000002 16.666666666666668  1.5576923076923077 16.666666666666668  L 9.102764423076923 16.666666666666668  L 11.293269230769232 18.880208333333336  C 11.920673076923078 19.48784722222222  12.65625 19.791666666666664  13.5 19.791666666666664  C 14.34375 19.791666666666664  15.079326923076923 19.48784722222222  15.70673076923077 18.880208333333336  L 17.913461538461537 16.666666666666668  L 25.442307692307693 16.666666666666668  C 25.875000000000004 16.666666666666668  26.242788461538463 16.81857638888889  26.545673076923077 17.122395833333332  Z M 20.76923076923077 8.333333333333334  C 21.223557692307693 8.333333333333334  21.54266826923077 8.544921875  21.7265625 8.968098958333334  C 21.910456730769234 9.412977430555555  21.83473557692308 9.79275173611111  21.499399038461537 10.107421875  L 14.23016826923077 17.399088541666668  C 14.03545673076923 17.60525173611111  13.792067307692308 17.708333333333332  13.5 17.708333333333332  C 13.207932692307692 17.708333333333332  12.964543269230768 17.60525173611111  12.769831730769232 17.399088541666668  L 5.500600961538462 10.107421875  C 5.165264423076923 9.79275173611111  5.08954326923077 9.412977430555555  5.2734375 8.968098958333334  C 5.457331730769232 8.544921875  5.7764423076923075 8.333333333333334  6.230769230769231 8.333333333333334  L 10.384615384615385 8.333333333333334  L 10.384615384615385 1.0416666666666656  C 10.384615384615385 0.7595486111111077  10.487379807692308 0.5154079861111077  10.692908653846153 0.30924479166666574  C 10.898437500000002 0.10308159722222376  11.141826923076923 0  11.423076923076923 0  L 15.576923076923075 0  C 15.858173076923077 0  16.101562500000004 0.10308159722222376  16.307091346153847 0.30924479166666574  C 16.512620192307693 0.5154079861111077  16.615384615384617 0.7595486111111077  16.615384615384617 1.0416666666666656  L 16.615384615384617 8.333333333333334  L 20.76923076923077 8.333333333333334  Z " fill-rule="nonzero" fill="#555555" stroke="none" transform="matrix(1 0 0 1 1200 485 )" />
  </g>
</svg>