<?xml version="1.0" encoding="utf-8"?>
<svg version="1.1" xmlns:xlink="http://www.w3.org/1999/xlink" width="67px" height="10px" preserveAspectRatio="xMinYMid meet" viewBox="888 878  67 8" xmlns="http://www.w3.org/2000/svg">
  <path d="M 894 882  L 945 882  A 5 5 0 0 0 950 877 L 950 697  A 5 5 0 0 1 955 692 L 962 692  " stroke-width="2" stroke="#ffb300" fill="none" />
  <path d="M 891.5 878.5  A 3.5 3.5 0 0 0 888 882 A 3.5 3.5 0 0 0 891.5 885.5 A 3.5 3.5 0 0 0 895 882 A 3.5 3.5 0 0 0 891.5 878.5 Z M 891.5 880.5  A 1.5 1.5 0 0 1 893 882 A 1.5 1.5 0 0 1 891.5 883.5 A 1.5 1.5 0 0 1 890 882 A 1.5 1.5 0 0 1 891.5 880.5 Z M 964.5 688.5  A 3.5 3.5 0 0 0 961 692 A 3.5 3.5 0 0 0 964.5 695.5 A 3.5 3.5 0 0 0 968 692 A 3.5 3.5 0 0 0 964.5 688.5 Z M 964.5 690.5  A 1.5 1.5 0 0 1 966 692 A 1.5 1.5 0 0 1 964.5 693.5 A 1.5 1.5 0 0 1 963 692 A 1.5 1.5 0 0 1 964.5 690.5 Z " fill-rule="nonzero" fill="#ffb300" stroke="none" />
</svg>