<?xml version="1.0" encoding="utf-8"?>
<svg version="1.1" xmlns:xlink="http://www.w3.org/1999/xlink" width="21px" height="20px" preserveAspectRatio="xMinYMid meet" viewBox="881 802  21 18" xmlns="http://www.w3.org/2000/svg">
  <path d="M 894 811  L 935 811  A 5 5 0 0 0 940 806 L 940 697  A 5 5 0 0 1 945 692 L 962 692  " stroke-width="2" stroke="#ffb300" fill="none" />
  <path d="M 891.5 807.5  A 3.5 3.5 0 0 0 888 811 A 3.5 3.5 0 0 0 891.5 814.5 A 3.5 3.5 0 0 0 895 811 A 3.5 3.5 0 0 0 891.5 807.5 Z M 891.5 809.5  A 1.5 1.5 0 0 1 893 811 A 1.5 1.5 0 0 1 891.5 812.5 A 1.5 1.5 0 0 1 890 811 A 1.5 1.5 0 0 1 891.5 809.5 Z M 964.5 688.5  A 3.5 3.5 0 0 0 961 692 A 3.5 3.5 0 0 0 964.5 695.5 A 3.5 3.5 0 0 0 968 692 A 3.5 3.5 0 0 0 964.5 688.5 Z M 964.5 690.5  A 1.5 1.5 0 0 1 966 692 A 1.5 1.5 0 0 1 964.5 693.5 A 1.5 1.5 0 0 1 963 692 A 1.5 1.5 0 0 1 964.5 690.5 Z " fill-rule="nonzero" fill="#ffb300" stroke="none" />
</svg>