<?xml version="1.0" encoding="utf-8"?>
<svg version="1.1" xmlns:xlink="http://www.w3.org/1999/xlink" width="40px" height="50px" xmlns="http://www.w3.org/2000/svg">
  <defs>
    <filter x="1292px" y="292px" width="40px" height="50px" filterUnits="userSpaceOnUse" id="filter247">
      <feOffset dx="1" dy="1" in="SourceAlpha" result="shadowOffsetInner" />
      <feGaussianBlur stdDeviation="2.5" in="shadowOffsetInner" result="shadowGaussian" />
      <feComposite in2="shadowGaussian" operator="atop" in="SourceAlpha" result="shadowComposite" />
      <feColorMatrix type="matrix" values="0 0 0 0 0  0 0 0 0 0  0 0 0 0 0  0 0 0 0.6980392156862745 0  " in="shadowComposite" />
    </filter>
    <g id="widget248">
      <path d="M 1311 335.0369284683536  C 1305.2 325.4073405959099  1296.5 319.6295878724437  1296.5 310  C 1296.5 304.98571428571427  1299.4 296.5  1311 296.5  C 1322.6 296.5  1325.5 304.98571428571427  1325.5 310  C 1325.5 319.6295878724437  1316.8 325.4073405959099  1311 335.0369284683536  Z " fill-rule="nonzero" fill="#00c2ff" stroke="none" />
      <path d="M 1311 336  C 1305 326  1296 320  1296 310  C 1296 304.8  1299 296  1311 296  C 1323 296  1326 304.8  1326 310  C 1326 320  1317 326  1311 336  Z M 1311 334.0738569367072  C 1316.6 324.81468119181983  1325 319.2591757448874  1325 310  C 1325 305.1714285714286  1322.2 297  1311 297  C 1299.8 297  1297 305.1714285714286  1297 310  C 1297 319.2591757448874  1305.4 324.81468119181983  1311 334.0738569367072  Z " fill-rule="nonzero" fill="#ffffff" stroke="none" />
    </g>
  </defs>
  <g transform="matrix(1 0 0 1 -1292 -292 )">
    <use xlink:href="#widget248" filter="url(#filter247)" />
    <use xlink:href="#widget248" />
  </g>
</svg>