<?xml version="1.0" encoding="utf-8"?>
<svg version="1.1" xmlns:xlink="http://www.w3.org/1999/xlink" width="16px" height="16px" xmlns="http://www.w3.org/2000/svg">
  <g transform="matrix(1 0 0 1 -19 -465 )">
    <path d="M 27 467  C 30.36 467  33 469.64  33 473  C 33 476.36  30.36 479  27 479  C 23.64 479  21 476.36  21 473  C 21 469.64  23.64 467  27 467  Z " fill-rule="nonzero" fill="#ffffff" stroke="none" />
    <path d="M 27 466.5  C 30.64 466.5  33.5 469.36  33.5 473  C 33.5 476.64  30.64 479.5  27 479.5  C 23.36 479.5  20.5 476.64  20.5 473  C 20.5 469.36  23.36 466.5  27 466.5  Z " stroke-width="3" stroke="#0000ff" fill="none" />
  </g>
</svg>