<?xml version="1.0" encoding="utf-8"?>
<svg version="1.1" xmlns:xlink="http://www.w3.org/1999/xlink" width="18px" height="18px" xmlns="http://www.w3.org/2000/svg">
  <g transform="matrix(1 0 0 1 -223 -370 )">
    <path d="M 0.875 9  C 0.875 4.512686410000001  4.512686410000001 0.875  9 0.875  C 13.4873136 0.875  17.125 4.512686410000001  17.125 9  C 17.125 13.4873136  13.4873136 17.125  9 17.125  C 4.512686410000001 17.125  0.875 13.4873136  0.875 9  Z M 9.625 13.375  L 9.625 12.125  L 8.375 12.125  L 8.375 13.375  L 9.625 13.375  Z M 9.625 10.875  L 9.625 4.625  L 8.375 4.625  L 8.375 10.875  L 9.625 10.875  Z " fill-rule="nonzero" fill="#e34d59" stroke="none" transform="matrix(1 0 0 1 223 370 )" />
  </g>
</svg>