<?xml version="1.0" encoding="utf-8"?>
<svg version="1.1" xmlns:xlink="http://www.w3.org/1999/xlink" width="18px" height="18px" viewBox="17 141  18 18" xmlns="http://www.w3.org/2000/svg">
  <path d="M 26 142  C 30.48 142  34 145.52  34 150  C 34 154.48  30.48 158  26 158  C 21.52 158  18 154.48  18 150  C 18 145.52  21.52 142  26 142  Z " fill-rule="nonzero" fill="#6200ee" stroke="none" fill-opacity="0" />
  <path d="M 26 142  C 30.48 142  34 145.52  34 150  C 34 154.48  30.48 158  26 158  C 21.52 158  18 154.48  18 150  C 18 145.52  21.52 142  26 142  Z " stroke-width="2" stroke="#1e98d7" fill="none" />
  <path d="M 26 154.5  C 23.48 154.5  21.5 152.52  21.5 150  C 21.5 147.48  23.48 145.5  26 145.5  C 28.52 145.5  30.5 147.48  30.5 150  C 30.5 152.52  28.52 154.5  26 154.5  " fill-rule="nonzero" fill="#1e98d7" stroke="none" />
</svg>