<?xml version="1.0" encoding="utf-8"?>
<svg version="1.1" xmlns:xlink="http://www.w3.org/1999/xlink" width="18px" height="18px" viewBox="17 95  18 18" xmlns="http://www.w3.org/2000/svg">
  <path d="M 26 96  C 30.48 96  34 99.52  34 104  C 34 108.48  30.48 112  26 112  C 21.52 112  18 108.48  18 104  C 18 99.52  21.52 96  26 96  Z " fill-rule="nonzero" fill="#6200ee" stroke="none" fill-opacity="0" />
  <path d="M 26 96  C 30.48 96  34 99.52  34 104  C 34 108.48  30.48 112  26 112  C 21.52 112  18 108.48  18 104  C 18 99.52  21.52 96  26 96  Z " stroke-width="2" stroke="#1e98d7" fill="none" />
  <path d="M 26 108.5  C 23.48 108.5  21.5 106.52  21.5 104  C 21.5 101.48  23.48 99.5  26 99.5  C 28.52 99.5  30.5 101.48  30.5 104  C 30.5 106.52  28.52 108.5  26 108.5  " fill-rule="nonzero" fill="#1e98d7" stroke="none" />
</svg>