<?xml version="1.0" encoding="utf-8"?>
<svg version="1.1" xmlns:xlink="http://www.w3.org/1999/xlink" width="13px" height="18px" xmlns="http://www.w3.org/2000/svg">
  <g transform="matrix(1 0 0 1 -1019 -312 )">
    <path d="M 12.776632302405497 1.0821643286573137  C 12.925544100801835 1.2024048096192363  13 1.3406813627254486  13 1.4969939879759524  C 13 1.6533066132264522  12.925544100801835 1.7915831663326645  12.776632302405497 1.911823647294589  L 3.9982817869415808 9  L 12.776632302405497 16.08817635270541  C 12.925544100801835 16.208416833667336  13 16.346693386773545  13 16.50300601202405  C 13 16.65931863727455  12.925544100801835 16.79759519038076  12.776632302405497 16.917835671342687  L 11.659793814432991 17.819639278557116  C 11.510882016036657 17.939879759519037  11.339633447880873 18  11.146048109965635 18  C 10.952462772050403 18  10.781214203894619 17.939879759519037  10.632302405498281 17.819639278557116  L 0.22336769759450173 9.414829659318636  C 0.0744558991981673 9.294589178356713  0 9.1563126252505  0 9  C 0 8.843687374749498  0.0744558991981673 8.705410821643286  0.22336769759450173 8.585170340681364  L 10.632302405498281 0.18036072144288595  C 10.781214203894619 0.06012024048096132  10.952462772050403 0  11.146048109965635 0  C 11.339633447880873 0  11.510882016036657 0.06012024048096132  11.659793814432991 0.18036072144288595  L 12.776632302405497 1.0821643286573137  Z " fill-rule="nonzero" fill="#000000" stroke="none" transform="matrix(1 0 0 1 1019 312 )" />
  </g>
</svg>