<?xml version="1.0" encoding="utf-8"?>
<svg version="1.1" xmlns:xlink="http://www.w3.org/1999/xlink" width="15px" height="17px" xmlns="http://www.w3.org/2000/svg">
  <g transform="matrix(1 0 0 1 -1269 -554 )">
    <path d="M 10.714285714285715 3.6428571428571432  L 14.196428571428571 3.6428571428571432  C 14.419642857142858 3.6428571428571432  14.609375 3.7313988095238084  14.765625 3.9084821428571432  C 14.921875000000002 4.085565476190474  15 4.300595238095238  15 4.55357142857143  L 15 16.089285714285715  C 15 16.342261904761905  14.921875000000002 16.557291666666664  14.765625 16.734375  C 14.609375 16.911458333333336  14.419642857142858 17  14.196428571428571 17  L 6.160714285714286 17  C 5.937500000000001 17  5.747767857142858 16.911458333333336  5.591517857142858 16.734375  C 5.435267857142858 16.557291666666664  5.357142857142858 16.342261904761905  5.357142857142858 16.089285714285715  L 5.357142857142858 13.357142857142858  L 0.8035714285714285 13.357142857142858  C 0.580357142857143 13.357142857142858  0.390625 13.268601190476192  0.234375 13.091517857142858  C 0.078125 12.914434523809524  0 12.699404761904763  0 12.446428571428573  L 0 6.07142857142857  C 0 5.818452380952381  0.055803571428571425 5.54017857142857  0.1674107142857143 5.236607142857143  C 0.27901785714285715 4.9330357142857135  0.4129464285714286 4.692708333333333  0.5691964285714285 4.515625  L 3.984375 0.6450892857142863  C 4.140625 0.46800595238095166  4.352678571428572 0.3162202380952379  4.620535714285714 0.18973214285714313  C 4.888392857142858 0.06324404761904834  5.133928571428571 0  5.357142857142858 0  L 8.839285714285715 0  C 9.062500000000002 0  9.252232142857144 0.0885416666666673  9.408482142857144 0.265625  C 9.564732142857142 0.4427083333333327  9.642857142857144 0.6577380952380948  9.642857142857144 0.9107142857142863  L 9.642857142857144 4.02232142857143  C 10.022321428571429 3.769345238095238  10.379464285714285 3.6428571428571432  10.714285714285715 3.6428571428571432  Z M 9.642857142857144 8.5  L 9.642857142857144 5.6635044642857135  L 7.140066964285714 8.5  L 9.642857142857144 8.5  Z M 4.285714285714286 4.857142857142857  L 4.285714285714286 2.0206473214285707  L 1.782924107142857 4.857142857142857  L 4.285714285714286 4.857142857142857  Z M 5.524553571428572 8.879464285714286  C 5.636160714285714 8.575892857142858  5.7700892857142865 8.335565476190476  5.926339285714286 8.158482142857142  L 8.571428571428571 5.1607142857142865  L 8.571428571428571 1.2142857142857137  L 5.357142857142858 1.2142857142857137  L 5.357142857142858 5.1607142857142865  C 5.357142857142858 5.413690476190474  5.279017857142858 5.628720238095238  5.122767857142858 5.80580357142857  C 4.966517857142858 5.982886904761903  4.776785714285714 6.07142857142857  4.553571428571428 6.07142857142857  L 1.0714285714285714 6.07142857142857  L 1.0714285714285714 12.142857142857142  L 5.357142857142858 12.142857142857142  L 5.357142857142858 9.714285714285714  C 5.357142857142858 9.461309523809524  5.41294642857143 9.183035714285714  5.524553571428572 8.879464285714286  Z M 6.428571428571428 15.785714285714286  L 14 15.785714285714286  L 14 4.857142857142857  L 10.714285714285715 4.857142857142857  L 10.714285714285715 8.803571428571427  C 10.714285714285715 9.056547619047619  10.636160714285715 9.27157738095238  10.479910714285715 9.448660714285714  C 10.323660714285715 9.625744047619047  10.133928571428573 9.714285714285714  9.910714285714285 9.714285714285714  L 6.428571428571428 9.714285714285714  L 6.428571428571428 15.785714285714286  Z " fill-rule="nonzero" fill="#7f7f7f" stroke="none" transform="matrix(1 0 0 1 1269 554 )" />
  </g>
</svg>