<?xml version="1.0" encoding="utf-8"?>
<svg version="1.1" xmlns:xlink="http://www.w3.org/1999/xlink" width="10px" height="17px" xmlns="http://www.w3.org/2000/svg">
  <g transform="matrix(1 0 0 1 -1056 -383 )">
    <path d="M 9.828178694158074 8.108216432865731  C 9.942726231386027 8.221776887107549  10 8.352371409485638  10 8.5  C 10 8.64762859051436  9.942726231386027 8.77822311289245  9.828178694158074 8.891783567134269  L 1.8213058419243986 16.829659318637276  C 1.7067583046964492 16.943219772879093  1.575028636884307 17  1.4261168384879723 17  C 1.2772050400916382 17  1.1454753722794961 16.943219772879093  1.0309278350515463 16.829659318637276  L 0.1718213058419244 15.977955911823647  C 0.05727376861397484 15.864395457581828  0 15.73380093520374  0 15.586172344689379  C 0 15.438543754175015  0.05727376861397484 15.307949231796927  0.1718213058419244 15.19438877755511  L 6.9243986254295535 8.5  L 0.1718213058419244 1.8056112224448897  C 0.05727376861397484 1.6920507682030719  0 1.5614562458249828  0 1.4138276553106217  C 0 1.266199064796257  0.05727376861397484 1.1356045424181676  0.1718213058419244 1.0220440881763517  L 1.0309278350515463 0.17034068136272562  C 1.1454753722794961 0.05678022712090791  1.2772050400916382 0  1.4261168384879723 0  C 1.575028636884307 0  1.7067583046964492 0.05678022712090791  1.8213058419243986 0.17034068136272562  L 9.828178694158074 8.108216432865731  Z " fill-rule="nonzero" fill="#aaaaaa" stroke="none" transform="matrix(1 0 0 1 1056 383 )" />
  </g>
</svg>