<?xml version="1.0" encoding="utf-8"?>
<svg version="1.1" xmlns:xlink="http://www.w3.org/1999/xlink" width="38px" height="38px" xmlns="http://www.w3.org/2000/svg">
  <g transform="matrix(1 0 0 1 -1039 -433 )">
    <path d="M 21.71428571428571 31  L 21.71428571428571 34  L 35.285714285714285 34  L 35.285714285714285 31  L 21.71428571428571 31  Z M 13.571428571428571 18  L 13.571428571428571 20  L 35.285714285714285 20  L 35.285714285714285 18  L 13.571428571428571 18  Z M 27.142857142857142 3.454545454545456  L 27.142857142857142 6.909090909090907  L 35.285714285714285 6.909090909090907  L 35.285714285714285 3.454545454545456  L 27.142857142857142 3.454545454545456  Z M 37.597098214285715 28.149147727272727  C 37.865699404761905 28.491003787878782  38 28.89583333333333  38 29.363636363636363  L 38 36.27272727272727  C 38 36.7405303030303  37.865699404761905 37.145359848484844  37.597098214285715 37.48721590909091  C 37.328497023809526 37.829071969696976  37.01041666666667 38  36.642857142857146 38  L 1.357142857142857 38  C 0.9895833333333334 38  0.6715029761904762 37.829071969696976  0.40290178571428575 37.48721590909091  C 0.13430059523809523 37.145359848484844  0 36.7405303030303  0 36.27272727272727  L 0 29.363636363636363  C 0 28.89583333333333  0.13430059523809523 28.491003787878782  0.40290178571428575 28.149147727272727  C 0.6715029761904762 27.80729166666667  0.9895833333333334 27.636363636363637  1.357142857142857 27  L 36.642857142857146 27  C 37.01041666666667 27.636363636363637  37.328497023809526 27.80729166666667  37.597098214285715 28.149147727272727  Z M 37.597098214285715 14.330965909090907  C 37.865699404761905 14.672821969696965  38 15.077651515151508  38 15.545454545454545  L 38 22.454545454545453  C 38 22.92234848484848  37.865699404761905 23.327178030303028  37.597098214285715 23.66903409090909  C 37.328497023809526 24.01089015151515  37.01041666666667 24.18181818181818  36.642857142857146 24  L 1.357142857142857 24  C 0.9895833333333334 24.18181818181818  0.6715029761904762 24.01089015151515  0.40290178571428575 23.66903409090909  C 0.13430059523809523 23.327178030303028  0 22.92234848484848  0 22.454545454545453  L 0 15.545454545454545  C 0 15.077651515151508  0.13430059523809523 14.672821969696965  0.40290178571428575 14.330965909090907  C 0.6715029761904762 13.989109848484846  0.9895833333333334 13.818181818181818  1.357142857142857 14  L 36.642857142857146 14  C 37.01041666666667 13.818181818181818  37.328497023809526 13.989109848484846  37.597098214285715 14.330965909090907  Z M 37.597098214285715 0.5127840909090928  C 37.865699404761905 0.8546401515151463  38 1.2594696969696948  38 1.7272727272727257  L 38 8.636363636363637  C 38 9.104166666666664  37.865699404761905 9.508996212121207  37.597098214285715 9.850852272727273  C 37.328497023809526 10.192708333333329  37.01041666666667 10.363636363636363  36.642857142857146 11  L 1.357142857142857 11  C 0.9895833333333334 10.363636363636363  0.6715029761904762 10.192708333333329  0.40290178571428575 9.850852272727273  C 0.13430059523809523 9.508996212121207  0 9.104166666666664  0 8.636363636363637  L 0 1.7272727272727257  C 0 1.2594696969696948  0.13430059523809523 0.8546401515151463  0.40290178571428575 0.5127840909090928  C 0.6715029761904762 0.17092803030302672  0.9895833333333334 0  1.357142857142857 0  L 36.642857142857146 0  C 37.01041666666667 0  37.328497023809526 0.17092803030302672  37.597098214285715 0.5127840909090928  Z " fill-rule="nonzero" fill="#d9001b" stroke="none" transform="matrix(1 0 0 1 1039 433 )" />
  </g>
</svg>