<?xml version="1.0" encoding="utf-8"?>
<svg version="1.1" xmlns:xlink="http://www.w3.org/1999/xlink" width="48px" height="30px" xmlns="http://www.w3.org/2000/svg">
  <g transform="matrix(1 0 0 1 -1044 -501 )">
    <path d="M 27.428571428571427 24  L 27.428571428571427 27  L 44.57142857142857 27  L 44.57142857142857 24  L 27.428571428571427 24  Z M 17.142857142857142 14  L 17.142857142857142 16  L 44.57142857142857 16  L 44.57142857142857 14  L 17.142857142857142 14  Z M 34.285714285714285 3  L 34.285714285714285 6  L 44.57142857142857 6  L 44.57142857142857 3  L 34.285714285714285 3  Z M 47.49107142857143 22.223011363636363  C 47.830357142857146 22.492897727272723  48 22.812499999999996  48 23.18181818181818  L 48 28.636363636363637  C 48 29.005681818181817  47.830357142857146 29.32528409090909  47.49107142857143 29.595170454545453  C 47.15178571428572 29.86505681818182  46.75 30  46.285714285714285 30  L 1.7142857142857142 30  C 1.25 30  0.8482142857142857 29.86505681818182  0.5089285714285714 29.595170454545453  C 0.16964285714285715 29.32528409090909  0 29.005681818181817  0 28.636363636363637  L 0 23.18181818181818  C 0 22.812499999999996  0.16964285714285715 22.492897727272723  0.5089285714285714 22.223011363636363  C 0.8482142857142857 21.953125000000004  1.25 21.81818181818182  1.7142857142857142 21.81818181818182  L 46.285714285714285 21.81818181818182  C 46.75 21.81818181818182  47.15178571428572 21.953125000000004  47.49107142857143 22.223011363636363  Z M 47.49107142857143 11.313920454545453  C 47.830357142857146 11.583806818181815  48 11.903409090909086  48 12.272727272727272  L 48 17.727272727272727  C 48 18.096590909090907  47.830357142857146 18.41619318181818  47.49107142857143 18.686079545454543  C 47.15178571428572 18.955965909090907  46.75 19.09090909090909  46.285714285714285 19  L 1.7142857142857142 19  C 1.25 19.09090909090909  0.8482142857142857 18.955965909090907  0.5089285714285714 18.686079545454543  C 0.16964285714285715 18.41619318181818  0 18.096590909090907  0 17.727272727272727  L 0 12.272727272727272  C 0 11.903409090909086  0.16964285714285715 11.583806818181815  0.5089285714285714 11.313920454545453  C 0.8482142857142857 11.044034090909088  1.25 10.90909090909091  1.7142857142857142 11  L 46.285714285714285 11  C 46.75 10.90909090909091  47.15178571428572 11.044034090909088  47.49107142857143 11.313920454545453  Z M 47.49107142857143 0.40482954545454697  C 47.830357142857146 0.674715909090905  48 0.9943181818181801  48 1.3636363636363624  L 48 6.818181818181818  C 48 7.187499999999998  47.830357142857146 7.50710227272727  47.49107142857143 7.776988636363638  C 47.15178571428572 8.046874999999996  46.75 8.181818181818182  46.285714285714285 8.181818181818182  L 1.7142857142857142 8.181818181818182  C 1.25 8.181818181818182  0.8482142857142857 8.046874999999996  0.5089285714285714 7.776988636363638  C 0.16964285714285715 7.50710227272727  0 7.187499999999998  0 6.818181818181818  L 0 1.3636363636363624  C 0 0.9943181818181801  0.16964285714285715 0.674715909090905  0.5089285714285714 0.40482954545454697  C 0.8482142857142857 0.134943181818179  1.25 0  1.7142857142857142 0  L 46.285714285714285 0  C 46.75 0  47.15178571428572 0.134943181818179  47.49107142857143 0.40482954545454697  Z " fill-rule="nonzero" fill="#d9001b" stroke="none" transform="matrix(1 0 0 1 1044 501 )" />
  </g>
</svg>