<?xml version="1.0" encoding="utf-8"?>
<svg version="1.1" xmlns:xlink="http://www.w3.org/1999/xlink" width="47px" height="31px" xmlns="http://www.w3.org/2000/svg">
  <g transform="matrix(1 0 0 1 -1044 -569 )">
    <path d="M 26.857142857142854 25  L 26.857142857142854 28  L 43.642857142857146 28  L 43.642857142857146 25  L 26.857142857142854 25  Z M 16.785714285714285 14  L 16.785714285714285 17  L 43.642857142857146 17  L 43.642857142857146 14  L 16.785714285714285 14  Z M 33.57142857142857 3  L 33.57142857142857 6  L 43.642857142857146 6  L 43.642857142857146 3  L 33.57142857142857 3  Z M 46.501674107142854 22.963778409090907  C 46.83389136904762 23.24266098484848  47 23.57291666666666  47 23.954545454545453  L 47 29.590909090909093  C 47 29.972537878787875  46.83389136904762 30.30279356060606  46.501674107142854 30.581676136363633  C 46.1694568452381 30.860558712121215  45.77604166666667 31  45.32142857142857 31  L 1.6785714285714284 31  C 1.2239583333333335 31  0.8305431547619048 30.860558712121215  0.4983258928571429 30.581676136363633  C 0.16610863095238096 30.30279356060606  0 29.972537878787875  0 29.590909090909093  L 0 23.954545454545453  C 0 23.57291666666666  0.16610863095238096 23.24266098484848  0.4983258928571429 22.963778409090907  C 0.8305431547619048 22.68489583333334  1.2239583333333335 22.545454545454547  1.6785714285714284 22  L 45.32142857142857 22  C 45.77604166666667 22.545454545454547  46.1694568452381 22.68489583333334  46.501674107142854 22.963778409090907  Z M 46.501674107142854 11.691051136363635  C 46.83389136904762 11.969933712121207  47 12.30018939393939  47 12.681818181818182  L 47 18.318181818181817  C 47 18.699810606060606  46.83389136904762 19.030066287878785  46.501674107142854 19.308948863636363  C 46.1694568452381 19.587831439393938  45.77604166666667 19.727272727272727  45.32142857142857 19.727272727272727  L 1.6785714285714284 19.727272727272727  C 1.2239583333333335 19.727272727272727  0.8305431547619048 19.587831439393938  0.4983258928571429 19.308948863636363  C 0.16610863095238096 19.030066287878785  0 18.699810606060606  0 18.318181818181817  L 0 12.681818181818182  C 0 12.30018939393939  0.16610863095238096 11.969933712121207  0.4983258928571429 11.691051136363635  C 0.8305431547619048 11.412168560606059  1.2239583333333335 11.272727272727273  1.6785714285714284 11.272727272727273  L 45.32142857142857 11.272727272727273  C 45.77604166666667 11.272727272727273  46.1694568452381 11.412168560606059  46.501674107142854 11.691051136363635  Z M 46.501674107142854 0.4183238636363652  C 46.83389136904762 0.6972064393939351  47 1.0274621212121193  47 1.4090909090909078  L 47 7.045454545454546  C 47 7.427083333333331  46.83389136904762 7.757339015151512  46.501674107142854 8.036221590909092  C 46.1694568452381 8.315104166666663  45.77604166666667 8.454545454545453  45.32142857142857 9  L 1.6785714285714284 9  C 1.2239583333333335 8.454545454545453  0.8305431547619048 8.315104166666663  0.4983258928571429 8.036221590909092  C 0.16610863095238096 7.757339015151512  0 7.427083333333331  0 7.045454545454546  L 0 1.4090909090909078  C 0 1.0274621212121193  0.16610863095238096 0.6972064393939351  0.4983258928571429 0.4183238636363652  C 0.8305431547619048 0.13944128787878496  1.2239583333333335 0  1.6785714285714284 0  L 45.32142857142857 0  C 45.77604166666667 0  46.1694568452381 0.13944128787878496  46.501674107142854 0.4183238636363652  Z " fill-rule="nonzero" fill="#d9001b" stroke="none" transform="matrix(1 0 0 1 1044 569 )" />
  </g>
</svg>