<?xml version="1.0" encoding="utf-8"?>
<svg version="1.1" xmlns:xlink="http://www.w3.org/1999/xlink" width="48px" height="32px" xmlns="http://www.w3.org/2000/svg">
  <g transform="matrix(1 0 0 1 -1044 -690 )">
    <path d="M 27.428571428571427 26  L 27.428571428571427 29  L 44.57142857142857 29  L 44.57142857142857 26  L 27.428571428571427 26  Z M 17.142857142857142 15  L 17.142857142857142 17  L 44.57142857142857 17  L 44.57142857142857 15  L 17.142857142857142 15  Z M 34.285714285714285 3  L 34.285714285714285 6  L 44.57142857142857 6  L 44.57142857142857 3  L 34.285714285714285 3  Z M 47.49107142857143 23.704545454545453  C 47.830357142857146 23.99242424242424  48 24.33333333333333  48 24.727272727272727  L 48 30.545454545454547  C 48 30.939393939393938  47.830357142857146 31.280303030303028  47.49107142857143 31.568181818181817  C 47.15178571428572 31.85606060606061  46.75 32  46.285714285714285 32  L 1.7142857142857142 32  C 1.25 32  0.8482142857142857 31.85606060606061  0.5089285714285714 31.568181818181817  C 0.16964285714285715 31.280303030303028  0 30.939393939393938  0 30.545454545454547  L 0 24.727272727272727  C 0 24.33333333333333  0.16964285714285715 23.99242424242424  0.5089285714285714 23.704545454545453  C 0.8482142857142857 23.41666666666667  1.25 23.272727272727273  1.7142857142857142 23  L 46.285714285714285 23  C 46.75 23.272727272727273  47.15178571428572 23.41666666666667  47.49107142857143 23.704545454545453  Z M 47.49107142857143 12.068181818181817  C 47.830357142857146 12.356060606060602  48 12.696969696969692  48 13.09090909090909  L 48 18.909090909090907  C 48 19.3030303030303  47.830357142857146 19.64393939393939  47.49107142857143 19.93181818181818  C 47.15178571428572 20.21969696969697  46.75 20.363636363636363  46.285714285714285 20  L 1.7142857142857142 20  C 1.25 20.363636363636363  0.8482142857142857 20.21969696969697  0.5089285714285714 19.93181818181818  C 0.16964285714285715 19.64393939393939  0 19.3030303030303  0 18.909090909090907  L 0 13.09090909090909  C 0 12.696969696969692  0.16964285714285715 12.356060606060602  0.5089285714285714 12.068181818181817  C 0.8482142857142857 11.780303030303028  1.25 11.636363636363637  1.7142857142857142 12  L 46.285714285714285 12  C 46.75 11.636363636363637  47.15178571428572 11.780303030303028  47.49107142857143 12.068181818181817  Z M 47.49107142857143 0.43181818181818343  C 47.830357142857146 0.7196969696969653  48 1.0606060606060588  48 1.4545454545454533  L 48 7.272727272727273  C 48 7.666666666666664  47.830357142857146 8.007575757575754  47.49107142857143 8.295454545454547  C 47.15178571428572 8.583333333333329  46.75 8.727272727272727  46.285714285714285 9  L 1.7142857142857142 9  C 1.25 8.727272727272727  0.8482142857142857 8.583333333333329  0.5089285714285714 8.295454545454547  C 0.16964285714285715 8.007575757575754  0 7.666666666666664  0 7.272727272727273  L 0 1.4545454545454533  C 0 1.0606060606060588  0.16964285714285715 0.7196969696969653  0.5089285714285714 0.43181818181818343  C 0.8482142857142857 0.14393939393939092  1.25 0  1.7142857142857142 0  L 46.285714285714285 0  C 46.75 0  47.15178571428572 0.14393939393939092  47.49107142857143 0.43181818181818343  Z " fill-rule="nonzero" fill="#d9001b" stroke="none" transform="matrix(1 0 0 1 1044 690 )" />
  </g>
</svg>