<?xml version="1.0" encoding="utf-8"?>
<svg version="1.1" xmlns:xlink="http://www.w3.org/1999/xlink" width="48px" height="27px" xmlns="http://www.w3.org/2000/svg">
  <g transform="matrix(1 0 0 1 -1043 -631 )">
    <path d="M 27.428571428571427 22  L 27.428571428571427 24.545454545454543  L 44.57142857142857 24.545454545454543  L 44.57142857142857 22  L 27.428571428571427 22  Z M 17.142857142857142 12.272727272727273  L 17.142857142857142 14.727272727272727  L 44.57142857142857 14.727272727272727  L 44.57142857142857 12.272727272727273  L 17.142857142857142 12.272727272727273  Z M 34.285714285714285 2.4545454545454555  L 34.285714285714285 5  L 44.57142857142857 5  L 44.57142857142857 2.4545454545454555  L 34.285714285714285 2.4545454545454555  Z M 47.49107142857143 20.000710227272727  C 47.830357142857146 20.24360795454545  48 20.531249999999996  48 20.863636363636363  L 48 25.772727272727273  C 48 26.105113636363633  47.830357142857146 26.39275568181818  47.49107142857143 26.635653409090907  C 47.15178571428572 26.87855113636364  46.75 27  46.285714285714285 27  L 1.7142857142857142 27  C 1.25 27  0.8482142857142857 26.87855113636364  0.5089285714285714 26.635653409090907  C 0.16964285714285715 26.39275568181818  0 26.105113636363633  0 25.772727272727273  L 0 20.863636363636363  C 0 20.531249999999996  0.16964285714285715 20.24360795454545  0.5089285714285714 20.000710227272727  C 0.8482142857142857 19.757812500000004  1.25 19.636363636363637  1.7142857142857142 19.636363636363637  L 46.285714285714285 19.636363636363637  C 46.75 19.636363636363637  47.15178571428572 19.757812500000004  47.49107142857143 20.000710227272727  Z M 47.49107142857143 10.182528409090908  C 47.830357142857146 10.425426136363633  48 10.713068181818178  48 11.045454545454545  L 48 15.954545454545453  C 48 16.286931818181817  47.830357142857146 16.57457386363636  47.49107142857143 16.81747159090909  C 47.15178571428572 17.060369318181817  46.75 17.18181818181818  46.285714285714285 17  L 1.7142857142857142 17  C 1.25 17.18181818181818  0.8482142857142857 17.060369318181817  0.5089285714285714 16.81747159090909  C 0.16964285714285715 16.57457386363636  0 16.286931818181817  0 15.954545454545453  L 0 11.045454545454545  C 0 10.713068181818178  0.16964285714285715 10.425426136363633  0.5089285714285714 10.182528409090908  C 0.8482142857142857 9.93963068181818  1.25 9.818181818181818  1.7142857142857142 10  L 46.285714285714285 10  C 46.75 9.818181818181818  47.15178571428572 9.93963068181818  47.49107142857143 10.182528409090908  Z M 47.49107142857143 0.36434659090909227  C 47.830357142857146 0.6072443181818145  48 0.8948863636363621  48 1.2272727272727262  L 48 6.136363636363637  C 48 6.468749999999998  47.830357142857146 6.756392045454542  47.49107142857143 6.999289772727273  C 47.15178571428572 7.2421874999999964  46.75 7.363636363636363  46.285714285714285 7.363636363636363  L 1.7142857142857142 7.363636363636363  C 1.25 7.363636363636363  0.8482142857142857 7.2421874999999964  0.5089285714285714 6.999289772727273  C 0.16964285714285715 6.756392045454542  0 6.468749999999998  0 6.136363636363637  L 0 1.2272727272727262  C 0 0.8948863636363621  0.16964285714285715 0.6072443181818145  0.5089285714285714 0.36434659090909227  C 0.8482142857142857 0.12144886363636109  1.25 0  1.7142857142857142 0  L 46.285714285714285 0  C 46.75 0  47.15178571428572 0.12144886363636109  47.49107142857143 0.36434659090909227  Z " fill-rule="nonzero" fill="#d9001b" stroke="none" transform="matrix(1 0 0 1 1043 631 )" />
  </g>
</svg>