<?xml version="1.0" encoding="utf-8"?>
<svg version="1.1" xmlns:xlink="http://www.w3.org/1999/xlink" width="14px" height="21px" xmlns="http://www.w3.org/2000/svg">
  <g transform="matrix(1 0 0 1 -296 -380 )">
    <path d="M 3.5546875 19.3046875  C 3.8098958333333335 19.049479166666664  3.9375 18.739583333333336  3.9375 18.375  C 3.9375 18.010416666666664  3.8098958333333335 17.700520833333336  3.5546875 17.4453125  C 3.299479166666667 17.190104166666664  2.9895833333333335 17.0625  2.625 17.0625  C 2.260416666666667 17.0625  1.9505208333333335 17.190104166666664  1.6953125 17.4453125  C 1.4401041666666665 17.700520833333336  1.3125 18.010416666666664  1.3125 18.375  C 1.3125 18.739583333333336  1.4401041666666665 19.049479166666664  1.6953125 19.3046875  C 1.9505208333333335 19.559895833333336  2.260416666666667 19.6875  2.625 19.6875  C 2.9895833333333335 19.6875  3.299479166666667 19.559895833333336  3.5546875 19.3046875  Z M 3.5546875 3.554687500000001  C 3.8098958333333335 3.2994791666666647  3.9375 2.989583333333332  3.9375 2.625  C 3.9375 2.2604166666666656  3.8098958333333335 1.9505208333333304  3.5546875 1.6953124999999991  C 3.299479166666667 1.4401041666666656  2.9895833333333335 1.3125  2.625 1.3125  C 2.260416666666667 1.3125  1.9505208333333335 1.4401041666666656  1.6953125 1.6953124999999991  C 1.4401041666666665 1.9505208333333304  1.3125 2.2604166666666656  1.3125 2.625  C 1.3125 2.989583333333332  1.4401041666666665 3.2994791666666647  1.6953125 3.554687500000001  C 1.9505208333333335 3.809895833333332  2.260416666666667 3.9375  2.625 3.9375  C 2.9895833333333335 3.9375  3.299479166666667 3.809895833333332  3.5546875 3.554687500000001  Z M 12.3046875 5.304687499999999  C 12.559895833333334 5.049479166666666  12.6875 4.73958333333333  12.6875 4.375000000000001  C 12.6875 4.010416666666666  12.559895833333334 3.7005208333333313  12.3046875 3.4453125  C 12.049479166666668 3.1901041666666665  11.739583333333334 3.062500000000001  11.375 3.062500000000001  C 11.010416666666668 3.062500000000001  10.700520833333334 3.1901041666666665  10.4453125 3.4453125  C 10.190104166666668 3.7005208333333313  10.0625 4.010416666666666  10.0625 4.375000000000001  C 10.0625 4.73958333333333  10.190104166666668 5.049479166666666  10.4453125 5.304687499999999  C 10.700520833333334 5.55989583333333  11.010416666666668 5.687500000000001  11.375 5.687500000000001  C 11.739583333333334 5.687500000000001  12.049479166666668 5.55989583333333  12.3046875 5.304687499999999  Z M 13.234375 2.515624999999999  C 13.744791666666668 3.0260416666666665  14 3.645833333333332  14 4.375000000000001  C 14 4.848958333333331  13.881510416666668 5.288736979166665  13.64453125 5.694335937499999  C 13.407552083333334 6.099934895833331  13.088541666666668 6.416666666666665  12.6875 6.64453125  C 12.669270833333334 9.260416666666666  11.639322916666668 11.147135416666664  9.59765625 12.3046875  C 8.986979166666668 12.651041666666668  8.061848958333334 13.020182291666668  6.822265625 13.412109375  C 5.655598958333334 13.77669270833333  4.883138020833334 14.100260416666664  4.5048828125 14.382812499999998  C 4.126627604166667 14.665364583333332  3.9375 15.121093749999998  3.9375 15.75  L 3.9375 16.10546875  C 4.338541666666667 16.333333333333332  4.657552083333334 16.650065104166664  4.89453125 17.0556640625  C 5.131510416666666 17.461263020833332  5.25 17.901041666666664  5.25 18.375  C 5.25 19.104166666666668  4.994791666666666 19.723958333333336  4.484375 20.234375  C 3.9739583333333335 20.744791666666668  3.354166666666667 21  2.625 21  C 1.8958333333333335 21  1.2760416666666667 20.744791666666668  0.765625 20.234375  C 0.25520833333333337 19.723958333333336  0 19.104166666666668  0 18.375  C 0 17.901041666666664  0.11848958333333337 17.461263020833332  0.35546875000000006 17.0556640625  C 0.5924479166666667 16.650065104166664  0.9114583333333334 16.333333333333332  1.3125 16.10546875  L 1.3125 4.894531249999999  C 0.9114583333333334 4.666666666666666  0.5924479166666667 4.34993489583333  0.35546875000000006 3.944335937500001  C 0.11848958333333337 3.5387369791666665  0 3.0989583333333304  0 2.625  C 0 1.8958333333333313  0.25520833333333337 1.2760416666666656  0.765625 0.7656250000000008  C 1.2760416666666667 0.25520833333333126  1.8958333333333335 0  2.625 0  C 3.354166666666667 0  3.9739583333333335 0.25520833333333126  4.484375 0.7656250000000008  C 4.994791666666666 1.2760416666666656  5.25 1.8958333333333313  5.25 2.625  C 5.25 3.0989583333333304  5.131510416666666 3.5387369791666665  4.89453125 3.944335937500001  C 4.657552083333334 4.34993489583333  4.338541666666667 4.666666666666666  3.9375 4.894531249999999  L 3.9375 11.689453125  C 4.4296875 11.452473958333332  5.131510416666667 11.192708333333334  6.04296875 10.91015625  C 6.544270833333334 10.755208333333332  6.943033854166667 10.620768229166668  7.2392578125 10.506835937499998  C 7.535481770833334 10.392903645833332  7.856770833333334 10.251627604166664  8.203125 10.0830078125  C 8.549479166666668 9.914388020833334  8.818359375 9.734375  9.009765625 9.54296875  C 9.201171875 9.3515625  9.3857421875 9.119140625  9.5634765625 8.845703125  C 9.7412109375 8.572265625  9.868815104166668 8.255533854166666  9.9462890625 7.8955078125  C 10.023763020833334 7.535481770833331  10.0625 7.11848958333333  10.0625 6.64453125  C 9.661458333333334 6.416666666666665  9.342447916666668 6.099934895833331  9.10546875 5.694335937499999  C 8.868489583333334 5.288736979166665  8.75 4.848958333333331  8.75 4.375000000000001  C 8.75 3.645833333333332  9.005208333333334 3.0260416666666665  9.515625 2.515624999999999  C 10.026041666666668 2.005208333333332  10.645833333333334 1.7500000000000009  11.375 1.7500000000000009  C 12.104166666666668 1.7500000000000009  12.723958333333334 2.005208333333332  13.234375 2.515624999999999  Z " fill-rule="nonzero" fill="#ffffff" stroke="none" transform="matrix(1 0 0 1 296 380 )" />
  </g>
</svg>