<?xml version="1.0" encoding="utf-8"?>
<svg version="1.1" xmlns:xlink="http://www.w3.org/1999/xlink" width="15px" height="19px" xmlns="http://www.w3.org/2000/svg">
  <defs>
    <mask fill="white" id="clip18">
      <path d="M 15 9.5  C 15 9.646718146718147  14.918265813788203 9.773058773058773  14.754797441364605 9.879021879021877  L 0.5970149253731343 18.9021879021879  C 0.43354655294953803 19.008151008151007  0.2931769722814499 19.020377520377522  0.17590618336886996 18.938867438867437  C 0.05863539445628998 18.85735735735736  0 18.710639210639208  0 18.498712998713  L 0 0.501287001287001  C 0 0.2893607893607869  0.05863539445628998 0.14264264264264048  0.17590618336886996 0.061132561132561714  C 0.2931769722814499 -0.020377520377523384  0.43354655294953803 -0.008151008151007666  0.5970149253731343 0.09781209781209832  L 14.754797441364605 9.12097812097812  C 14.918265813788203 9.226941226941227  15 9.353281853281853  15 9.5  Z " fill-rule="evenodd" />
    </mask>
  </defs>
  <g transform="matrix(1 0 0 1 -1245 -366 )">
    <path d="M 15 9.5  C 15 9.646718146718147  14.918265813788203 9.773058773058773  14.754797441364605 9.879021879021877  L 0.5970149253731343 18.9021879021879  C 0.43354655294953803 19.008151008151007  0.2931769722814499 19.020377520377522  0.17590618336886996 18.938867438867437  C 0.05863539445628998 18.85735735735736  0 18.710639210639208  0 18.498712998713  L 0 0.501287001287001  C 0 0.2893607893607869  0.05863539445628998 0.14264264264264048  0.17590618336886996 0.061132561132561714  C 0.2931769722814499 -0.020377520377523384  0.43354655294953803 -0.008151008151007666  0.5970149253731343 0.09781209781209832  L 14.754797441364605 9.12097812097812  C 14.918265813788203 9.226941226941227  15 9.353281853281853  15 9.5  Z " fill-rule="nonzero" fill="#ffffff" stroke="none" transform="matrix(1 0 0 1 1245 366 )" />
    <path d="M 15 9.5  C 15 9.646718146718147  14.918265813788203 9.773058773058773  14.754797441364605 9.879021879021877  L 0.5970149253731343 18.9021879021879  C 0.43354655294953803 19.008151008151007  0.2931769722814499 19.020377520377522  0.17590618336886996 18.938867438867437  C 0.05863539445628998 18.85735735735736  0 18.710639210639208  0 18.498712998713  L 0 0.501287001287001  C 0 0.2893607893607869  0.05863539445628998 0.14264264264264048  0.17590618336886996 0.061132561132561714  C 0.2931769722814499 -0.020377520377523384  0.43354655294953803 -0.008151008151007666  0.5970149253731343 0.09781209781209832  L 14.754797441364605 9.12097812097812  C 14.918265813788203 9.226941226941227  15 9.353281853281853  15 9.5  Z " stroke-width="2" stroke="#7f7f7f" fill="none" transform="matrix(1 0 0 1 1245 366 )" mask="url(#clip18)" />
  </g>
</svg>