<?xml version="1.0" encoding="utf-8"?>
<svg version="1.1" xmlns:xlink="http://www.w3.org/1999/xlink" width="22px" height="22px" xmlns="http://www.w3.org/2000/svg">
  <g transform="matrix(1 0 0 1 -22 -101 )">
    <path d="M 7.859375 8.37890625  C 7.953125 8.46484375  8 8.574652777777777  8 8.708333333333334  L 8 16.958333333333336  C 8 17.09201388888889  7.953125 17.201822916666664  7.859375 17.287760416666664  C 7.765625 17.373697916666664  7.645833333333335 17.416666666666664  7.499999999999999 17.416666666666664  L 6.5 17.416666666666664  C 6.354166666666668 17.416666666666664  6.234375000000002 17.373697916666664  6.140625 17.287760416666664  C 6.046875 17.201822916666664  6 17.09201388888889  6 16.958333333333336  L 6 8.708333333333334  C 6 8.574652777777777  6.046875 8.46484375  6.140625 8.37890625  C 6.234375000000002 8.29296875  6.354166666666668 8.25  6.5 8.25  L 7.499999999999999 8.25  C 7.645833333333335 8.25  7.765625 8.29296875  7.859375 8.37890625  Z M 11.859375 8.37890625  C 11.953125 8.46484375  12 8.574652777777777  12 8.708333333333334  L 12 16.958333333333336  C 12 17.09201388888889  11.953125 17.201822916666664  11.859375 17.287760416666664  C 11.765625 17.373697916666664  11.645833333333334 17.416666666666664  11.5 17.416666666666664  L 10.5 17.416666666666664  C 10.354166666666668 17.416666666666664  10.234375 17.373697916666664  10.140625 17.287760416666664  C 10.046875 17.201822916666664  10 17.09201388888889  10 16.958333333333336  L 10 8.708333333333334  C 10 8.574652777777777  10.046875 8.46484375  10.140625 8.37890625  C 10.234375 8.29296875  10.354166666666668 8.25  10.5 8.25  L 11.5 8.25  C 11.645833333333334 8.25  11.765625 8.29296875  11.859375 8.37890625  Z M 15.859374999999998 8.37890625  C 15.953125 8.46484375  16 8.574652777777777  16 8.708333333333334  L 16 16.958333333333336  C 16 17.09201388888889  15.953125 17.201822916666664  15.859374999999998 17.287760416666664  C 15.765625000000002 17.373697916666664  15.645833333333334 17.416666666666664  15.5 17.416666666666664  L 14.5 17.416666666666664  C 14.354166666666666 17.416666666666664  14.234375 17.373697916666664  14.140624999999998 17.287760416666664  C 14.046875000000002 17.201822916666664  14 17.09201388888889  14 16.958333333333336  L 14 8.708333333333334  C 14 8.574652777777777  14.046875000000002 8.46484375  14.140624999999998 8.37890625  C 14.234375 8.29296875  14.354166666666666 8.25  14.5 8.25  L 15.5 8.25  C 15.645833333333334 8.25  15.765625000000002 8.29296875  15.859374999999998 8.37890625  Z M 17.890625 19.658203125  C 17.963541666666668 19.481553819444446  18 19.288194444444446  18 19.078125  L 18 5.5  L 4 5.5  L 4 19.078125  C 4 19.288194444444446  4.036458333333334 19.481553819444446  4.109375 19.658203125  C 4.182291666666667 19.834852430555554  4.2578125 19.963758680555554  4.3359375 20.044921875  C 4.4140625 20.126085069444446  4.46875 20.166666666666664  4.5 20  L 17.5 20  C 17.53125 20.166666666666664  17.5859375 20.126085069444446  17.6640625 20.044921875  C 17.7421875 19.963758680555554  17.817708333333336 19.834852430555554  17.890625 19.658203125  Z M 8.265625 1.9908854166666659  L 7.499999999999999 3.666666666666666  L 14.5 3.666666666666666  L 13.75 1.9908854166666659  C 13.677083333333336 1.9049479166666659  13.588541666666668 1.8524305555555545  13.484375 1.8333333333333341  L 8.53125 1.8333333333333341  C 8.427083333333334 1.8524305555555545  8.338541666666668 1.9049479166666659  8.265625 1.9908854166666659  Z M 21.859375 3.795572916666666  C 21.953125 3.881510416666666  22 3.991319444444443  22 4.125  L 22 5.041666666666666  C 22 5.1753472222222205  21.953125 5.28515625  21.859375 5.37109375  C 21.765625 5.45703125  21.645833333333336 5.5  21.5 5.5  L 20 5.5  L 20 19.078125  C 20 19.87065972222222  19.755208333333336 20.555772569444446  19.265625 21.133463541666664  C 18.776041666666668 21.71115451388889  18.1875 22  17.5 22  L 4.5 22  C 3.8125000000000004 22  3.223958333333334 21.720703125  2.734375 21.162109375  C 2.244791666666667 20.603515625  2 19.92795138888889  2 19.135416666666664  L 2 5.5  L 0.5 5.5  C 0.35416666666666663 5.5  0.23437500000000003 5.45703125  0.140625 5.37109375  C 0.046875 5.28515625  0 5.1753472222222205  0 5.041666666666666  L 0 4.125  C 0 3.991319444444443  0.046875 3.881510416666666  0.140625 3.795572916666666  C 0.23437500000000003 3.709635416666666  0.35416666666666663 3.666666666666666  0.5 3.666666666666666  L 5.328125 3.666666666666666  L 6.421875000000001 1.2747395833333341  C 6.578125000000002 0.9214409722222203  6.859375000000001 0.6206597222222203  7.265625 0.37239583333333415  C 7.671875000000001 0.12413194444444309  8.083333333333334 0  8.5 0  L 13.5 0  C 13.91666666666667 0  14.328125 0.12413194444444309  14.734375000000002 0.37239583333333415  C 15.140625 0.6206597222222203  15.421875000000002 0.9214409722222203  15.578125 1.2747395833333341  L 16.671875 3.666666666666666  L 21.5 3.666666666666666  C 21.645833333333336 3.666666666666666  21.765625 3.709635416666666  21.859375 3.795572916666666  Z " fill-rule="nonzero" fill="#000000" stroke="none" transform="matrix(1 0 0 1 22 101 )" />
  </g>
</svg>