<?xml version="1.0" encoding="utf-8"?>
<svg version="1.1" xmlns:xlink="http://www.w3.org/1999/xlink" width="22px" height="22px" xmlns="http://www.w3.org/2000/svg">
  <g transform="matrix(1 0 0 1 -21 -65 )">
    <path d="M 15.714285714285715 4.714285714285714  L 20.82142857142857 4.714285714285714  C 21.148809523809526 4.714285714285714  21.427083333333336 4.828869047619047  21.65625 5.058035714285714  C 21.885416666666668 5.287202380952378  22 5.56547619047619  22 5.892857142857144  L 22 20.82142857142857  C 22 21.148809523809526  21.885416666666668 21.427083333333332  21.65625 21.65625  C 21.427083333333336 21.885416666666668  21.148809523809526 22  20.82142857142857 22  L 9.035714285714285 22  C 8.708333333333334 22  8.430059523809524 21.885416666666668  8.200892857142858 21.65625  C 7.971726190476192 21.427083333333332  7.857142857142858 21.148809523809526  7.857142857142858 20.82142857142857  L 7.857142857142858 17.285714285714285  L 1.1785714285714286 17.285714285714285  C 0.8511904761904764 17.285714285714285  0.5729166666666667 17.171130952380953  0.34375 16.941964285714285  C 0.11458333333333333 16.71279761904762  0 16.43452380952381  0 16.107142857142858  L 0 7.857142857142856  C 0 7.529761904761905  0.0818452380952381 7.169642857142856  0.2455357142857143 6.776785714285714  C 0.40922619047619047 6.383928571428571  0.605654761904762 6.072916666666666  0.8348214285714285 5.84375  L 5.84375 0.8348214285714293  C 6.072916666666667 0.605654761904761  6.383928571428572 0.40922619047619024  6.776785714285714 0.24553571428571463  C 7.169642857142858 0.08184523809523903  7.529761904761905 0  7.857142857142858 0  L 12.964285714285715 0  C 13.291666666666668 0  13.569940476190478 0.11458333333333415  13.799107142857144 0.34375  C 14.02827380952381 0.5729166666666659  14.142857142857144 0.8511904761904756  14.142857142857144 1.1785714285714293  L 14.142857142857144 5.205357142857144  C 14.699404761904763 4.87797619047619  15.223214285714285 4.714285714285714  15.714285714285715 4.714285714285714  Z M 14.142857142857144 11  L 14.142857142857144 7.329241071428571  L 10.472098214285715 11  L 14.142857142857144 11  Z M 6.285714285714286 6.285714285714286  L 6.285714285714286 2.614955357142856  L 2.614955357142857 6.285714285714286  L 6.285714285714286 6.285714285714286  Z M 8.102678571428571 11.491071428571429  C 8.266369047619047 11.098214285714285  8.46279761904762 10.78720238095238  8.691964285714285 10.558035714285715  L 12.571428571428571 6.678571428571429  L 12.571428571428571 1.5714285714285707  L 7.857142857142858 1.5714285714285707  L 7.857142857142858 6.678571428571429  C 7.857142857142858 7.005952380952378  7.742559523809525 7.28422619047619  7.513392857142858 7.513392857142856  C 7.284226190476192 7.742559523809522  7.005952380952381 7.857142857142856  6.678571428571428 7.857142857142856  L 1.5714285714285714 7.857142857142856  L 1.5714285714285714 15.714285714285715  L 7.857142857142858 15.714285714285715  L 7.857142857142858 12.571428571428571  C 7.857142857142858 12.24404761904762  7.938988095238097 11.883928571428571  8.102678571428571 11.491071428571429  Z M 9.428571428571429 20  L 20 20  L 20 6.285714285714286  L 15.714285714285715 6.285714285714286  L 15.714285714285715 11.392857142857142  C 15.714285714285715 11.720238095238095  15.599702380952383 11.998511904761902  15.370535714285715 12.227678571428571  C 15.14136904761905 12.456845238095239  14.863095238095239 12.571428571428571  14.535714285714285 12.571428571428571  L 9.428571428571429 12.571428571428571  L 9.428571428571429 20  Z " fill-rule="nonzero" fill="#000000" stroke="none" transform="matrix(1 0 0 1 21 65 )" />
  </g>
</svg>