<?xml version="1.0" encoding="utf-8"?>
<svg version="1.1" xmlns:xlink="http://www.w3.org/1999/xlink" width="22px" height="22px" xmlns="http://www.w3.org/2000/svg">
  <g transform="matrix(1 0 0 1 -21 -28 )">
    <path d="M 3.7174917491749175 20.14125412541254  L 5.271287128712871 20.14125412541254  L 6.592739273927393 18.81980198019802  L 3.18019801980198 15.407260726072607  L 1.8587458745874588 16.72871287128713  L 1.8587458745874588 18.28250825082508  L 3.7174917491749175 18.28250825082508  L 3.7174917491749175 20.14125412541254  Z M 12.764356435643563 6.912211221122112  C 12.832123212321234 6.844444444444445  12.866006600660066 6.762156215621561  12.866006600660066 6.665346534653466  C 12.866006600660066 6.452365236523653  12.75951595159516 6.345874587458745  12.546534653465345 6.345874587458745  C 12.44972497249725 6.345874587458745  12.36743674367437 6.379757975797578  12.2996699669967 6.447524752475248  L 4.429042904290429 14.318151815181519  C 4.361276127612761 14.385918591859184  4.327392739273927 14.468206820682065  4.327392739273927 14.565016501650165  C 4.327392739273927 14.777997799779975  4.433883388338835 14.884488448844886  4.646864686468647 14.884488448844886  C 4.7436743674367445 14.884488448844886  4.825962596259626 14.85060506050605  4.893729372937294 14.782838283828383  L 12.764356435643563 6.912211221122112  Z M 0 15.95907590759076  L 12.081848184818481 3.877227722772278  L 18.12277227722772 9.918151815181519  L 6.040924092409241 22  L 0 22  L 0 15.95907590759076  Z M 21.462706270627063 3.9498349834983495  C 21.82090209020902 4.327392739273928  22 4.767876787678768  22 5.271287128712871  C 22 5.784378437843785  21.82090209020902 6.220022002200218  21.462706270627063 6.578217821782179  L 19.052145214521452 8.988778877887789  L 13.011221122112211 2.947854785478549  L 15.421782178217821 0.5518151815181507  C 15.77029702970297 0.18393839383938193  16.205940594059406 0  16.72871287128713 0  C 17.241804180418043 0  17.682288228822884 0.18393839383938193  18.05016501650165 0.5518151815181507  L 21.462706270627063 3.9498349834983495  Z " fill-rule="nonzero" fill="#555555" stroke="none" transform="matrix(1 0 0 1 21 28 )" />
  </g>
</svg>