<?xml version="1.0" encoding="utf-8"?>
<svg version="1.1" xmlns:xlink="http://www.w3.org/1999/xlink" width="28px" height="22px" xmlns="http://www.w3.org/2000/svg">
  <g transform="matrix(1 0 0 1 -1318 -300 )">
    <path d="M 20.7890625 17.235243055555554  C 22.877604166666668 15.688368055555554  24.614583333333336 13.609953703703699  26 11  C 24.416666666666668 7.99537037037037  22.432291666666668 5.748263888888888  20.046875 4.2586805555555545  C 20.682291666666668 5.582754629629627  21 7.015046296296296  21 8.555555555555554  C 21 10.910879629629626  20.315104166666668 12.925636574074073  18.9453125 14.59982638888889  C 17.575520833333336 16.2740162037037  15.927083333333334 17.11111111111111  14 17.11111111111111  C 12.072916666666668 17.11111111111111  10.424479166666668 16.2740162037037  9.0546875 14.59982638888889  C 7.684895833333335 12.925636574074073  7 10.910879629629626  7 8.555555555555554  C 7 7.015046296296296  7.317708333333334 5.582754629629627  7.953124999999999 4.2586805555555545  C 5.567708333333334 5.748263888888888  3.583333333333334 7.99537037037037  2 11  C 3.385416666666667 13.609953703703699  5.122395833333334 15.688368055555554  7.2109375 17.235243055555554  C 9.299479166666668 18.782118055555554  11.5625 19.555555555555554  14 19.555555555555554  C 16.4375 19.555555555555554  18.700520833333336 18.782118055555554  20.7890625 17.235243055555554  Z M 14.53125 4.315972222222223  C 14.677083333333336 4.137731481481482  14.75 3.9212962962962954  14.75 3.666666666666666  C 14.75 3.4120370370370363  14.677083333333336 3.19560185185185  14.53125 3.0173611111111116  C 14.38541666666667 2.839120370370368  14.208333333333332 2.7499999999999973  14 2.75  C 12.697916666666668 2.7499999999999973  11.580729166666668 3.3197337962962954  10.6484375 4.459201388888888  C 9.716145833333334 5.598668981481482  9.25 6.96412037037037  9.25 8.555555555555554  C 9.25 8.810185185185183  9.322916666666668 9.02662037037037  9.46875 9.20486111111111  C 9.614583333333334 9.38310185185185  9.791666666666668 9.472222222222223  10 9.472222222222223  C 10.208333333333334 9.472222222222223  10.385416666666668 9.38310185185185  10.53125 9.20486111111111  C 10.677083333333334 9.02662037037037  10.75 8.810185185185183  10.75 8.555555555555554  C 10.75 7.460648148148148  11.067708333333334 6.5248842592592595  11.703125 5.748263888888888  C 12.338541666666668 4.971643518518518  13.104166666666668 4.583333333333332  14 4.583333333333334  C 14.208333333333332 4.583333333333332  14.38541666666667 4.494212962962961  14.53125 4.315972222222223  Z M 27.6875 9.682291666666666  C 27.895833333333336 10.127893518518519  28 10.567129629629626  28 11  C 28 11.432870370370368  27.895833333333336 11.872106481481481  27.6875 12.317708333333332  C 26.22916666666667 15.245949074074073  24.26822916666667 17.591724537037038  21.8046875 19.35503472222222  C 19.341145833333336 21.11834490740741  16.739583333333336 22  14 22  C 11.260416666666668 22  8.658854166666668 21.115162037037038  6.1953125 19.34548611111111  C 3.7317708333333335 17.575810185185183  1.7708333333333337 15.233217592592592  0.3125 12.317708333333332  C 0.10416666666666666 11.872106481481481  0 11.432870370370368  0 11  C 0 10.567129629629626  0.10416666666666666 10.127893518518519  0.3125 9.682291666666666  C 1.7708333333333337 6.7667824074074066  3.7317708333333335 4.424189814814813  6.1953125 2.6545138888888884  C 8.658854166666668 0.8848379629629612  11.260416666666668 0  14 0  C 16.739583333333336 0  19.341145833333336 0.8848379629629612  21.8046875 2.6545138888888884  C 24.26822916666667 4.424189814814813  26.22916666666667 6.7667824074074066  27.6875 9.682291666666666  Z " fill-rule="nonzero" fill="#7f7f7f" stroke="none" transform="matrix(1 0 0 1 1318 300 )" />
  </g>
</svg>