<?xml version="1.0" encoding="utf-8"?>
<svg version="1.1" xmlns:xlink="http://www.w3.org/1999/xlink" width="25px" height="25px" xmlns="http://www.w3.org/2000/svg">
  <g transform="matrix(1 0 0 1 -1248 -297 )">
    <path d="M 24.365234375 1.123046875  C 24.788411458333336 1.3075086805555554  25 1.6276041666666656  25 2.0833333333333344  L 25 9.375  C 25 9.657118055555555  24.896918402777775 9.901258680555555  24.690755208333336 10.107421875  C 24.484592013888893 10.313585069444445  24.240451388888893 10.416666666666666  23.958333333333336 10.416666666666666  L 16.666666666666664 10.416666666666666  C 16.2109375 10.416666666666666  15.89084201388889 10.199652777777779  15.706380208333334 9.765625  C 15.521918402777779 9.342447916666666  15.597873263888893 8.968098958333334  15.934244791666666 8.642578125  L 18.180338541666664 6.396484375  C 16.574435763888893 4.909939236111108  14.680989583333334 4.166666666666666  12.5 4.166666666666666  C 11.371527777777779 4.166666666666666  10.294596354166668 4.386393229166666  9.269205729166668 4.825846354166666  C 8.243815104166668 5.265299479166666  7.356770833333333 5.859375  6.608072916666667 6.608072916666666  C 5.859375 7.356770833333334  5.265299479166666 8.243815104166666  4.825846354166666 9.269205729166666  C 4.386393229166666 10.294596354166666  4.166666666666666 11.371527777777777  4.166666666666666 12.5  C 4.166666666666666 13.628472222222221  4.386393229166666 14.705403645833332  4.825846354166666 15.730794270833332  C 5.265299479166666 16.756184895833332  5.859375 17.643229166666668  6.608072916666667 18.391927083333332  C 7.356770833333333 19.140625  8.243815104166668 19.734700520833336  9.269205729166668 20.174153645833336  C 10.294596354166668 20.613606770833336  11.371527777777779 20.833333333333336  12.5 20.833333333333336  C 13.79123263888889 20.833333333333336  15.01193576388889 20.55121527777778  16.162109375 19.986979166666664  C 17.312282986111114 19.422743055555554  18.283420138888893 18.62521701388889  19.075520833333336 17.594401041666668  C 19.151475694444446 17.48589409722222  19.276258680555557 17.420789930555554  19.449869791666664 17.399088541666668  C 19.612630208333336 17.399088541666668  19.748263888888893 17.447916666666668  19.856770833333336 17.545572916666668  L 22.086588541666664 19.791666666666664  C 22.184244791666664 19.87847222222222  22.23578559027778 19.98969184027778  22.2412109375 20.125325520833336  C 22.246636284722225 20.260959201388886  22.205946180555557 20.383029513888886  22.119140625 20.491536458333336  C 20.936414930555557 21.923828125  19.504123263888893 23.033311631944446  17.822265625 23.819986979166664  C 16.140407986111114 24.606662326388886  14.366319444444445 25  12.5 25  C 10.807291666666668 25  9.190538194444446 24.669053819444446  7.649739583333333 24.007161458333336  C 6.108940972222223 23.34526909722222  4.779730902777779 22.45551215277778  3.662109375 21.337890625  C 2.5444878472222223 20.22026909722222  1.654730902777778 18.89105902777778  0.9928385416666667 17.350260416666668  C 0.33094618055555564 15.809461805555552  0 14.192708333333332  0 12.5  C 0 10.807291666666666  0.33094618055555564 9.190538194444445  0.9928385416666667 7.649739583333334  C 1.654730902777778 6.108940972222221  2.5444878472222223 4.779730902777776  3.662109375 3.662109375  C 4.779730902777779 2.544487847222221  6.108940972222223 1.6547309027777763  7.649739583333333 0.9928385416666657  C 9.190538194444446 0.33094618055555525  10.807291666666668 0  12.5 0  C 14.095052083333334 0  15.638563368055557 0.30110677083333426  17.130533854166664 0.9033203125  C 18.62250434027778 1.5055338541666656  19.949001736111114 2.354600694444442  21.110026041666664 3.4505208333333344  L 23.225911458333336 1.3509114583333344  C 23.540581597222225 1.0145399305555554  23.92035590277778 0.938585069444442  24.365234375 1.123046875  Z " fill-rule="nonzero" fill="#7f7f7f" stroke="none" transform="matrix(1 0 0 1 1248 297 )" />
  </g>
</svg>