<?xml version="1.0" encoding="utf-8"?>
<svg version="1.1" xmlns:xlink="http://www.w3.org/1999/xlink" width="20px" height="23px" xmlns="http://www.w3.org/2000/svg">
  <defs>
    <mask fill="white" id="clip32">
      <path d="M 15.769230769230768 12.077566964285715  C 15.769230769230768 12.188802083333332  15.733173076923077 12.287202380952381  15.661057692307692 12.372767857142858  L 9.507211538461538 18.94419642857143  C 9.427083333333334 19.021205357142858  9.334935897435898 19.05970982142857  9.230769230769232 19.05970982142857  C 9.126602564102566 19.05970982142857  9.03445512820513 19.021205357142858  8.954326923076923 18.94419642857143  L 5.492788461538462 15.247767857142858  C 5.420673076923077 15.162202380952381  5.384615384615384 15.06380208333333  5.384615384615384 14.952566964285715  C 5.384615384615384 14.841331845238097  5.420673076923077 14.747209821428571  5.492788461538462 14.670200892857142  L 6.045673076923077 14.079799107142858  C 6.117788461538462 14.002790178571429  6.205929487179488 13.964285714285715  6.310096153846154 13.964285714285715  C 6.414262820512821 13.964285714285715  6.506410256410256 14.002790178571429  6.586538461538462 14.079799107142858  L 9.230769230769232 16.90345982142857  L 14.567307692307692 11.204799107142858  C 14.647435897435898 11.127790178571429  14.739583333333336 11.089285714285714  14.84375 11.089285714285714  C 14.947916666666668 11.089285714285714  15.036057692307692 11.127790178571429  15.108173076923077 11.204799107142858  L 15.661057692307692 11.795200892857142  C 15.733173076923077 11.872209821428571  15.769230769230768 11.966331845238093  15.769230769230768 12.077566964285715  Z M 1.5384615384615385 8.214285714285714  L 1.5384615384615385 21  L 18.461538461538463 21  L 18.461538461538463 8.214285714285714  L 1.5384615384615385 8.214285714285714  Z M 6.045673076923077 6.045200892857142  C 6.117788461538462 5.9681919642857135  6.153846153846154 5.869791666666665  6.153846153846154 5.75  L 6.153846153846154 2.053571428571429  C 6.153846153846154 1.9337797619047588  6.117788461538462 1.835379464285713  6.045673076923077 1.758370535714287  C 5.9735576923076925 1.6813616071428579  5.881410256410256 1.6428571428571421  5.769230769230768 1.6428571428571421  L 5 1.6428571428571421  C 4.887820512820514 1.6428571428571421  4.7956730769230775 1.6813616071428579  4.7235576923076925 1.758370535714287  C 4.6514423076923075 1.835379464285713  4.615384615384616 1.9337797619047588  4.615384615384616 2.053571428571429  L 4.615384615384616 5.75  C 4.615384615384616 5.869791666666665  4.6514423076923075 5.9681919642857135  4.7235576923076925 6.045200892857142  C 4.7956730769230775 6.122209821428571  4.887820512820514 6.1607142857142865  5 6.1607142857142865  L 5.769230769230768 6.1607142857142865  C 5.881410256410256 6.1607142857142865  5.9735576923076925 6.122209821428571  6.045673076923077 6.045200892857142  Z M 15.276442307692308 6.045200892857142  C 15.348557692307692 5.9681919642857135  15.384615384615385 5.869791666666665  15.384615384615385 5.75  L 15.384615384615385 2.053571428571429  C 15.384615384615385 1.9337797619047588  15.348557692307692 1.835379464285713  15.276442307692308 1.758370535714287  C 15.204326923076923 1.6813616071428579  15.112179487179489 1.6428571428571421  15 1.6428571428571421  L 14.230769230769232 1.6428571428571421  C 14.118589743589745 1.6428571428571421  14.026442307692308 1.6813616071428579  13.954326923076923 1.758370535714287  C 13.882211538461537 1.835379464285713  13.846153846153847 1.9337797619047588  13.846153846153847 2.053571428571429  L 13.846153846153847 5.75  C 13.846153846153847 5.869791666666665  13.882211538461537 5.9681919642857135  13.954326923076923 6.045200892857142  C 14.026442307692308 6.122209821428571  14.118589743589745 6.1607142857142865  14.230769230769232 6.1607142857142865  L 15 6.1607142857142865  C 15.112179487179489 6.1607142857142865  15.204326923076923 6.122209821428571  15.276442307692308 6.045200892857142  Z M 19.54326923076923 3.7734375  C 19.847756410256412 4.098586309523809  20 4.483630952380952  20 4.928571428571429  L 20 21.357142857142858  C 20 21.802083333333336  19.847756410256412 22.187127976190478  19.54326923076923 22.51227678571429  C 19.23878205128205 22.837425595238095  18.87820512820513 23  18.461538461538463 23  L 1.5384615384615385 23  C 1.121794871794872 23  0.7612179487179488 22.837425595238095  0.4567307692307692 22.51227678571429  C 0.15224358974358973 22.187127976190478  0 21.802083333333336  0 21.357142857142858  L 0 4.928571428571429  C 0 4.483630952380952  0.15224358974358973 4.098586309523809  0.4567307692307692 3.7734375  C 0.7612179487179488 3.448288690476188  1.121794871794872 3.285714285714287  1.5384615384615385 3.285714285714287  L 3.076923076923077 3.285714285714287  L 3.076923076923077 2.053571428571429  C 3.076923076923077 1.488839285714287  3.265224358974359 1.005394345238094  3.641826923076923 0.6032366071428579  C 4.018429487179488 0.2010788690476193  4.471153846153847 0  5 0  L 5.769230769230768 0  C 6.298076923076923 0  6.750801282051283 0.2010788690476193  7.127403846153846 0.6032366071428579  C 7.504006410256411 1.005394345238094  7.6923076923076925 1.488839285714287  7.6923076923076925 2.053571428571429  L 7.6923076923076925 3.285714285714287  L 12.307692307692308 3.285714285714287  L 12.307692307692308 2.053571428571429  C 12.307692307692308 1.488839285714287  12.495993589743591 1.005394345238094  12.872596153846153 0.6032366071428579  C 13.24919871794872 0.2010788690476193  13.701923076923077 0  14.230769230769232 0  L 15 0  C 15.528846153846153 0  15.981570512820513 0.2010788690476193  16.358173076923077 0.6032366071428579  C 16.734775641025642 1.005394345238094  16.923076923076923 1.488839285714287  16.923076923076923 2.053571428571429  L 16.923076923076923 3.285714285714287  L 18.461538461538463 3.285714285714287  C 18.87820512820513 3.285714285714287  19.23878205128205 3.448288690476188  19.54326923076923 3.7734375  Z " fill-rule="evenodd" />
    </mask>
  </defs>
  <g transform="matrix(1 0 0 1 -1046 -353 )">
    <path d="M 15.769230769230768 12.077566964285715  C 15.769230769230768 12.188802083333332  15.733173076923077 12.287202380952381  15.661057692307692 12.372767857142858  L 9.507211538461538 18.94419642857143  C 9.427083333333334 19.021205357142858  9.334935897435898 19.05970982142857  9.230769230769232 19.05970982142857  C 9.126602564102566 19.05970982142857  9.03445512820513 19.021205357142858  8.954326923076923 18.94419642857143  L 5.492788461538462 15.247767857142858  C 5.420673076923077 15.162202380952381  5.384615384615384 15.06380208333333  5.384615384615384 14.952566964285715  C 5.384615384615384 14.841331845238097  5.420673076923077 14.747209821428571  5.492788461538462 14.670200892857142  L 6.045673076923077 14.079799107142858  C 6.117788461538462 14.002790178571429  6.205929487179488 13.964285714285715  6.310096153846154 13.964285714285715  C 6.414262820512821 13.964285714285715  6.506410256410256 14.002790178571429  6.586538461538462 14.079799107142858  L 9.230769230769232 16.90345982142857  L 14.567307692307692 11.204799107142858  C 14.647435897435898 11.127790178571429  14.739583333333336 11.089285714285714  14.84375 11.089285714285714  C 14.947916666666668 11.089285714285714  15.036057692307692 11.127790178571429  15.108173076923077 11.204799107142858  L 15.661057692307692 11.795200892857142  C 15.733173076923077 11.872209821428571  15.769230769230768 11.966331845238093  15.769230769230768 12.077566964285715  Z M 1.5384615384615385 8.214285714285714  L 1.5384615384615385 21  L 18.461538461538463 21  L 18.461538461538463 8.214285714285714  L 1.5384615384615385 8.214285714285714  Z M 6.045673076923077 6.045200892857142  C 6.117788461538462 5.9681919642857135  6.153846153846154 5.869791666666665  6.153846153846154 5.75  L 6.153846153846154 2.053571428571429  C 6.153846153846154 1.9337797619047588  6.117788461538462 1.835379464285713  6.045673076923077 1.758370535714287  C 5.9735576923076925 1.6813616071428579  5.881410256410256 1.6428571428571421  5.769230769230768 1.6428571428571421  L 5 1.6428571428571421  C 4.887820512820514 1.6428571428571421  4.7956730769230775 1.6813616071428579  4.7235576923076925 1.758370535714287  C 4.6514423076923075 1.835379464285713  4.615384615384616 1.9337797619047588  4.615384615384616 2.053571428571429  L 4.615384615384616 5.75  C 4.615384615384616 5.869791666666665  4.6514423076923075 5.9681919642857135  4.7235576923076925 6.045200892857142  C 4.7956730769230775 6.122209821428571  4.887820512820514 6.1607142857142865  5 6.1607142857142865  L 5.769230769230768 6.1607142857142865  C 5.881410256410256 6.1607142857142865  5.9735576923076925 6.122209821428571  6.045673076923077 6.045200892857142  Z M 15.276442307692308 6.045200892857142  C 15.348557692307692 5.9681919642857135  15.384615384615385 5.869791666666665  15.384615384615385 5.75  L 15.384615384615385 2.053571428571429  C 15.384615384615385 1.9337797619047588  15.348557692307692 1.835379464285713  15.276442307692308 1.758370535714287  C 15.204326923076923 1.6813616071428579  15.112179487179489 1.6428571428571421  15 1.6428571428571421  L 14.230769230769232 1.6428571428571421  C 14.118589743589745 1.6428571428571421  14.026442307692308 1.6813616071428579  13.954326923076923 1.758370535714287  C 13.882211538461537 1.835379464285713  13.846153846153847 1.9337797619047588  13.846153846153847 2.053571428571429  L 13.846153846153847 5.75  C 13.846153846153847 5.869791666666665  13.882211538461537 5.9681919642857135  13.954326923076923 6.045200892857142  C 14.026442307692308 6.122209821428571  14.118589743589745 6.1607142857142865  14.230769230769232 6.1607142857142865  L 15 6.1607142857142865  C 15.112179487179489 6.1607142857142865  15.204326923076923 6.122209821428571  15.276442307692308 6.045200892857142  Z M 19.54326923076923 3.7734375  C 19.847756410256412 4.098586309523809  20 4.483630952380952  20 4.928571428571429  L 20 21.357142857142858  C 20 21.802083333333336  19.847756410256412 22.187127976190478  19.54326923076923 22.51227678571429  C 19.23878205128205 22.837425595238095  18.87820512820513 23  18.461538461538463 23  L 1.5384615384615385 23  C 1.121794871794872 23  0.7612179487179488 22.837425595238095  0.4567307692307692 22.51227678571429  C 0.15224358974358973 22.187127976190478  0 21.802083333333336  0 21.357142857142858  L 0 4.928571428571429  C 0 4.483630952380952  0.15224358974358973 4.098586309523809  0.4567307692307692 3.7734375  C 0.7612179487179488 3.448288690476188  1.121794871794872 3.285714285714287  1.5384615384615385 3.285714285714287  L 3.076923076923077 3.285714285714287  L 3.076923076923077 2.053571428571429  C 3.076923076923077 1.488839285714287  3.265224358974359 1.005394345238094  3.641826923076923 0.6032366071428579  C 4.018429487179488 0.2010788690476193  4.471153846153847 0  5 0  L 5.769230769230768 0  C 6.298076923076923 0  6.750801282051283 0.2010788690476193  7.127403846153846 0.6032366071428579  C 7.504006410256411 1.005394345238094  7.6923076923076925 1.488839285714287  7.6923076923076925 2.053571428571429  L 7.6923076923076925 3.285714285714287  L 12.307692307692308 3.285714285714287  L 12.307692307692308 2.053571428571429  C 12.307692307692308 1.488839285714287  12.495993589743591 1.005394345238094  12.872596153846153 0.6032366071428579  C 13.24919871794872 0.2010788690476193  13.701923076923077 0  14.230769230769232 0  L 15 0  C 15.528846153846153 0  15.981570512820513 0.2010788690476193  16.358173076923077 0.6032366071428579  C 16.734775641025642 1.005394345238094  16.923076923076923 1.488839285714287  16.923076923076923 2.053571428571429  L 16.923076923076923 3.285714285714287  L 18.461538461538463 3.285714285714287  C 18.87820512820513 3.285714285714287  19.23878205128205 3.448288690476188  19.54326923076923 3.7734375  Z " fill-rule="nonzero" fill="#ffffff" stroke="none" transform="matrix(1 0 0 1 1046 353 )" />
    <path d="M 15.769230769230768 12.077566964285715  C 15.769230769230768 12.188802083333332  15.733173076923077 12.287202380952381  15.661057692307692 12.372767857142858  L 9.507211538461538 18.94419642857143  C 9.427083333333334 19.021205357142858  9.334935897435898 19.05970982142857  9.230769230769232 19.05970982142857  C 9.126602564102566 19.05970982142857  9.03445512820513 19.021205357142858  8.954326923076923 18.94419642857143  L 5.492788461538462 15.247767857142858  C 5.420673076923077 15.162202380952381  5.384615384615384 15.06380208333333  5.384615384615384 14.952566964285715  C 5.384615384615384 14.841331845238097  5.420673076923077 14.747209821428571  5.492788461538462 14.670200892857142  L 6.045673076923077 14.079799107142858  C 6.117788461538462 14.002790178571429  6.205929487179488 13.964285714285715  6.310096153846154 13.964285714285715  C 6.414262820512821 13.964285714285715  6.506410256410256 14.002790178571429  6.586538461538462 14.079799107142858  L 9.230769230769232 16.90345982142857  L 14.567307692307692 11.204799107142858  C 14.647435897435898 11.127790178571429  14.739583333333336 11.089285714285714  14.84375 11.089285714285714  C 14.947916666666668 11.089285714285714  15.036057692307692 11.127790178571429  15.108173076923077 11.204799107142858  L 15.661057692307692 11.795200892857142  C 15.733173076923077 11.872209821428571  15.769230769230768 11.966331845238093  15.769230769230768 12.077566964285715  Z " stroke-width="2" stroke="#7f7f7f" fill="none" transform="matrix(1 0 0 1 1046 353 )" mask="url(#clip32)" />
    <path d="M 1.5384615384615385 8.214285714285714  L 1.5384615384615385 21  L 18.461538461538463 21  L 18.461538461538463 8.214285714285714  L 1.5384615384615385 8.214285714285714  Z " stroke-width="2" stroke="#7f7f7f" fill="none" transform="matrix(1 0 0 1 1046 353 )" mask="url(#clip32)" />
    <path d="M 6.045673076923077 6.045200892857142  C 6.117788461538462 5.9681919642857135  6.153846153846154 5.869791666666665  6.153846153846154 5.75  L 6.153846153846154 2.053571428571429  C 6.153846153846154 1.9337797619047588  6.117788461538462 1.835379464285713  6.045673076923077 1.758370535714287  C 5.9735576923076925 1.6813616071428579  5.881410256410256 1.6428571428571421  5.769230769230768 1.6428571428571421  L 5 1.6428571428571421  C 4.887820512820514 1.6428571428571421  4.7956730769230775 1.6813616071428579  4.7235576923076925 1.758370535714287  C 4.6514423076923075 1.835379464285713  4.615384615384616 1.9337797619047588  4.615384615384616 2.053571428571429  L 4.615384615384616 5.75  C 4.615384615384616 5.869791666666665  4.6514423076923075 5.9681919642857135  4.7235576923076925 6.045200892857142  C 4.7956730769230775 6.122209821428571  4.887820512820514 6.1607142857142865  5 6.1607142857142865  L 5.769230769230768 6.1607142857142865  C 5.881410256410256 6.1607142857142865  5.9735576923076925 6.122209821428571  6.045673076923077 6.045200892857142  Z " stroke-width="2" stroke="#7f7f7f" fill="none" transform="matrix(1 0 0 1 1046 353 )" mask="url(#clip32)" />
    <path d="M 15.276442307692308 6.045200892857142  C 15.348557692307692 5.9681919642857135  15.384615384615385 5.869791666666665  15.384615384615385 5.75  L 15.384615384615385 2.053571428571429  C 15.384615384615385 1.9337797619047588  15.348557692307692 1.835379464285713  15.276442307692308 1.758370535714287  C 15.204326923076923 1.6813616071428579  15.112179487179489 1.6428571428571421  15 1.6428571428571421  L 14.230769230769232 1.6428571428571421  C 14.118589743589745 1.6428571428571421  14.026442307692308 1.6813616071428579  13.954326923076923 1.758370535714287  C 13.882211538461537 1.835379464285713  13.846153846153847 1.9337797619047588  13.846153846153847 2.053571428571429  L 13.846153846153847 5.75  C 13.846153846153847 5.869791666666665  13.882211538461537 5.9681919642857135  13.954326923076923 6.045200892857142  C 14.026442307692308 6.122209821428571  14.118589743589745 6.1607142857142865  14.230769230769232 6.1607142857142865  L 15 6.1607142857142865  C 15.112179487179489 6.1607142857142865  15.204326923076923 6.122209821428571  15.276442307692308 6.045200892857142  Z " stroke-width="2" stroke="#7f7f7f" fill="none" transform="matrix(1 0 0 1 1046 353 )" mask="url(#clip32)" />
    <path d="M 19.54326923076923 3.7734375  C 19.847756410256412 4.098586309523809  20 4.483630952380952  20 4.928571428571429  L 20 21.357142857142858  C 20 21.802083333333336  19.847756410256412 22.187127976190478  19.54326923076923 22.51227678571429  C 19.23878205128205 22.837425595238095  18.87820512820513 23  18.461538461538463 23  L 1.5384615384615385 23  C 1.121794871794872 23  0.7612179487179488 22.837425595238095  0.4567307692307692 22.51227678571429  C 0.15224358974358973 22.187127976190478  0 21.802083333333336  0 21.357142857142858  L 0 4.928571428571429  C 0 4.483630952380952  0.15224358974358973 4.098586309523809  0.4567307692307692 3.7734375  C 0.7612179487179488 3.448288690476188  1.121794871794872 3.285714285714287  1.5384615384615385 3.285714285714287  L 3.076923076923077 3.285714285714287  L 3.076923076923077 2.053571428571429  C 3.076923076923077 1.488839285714287  3.265224358974359 1.005394345238094  3.641826923076923 0.6032366071428579  C 4.018429487179488 0.2010788690476193  4.471153846153847 0  5 0  L 5.769230769230768 0  C 6.298076923076923 0  6.750801282051283 0.2010788690476193  7.127403846153846 0.6032366071428579  C 7.504006410256411 1.005394345238094  7.6923076923076925 1.488839285714287  7.6923076923076925 2.053571428571429  L 7.6923076923076925 3.285714285714287  L 12.307692307692308 3.285714285714287  L 12.307692307692308 2.053571428571429  C 12.307692307692308 1.488839285714287  12.495993589743591 1.005394345238094  12.872596153846153 0.6032366071428579  C 13.24919871794872 0.2010788690476193  13.701923076923077 0  14.230769230769232 0  L 15 0  C 15.528846153846153 0  15.981570512820513 0.2010788690476193  16.358173076923077 0.6032366071428579  C 16.734775641025642 1.005394345238094  16.923076923076923 1.488839285714287  16.923076923076923 2.053571428571429  L 16.923076923076923 3.285714285714287  L 18.461538461538463 3.285714285714287  C 18.87820512820513 3.285714285714287  19.23878205128205 3.448288690476188  19.54326923076923 3.7734375  Z " stroke-width="2" stroke="#7f7f7f" fill="none" transform="matrix(1 0 0 1 1046 353 )" mask="url(#clip32)" />
  </g>
</svg>