<?xml version="1.0" encoding="utf-8"?>
<svg version="1.1" xmlns:xlink="http://www.w3.org/1999/xlink" width="20px" height="25px" xmlns="http://www.w3.org/2000/svg">
  <defs>
    <mask fill="white" id="clip49">
      <path d="M 20 12.5  C 20 12.693050193050192  19.891021085050937 12.85928785928786  19.673063255152808 12.998712998712996  L 0.7960199004975124 24.871299871299872  C 0.5780620705993841 25.01072501072501  0.3909026297085999 25.02681252681253  0.23454157782515994 24.919562419562418  C 0.07818052594171997 24.81231231231231  0 24.619262119262117  0 24.34041184041184  L 0 0.6595881595881592  C 0 0.3807378807378775  0.07818052594171997 0.18768768768768485  0.23454157782515994 0.0804375804375812  C 0.3909026297085999 -0.026812526812530768  0.5780620705993841 -0.010725010725010087  0.7960199004975124 0.12870012870012937  L 19.673063255152808 12.001287001287  C 19.891021085050937 12.14071214071214  20 12.306949806949808  20 12.5  Z " fill-rule="evenodd" />
    </mask>
  </defs>
  <g transform="matrix(1 0 0 1 -1295 -370 )">
    <path d="M 20 12.5  C 20 12.693050193050192  19.891021085050937 12.85928785928786  19.673063255152808 12.998712998712996  L 0.7960199004975124 24.871299871299872  C 0.5780620705993841 25.01072501072501  0.3909026297085999 25.02681252681253  0.23454157782515994 24.919562419562418  C 0.07818052594171997 24.81231231231231  0 24.619262119262117  0 24.34041184041184  L 0 0.6595881595881592  C 0 0.3807378807378775  0.07818052594171997 0.18768768768768485  0.23454157782515994 0.0804375804375812  C 0.3909026297085999 -0.026812526812530768  0.5780620705993841 -0.010725010725010087  0.7960199004975124 0.12870012870012937  L 19.673063255152808 12.001287001287  C 19.891021085050937 12.14071214071214  20 12.306949806949808  20 12.5  Z " fill-rule="nonzero" fill="#ffffff" stroke="none" transform="matrix(1 0 0 1 1295 370 )" />
    <path d="M 20 12.5  C 20 12.693050193050192  19.891021085050937 12.85928785928786  19.673063255152808 12.998712998712996  L 0.7960199004975124 24.871299871299872  C 0.5780620705993841 25.01072501072501  0.3909026297085999 25.02681252681253  0.23454157782515994 24.919562419562418  C 0.07818052594171997 24.81231231231231  0 24.619262119262117  0 24.34041184041184  L 0 0.6595881595881592  C 0 0.3807378807378775  0.07818052594171997 0.18768768768768485  0.23454157782515994 0.0804375804375812  C 0.3909026297085999 -0.026812526812530768  0.5780620705993841 -0.010725010725010087  0.7960199004975124 0.12870012870012937  L 19.673063255152808 12.001287001287  C 19.891021085050937 12.14071214071214  20 12.306949806949808  20 12.5  Z " stroke-width="2" stroke="#7f7f7f" fill="none" transform="matrix(1 0 0 1 1295 370 )" mask="url(#clip49)" />
  </g>
</svg>