<?xml version="1.0" encoding="utf-8"?>
<svg version="1.1" xmlns:xlink="http://www.w3.org/1999/xlink" width="21px" height="26px" xmlns="http://www.w3.org/2000/svg">
  <g transform="matrix(1 0 0 1 -889 -1212 )">
    <path d="M 15 5.571428571428572  L 19.875 5.571428571428572  C 20.1875 5.571428571428572  20.453125 5.706845238095236  20.671875 5.977678571428572  C 20.890625 6.2485119047619015  21 6.5773809523809526  21 6.964285714285715  L 21 24.607142857142858  C 21 24.99404761904762  20.890625 25.322916666666664  20.671875 25.59375  C 20.453125 25.864583333333336  20.1875 26  19.875 26  L 8.625 26  C 8.3125 26  8.046875 25.864583333333336  7.828125 25.59375  C 7.609375000000001 25.322916666666664  7.5 24.99404761904762  7.5 24.607142857142858  L 7.5 20.428571428571427  L 1.125 20.428571428571427  C 0.8125000000000002 20.428571428571427  0.546875 20.293154761904763  0.328125 20.022321428571427  C 0.109375 19.751488095238095  0 19.422619047619047  0 19.03571428571429  L 0 9.285714285714285  C 0 8.898809523809524  0.078125 8.473214285714285  0.234375 8.008928571428571  C 0.390625 7.544642857142856  0.5781250000000001 7.177083333333332  0.7968749999999999 6.90625  L 5.578125 0.9866071428571437  C 5.796875 0.7157738095238084  6.093750000000001 0.4836309523809521  6.46875 0.29017857142857184  C 6.84375 0.09672619047619158  7.1875 0  7.5 0  L 12.375 0  C 12.687500000000002 0  12.953125000000002 0.13541666666666763  13.171875000000002 0.40625  C 13.390625 0.6770833333333324  13.500000000000002 1.0059523809523803  13.500000000000002 1.3928571428571437  L 13.500000000000002 6.151785714285715  C 14.031250000000002 5.7648809523809526  14.53125 5.571428571428572  15 5.571428571428572  Z M 13.500000000000002 13  L 13.500000000000002 8.661830357142856  L 9.99609375 13  L 13.500000000000002 13  Z M 6 7.428571428571428  L 6 3.0904017857142847  L 2.49609375 7.428571428571428  L 6 7.428571428571428  Z M 7.734375000000001 13.580357142857144  C 7.890625 13.116071428571429  8.078125 12.748511904761905  8.296875 12.477678571428571  L 12 7.892857142857144  L 12 1.8571428571428563  L 7.5 1.8571428571428563  L 7.5 7.892857142857144  C 7.5 8.279761904761902  7.390625000000001 8.608630952380953  7.171875 8.879464285714285  C 6.953125000000001 9.150297619047617  6.687500000000001 9.285714285714285  6.374999999999999 9.285714285714285  L 1.5 9.285714285714285  L 1.5 18.571428571428573  L 7.5 18.571428571428573  L 7.5 14.857142857142856  C 7.5 14.470238095238095  7.578125000000001 14.044642857142856  7.734375000000001 13.580357142857144  Z M 9 24  L 19.5 24  L 19.5 7.428571428571428  L 15 7.428571428571428  L 15 13.464285714285712  C 15 13.851190476190476  14.890625000000002 14.180059523809522  14.671875 14.450892857142856  C 14.453125000000002 14.721726190476192  14.1875 14.857142857142856  13.875 14.857142857142856  L 9 14.857142857142856  L 9 24  Z " fill-rule="nonzero" fill="#555555" stroke="none" transform="matrix(1 0 0 1 889 1212 )" />
  </g>
</svg>