<?xml version="1.0" encoding="utf-8"?>
<svg version="1.1" xmlns:xlink="http://www.w3.org/1999/xlink" width="26px" height="28px" xmlns="http://www.w3.org/2000/svg">
  <g transform="matrix(1 0 0 1 -73 -1790 )">
    <path d="M 21.345052083333332 15.986979166666668  C 21.559461805555557 15.756076388888888  21.666666666666668 15.482638888888888  21.666666666666668 15.166666666666668  L 21.666666666666668 12.833333333333334  C 21.666666666666668 12.517361111111109  21.559461805555557 12.243923611111109  21.345052083333332 12.013020833333334  C 21.130642361111114 11.782118055555557  20.876736111111114 11.666666666666666  20.583333333333332 11.666666666666666  L 15.166666666666668 11.666666666666666  L 15.166666666666668 5.833333333333334  C 15.166666666666668 5.517361111111109  15.059461805555557 5.243923611111109  14.845052083333332 5.013020833333334  C 14.630642361111112 4.782118055555554  14.376736111111112 4.666666666666666  14.083333333333332 4.666666666666666  L 11.916666666666666 4.666666666666666  C 11.62326388888889 4.666666666666666  11.36935763888889 4.782118055555554  11.154947916666666 5.013020833333334  C 10.940538194444445 5.243923611111109  10.833333333333334 5.517361111111109  10.833333333333334 5.833333333333334  L 10.833333333333334 11.666666666666666  L 5.416666666666667 11.666666666666666  C 5.123263888888889 11.666666666666666  4.869357638888889 11.782118055555557  4.654947916666667 12.013020833333334  C 4.440538194444445 12.243923611111109  4.333333333333333 12.517361111111109  4.333333333333333 12.833333333333334  L 4.333333333333333 15.166666666666668  C 4.333333333333333 15.482638888888888  4.440538194444445 15.756076388888888  4.654947916666667 15.986979166666668  C 4.869357638888889 16.217881944444443  5.123263888888889 16.333333333333332  5.416666666666667 16.333333333333332  L 10.833333333333334 16.333333333333332  L 10.833333333333334 22.166666666666664  C 10.833333333333334 22.482638888888886  10.940538194444445 22.756076388888886  11.154947916666666 22.986979166666664  C 11.36935763888889 23.217881944444446  11.62326388888889 23.333333333333336  11.916666666666666 23.333333333333336  L 14.083333333333332 23.333333333333336  C 14.376736111111112 23.333333333333336  14.630642361111112 23.217881944444446  14.845052083333332 22.986979166666664  C 15.059461805555557 22.756076388888886  15.166666666666668 22.482638888888886  15.166666666666668 22.166666666666664  L 15.166666666666668 16.333333333333332  L 20.583333333333332 16.333333333333332  C 20.876736111111114 16.333333333333332  21.130642361111114 16.217881944444443  21.345052083333332 15.986979166666668  Z M 24.569661458333332 1.5403645833333344  C 25.52322048611111 2.567274305555553  26 3.8038194444444406  26 5.25  L 26 22.75  C 26 24.196180555555554  25.52322048611111 25.432725694444446  24.569661458333332 26.459635416666664  C 23.616102430555557 27.486545138888886  22.467881944444446 28  21.125 28  L 4.875 28  C 3.532118055555556 28  2.3838975694444446 27.486545138888886  1.4303385416666667 26.459635416666664  C 0.47677951388888884 25.432725694444446  0 24.196180555555554  0 22.75  L 0 5.25  C 0 3.8038194444444406  0.47677951388888884 2.567274305555553  1.4303385416666667 1.5403645833333344  C 2.3838975694444446 0.5134548611111094  3.532118055555556 0  4.875 0  L 21.125 0  C 22.467881944444446 0  23.616102430555557 0.5134548611111094  24.569661458333332 1.5403645833333344  Z " fill-rule="nonzero" fill="#7f7f7f" stroke="none" transform="matrix(1 0 0 1 73 1790 )" />
  </g>
</svg>