<?xml version="1.0" encoding="utf-8"?>
<svg version="1.1" xmlns:xlink="http://www.w3.org/1999/xlink" width="17px" height="21px" xmlns="http://www.w3.org/2000/svg">
  <g transform="matrix(1 0 0 1 -893 -1323 )">
    <path d="M 12.142857142857142 4.5  L 16.089285714285715 4.5  C 16.342261904761905 4.5  16.557291666666668 4.609374999999999  16.734375 4.828125  C 16.911458333333336 5.046874999999997  17 5.3125  17 5.625000000000001  L 17 19.875  C 17 20.1875  16.911458333333336 20.453125  16.734375 20.671875  C 16.557291666666668 20.890625  16.342261904761905 21  16.089285714285715 21  L 6.982142857142857 21  C 6.729166666666667 21  6.514136904761905 20.890625  6.337053571428571 20.671875  C 6.159970238095239 20.453125  6.071428571428571 20.1875  6.071428571428571 19.875  L 6.071428571428571 16.5  L 0.9107142857142857 16.5  C 0.6577380952380953 16.5  0.44270833333333337 16.390625  0.265625 16.171875  C 0.08854166666666666 15.953125  0 15.6875  0 15.375000000000002  L 0 7.499999999999999  C 0 7.1875  0.06324404761904762 6.843749999999999  0.18973214285714285 6.46875  C 0.3162202380952381 6.093749999999999  0.46800595238095244 5.796874999999999  0.6450892857142857 5.578125  L 4.515625 0.7968750000000007  C 4.692708333333334 0.5781249999999991  4.933035714285714 0.3906249999999998  5.236607142857143 0.23437500000000033  C 5.540178571428571 0.07812500000000089  5.818452380952381 0  6.071428571428571 0  L 10.017857142857142 0  C 10.270833333333334 0  10.485863095238097 0.10937500000000078  10.662946428571429 0.328125  C 10.840029761904763 0.5468749999999992  10.928571428571429 0.8124999999999994  10.928571428571429 1.1250000000000007  L 10.928571428571429 4.968750000000001  C 11.358630952380954 4.65625  11.763392857142858 4.5  12.142857142857142 4.5  Z M 10.928571428571429 10.5  L 10.928571428571429 6.996093749999999  L 8.092075892857142 10.5  L 10.928571428571429 10.5  Z M 4.857142857142857 6  L 4.857142857142857 2.496093749999999  L 2.020647321428571 6  L 4.857142857142857 6  Z M 6.261160714285714 10.96875  C 6.387648809523809 10.59375  6.539434523809524 10.296875  6.716517857142857 10.078125  L 9.714285714285714 6.375000000000001  L 9.714285714285714 1.4999999999999993  L 6.071428571428571 1.4999999999999993  L 6.071428571428571 6.375000000000001  C 6.071428571428571 6.687499999999997  5.982886904761905 6.953125  5.805803571428571 7.171874999999999  C 5.628720238095239 7.390624999999998  5.413690476190477 7.499999999999999  5.160714285714286 7.499999999999999  L 1.2142857142857142 7.499999999999999  L 1.2142857142857142 15  L 6.071428571428571 15  L 6.071428571428571 12  C 6.071428571428571 11.6875  6.1346726190476195 11.34375  6.261160714285714 10.96875  Z M 7.285714285714286 19.5  L 15.785714285714286 19.5  L 15.785714285714286 6  L 12.142857142857142 6  L 12.142857142857142 10.874999999999998  C 12.142857142857142 11.1875  12.054315476190478 11.453124999999998  11.877232142857142 11.671875  C 11.70014880952381 11.890625  11.485119047619047 12  11.232142857142858 12  L 7.285714285714286 12  L 7.285714285714286 19.5  Z " fill-rule="nonzero" fill="#555555" stroke="none" transform="matrix(1 0 0 1 893 1323 )" />
  </g>
</svg>