<?xml version="1.0" encoding="utf-8"?>
<svg version="1.1" xmlns:xlink="http://www.w3.org/1999/xlink" width="50px" height="50px" xmlns="http://www.w3.org/2000/svg">
  <g transform="matrix(1 0 0 1 -110 -515 )">
    <path d="M 135 515  C 149 515  160 526  160 540  C 160 554  149 565  135 565  C 121 565  110 554  110 540  C 110 526  121 515  135 515  Z " fill-rule="nonzero" fill="#ffffff" stroke="none" />
    <path d="M 135 515.5  C 148.72 515.5  159.5 526.28  159.5 540  C 159.5 553.72  148.72 564.5  135 564.5  C 121.28 564.5  110.5 553.72  110.5 540  C 110.5 526.28  121.28 515.5  135 515.5  Z " stroke-width="1" stroke="#797979" fill="none" />
  </g>
</svg>