<?xml version="1.0" encoding="utf-8"?>
<svg version="1.1" xmlns:xlink="http://www.w3.org/1999/xlink" width="20px" height="20px" preserveAspectRatio="xMinYMid meet" viewBox="603 401  20 18" xmlns="http://www.w3.org/2000/svg">
  <path d="M 566 410  L 613 410  " stroke-width="2" stroke="#ffb300" fill="none" />
  <path d="M 563.5 406.5  A 3.5 3.5 0 0 0 560 410 A 3.5 3.5 0 0 0 563.5 413.5 A 3.5 3.5 0 0 0 567 410 A 3.5 3.5 0 0 0 563.5 406.5 Z M 563.5 408.5  A 1.5 1.5 0 0 1 565 410 A 1.5 1.5 0 0 1 563.5 411.5 A 1.5 1.5 0 0 1 562 410 A 1.5 1.5 0 0 1 563.5 408.5 Z M 607.8928932188135 405.70710678118655  L 612.1857864376269 410  L 607.8928932188135 414.29289321881345  L 609.3071067811866 415.70710678118655  L 614.3071067811866 410.70710678118655  L 615.0142135623731 410  L 614.3071067811866 409.29289321881345  L 609.3071067811866 404.29289321881345  L 607.8928932188135 405.70710678118655  Z " fill-rule="nonzero" fill="#ffb300" stroke="none" />
</svg>