<?xml version="1.0" encoding="utf-8"?>
<svg version="1.1" xmlns:xlink="http://www.w3.org/1999/xlink" width="21px" height="20px" preserveAspectRatio="xMinYMid meet" viewBox="993 401  21 18" xmlns="http://www.w3.org/2000/svg">
  <path d="M 1006 410  L 1048 410  " stroke-width="2" stroke="#ffb300" fill="none" />
  <path d="M 1003.5 406.5  A 3.5 3.5 0 0 0 1000 410 A 3.5 3.5 0 0 0 1003.5 413.5 A 3.5 3.5 0 0 0 1007 410 A 3.5 3.5 0 0 0 1003.5 406.5 Z M 1003.5 408.5  A 1.5 1.5 0 0 1 1005 410 A 1.5 1.5 0 0 1 1003.5 411.5 A 1.5 1.5 0 0 1 1002 410 A 1.5 1.5 0 0 1 1003.5 408.5 Z M 1042.8928932188135 405.70710678118655  L 1047.185786437627 410  L 1042.8928932188135 414.29289321881345  L 1044.3071067811863 415.70710678118655  L 1049.3071067811863 410.70710678118655  L 1050.0142135623728 410  L 1049.3071067811863 409.29289321881345  L 1044.3071067811863 404.29289321881345  L 1042.8928932188135 405.70710678118655  Z " fill-rule="nonzero" fill="#ffb300" stroke="none" />
</svg>