<?xml version="1.0" encoding="utf-8"?>
<svg version="1.1" xmlns:xlink="http://www.w3.org/1999/xlink" width="21px" height="20px" preserveAspectRatio="xMinYMid meet" viewBox="778 401  21 18" xmlns="http://www.w3.org/2000/svg">
  <path d="M 791 410  L 838 410  " stroke-width="2" stroke="#ffb300" fill="none" />
  <path d="M 788.5 406.5  A 3.5 3.5 0 0 0 785 410 A 3.5 3.5 0 0 0 788.5 413.5 A 3.5 3.5 0 0 0 792 410 A 3.5 3.5 0 0 0 788.5 406.5 Z M 788.5 408.5  A 1.5 1.5 0 0 1 790 410 A 1.5 1.5 0 0 1 788.5 411.5 A 1.5 1.5 0 0 1 787 410 A 1.5 1.5 0 0 1 788.5 408.5 Z M 832.8928932188135 405.70710678118655  L 837.1857864376269 410  L 832.8928932188135 414.29289321881345  L 834.3071067811866 415.70710678118655  L 839.3071067811866 410.70710678118655  L 840.0142135623731 410  L 839.3071067811866 409.29289321881345  L 834.3071067811866 404.29289321881345  L 832.8928932188135 405.70710678118655  Z " fill-rule="nonzero" fill="#ffb300" stroke="none" />
</svg>