<?xml version="1.0" encoding="utf-8"?>
<svg version="1.1" xmlns:xlink="http://www.w3.org/1999/xlink" width="21px" height="20px" preserveAspectRatio="xMinYMid meet" viewBox="1183 401  21 18" xmlns="http://www.w3.org/2000/svg">
  <path d="M 1196 410  L 1243 410  " stroke-width="2" stroke="#ffb300" fill="none" />
  <path d="M 1193.5 406.5  A 3.5 3.5 0 0 0 1190 410 A 3.5 3.5 0 0 0 1193.5 413.5 A 3.5 3.5 0 0 0 1197 410 A 3.5 3.5 0 0 0 1193.5 406.5 Z M 1193.5 408.5  A 1.5 1.5 0 0 1 1195 410 A 1.5 1.5 0 0 1 1193.5 411.5 A 1.5 1.5 0 0 1 1192 410 A 1.5 1.5 0 0 1 1193.5 408.5 Z M 1237.8928932188135 405.70710678118655  L 1242.185786437627 410  L 1237.8928932188135 414.29289321881345  L 1239.3071067811863 415.70710678118655  L 1244.3071067811863 410.70710678118655  L 1245.0142135623728 410  L 1244.3071067811863 409.29289321881345  L 1239.3071067811863 404.29289321881345  L 1237.8928932188135 405.70710678118655  Z " fill-rule="nonzero" fill="#ffb300" stroke="none" />
</svg>