<?xml version="1.0" encoding="utf-8"?>
<svg version="1.1" xmlns:xlink="http://www.w3.org/1999/xlink" width="20px" height="20px" preserveAspectRatio="xMinYMid meet" viewBox="1110 283  20 18" xmlns="http://www.w3.org/2000/svg">
  <path d="M 1120 374  L 1120 292  " stroke-width="2" stroke="#ffb300" fill="none" />
  <path d="M 1120 373  A 3.5 3.5 0 0 0 1116.5 376.5 A 3.5 3.5 0 0 0 1120 380 A 3.5 3.5 0 0 0 1123.5 376.5 A 3.5 3.5 0 0 0 1120 373 Z M 1120 375  A 1.5 1.5 0 0 1 1121.5 376.5 A 1.5 1.5 0 0 1 1120 378 A 1.5 1.5 0 0 1 1118.5 376.5 A 1.5 1.5 0 0 1 1120 375 Z M 1115.7071067811864 297.10710678118653  L 1120 292.81421356237297  L 1124.2928932188136 297.10710678118653  L 1125.7071067811864 295.6928932188134  L 1120.7071067811864 290.6928932188134  L 1120 289.985786437627  L 1119.2928932188136 290.6928932188134  L 1114.2928932188136 295.6928932188134  L 1115.7071067811864 297.10710678118653  Z " fill-rule="nonzero" fill="#ffb300" stroke="none" />
</svg>