<?xml version="1.0" encoding="utf-8"?>
<svg version="1.1" xmlns:xlink="http://www.w3.org/1999/xlink" width="15px" height="15px" xmlns="http://www.w3.org/2000/svg">
  <g transform="matrix(1 0 0 1 -73 -812 )">
    <path d="M 11.03515625 10.156249999999998  C 11.158854166666668 10.032552083333334  11.220703125 9.882812500000002  11.220703125 9.707031250000002  C 11.220703125 9.537760416666666  11.158854166666668 9.391276041666666  11.03515625 9.267578125000002  L 9.267578125 7.5  L 11.03515625 5.732421875000001  C 11.158854166666668 5.608723958333332  11.220703125 5.462239583333332  11.220703125 5.292968750000001  C 11.220703125 5.117187500000001  11.158854166666668 4.967447916666664  11.03515625 4.843749999999999  L 10.15625 3.9648437499999996  C 10.032552083333336 3.8411458333333326  9.8828125 3.779296875  9.70703125 3.779296875  C 9.537760416666668 3.779296875  9.391276041666668 3.8411458333333326  9.267578125 3.9648437499999996  L 7.5 5.732421875000001  L 5.732421875 3.9648437499999996  C 5.608723958333334 3.8411458333333326  5.462239583333334 3.779296875  5.29296875 3.779296875  C 5.1171875 3.779296875  4.967447916666667 3.8411458333333326  4.84375 3.9648437499999996  L 3.9648437500000004 4.843749999999999  C 3.8411458333333335 4.967447916666664  3.779296875000001 5.117187500000001  3.779296875 5.292968750000001  C 3.779296875000001 5.462239583333332  3.8411458333333335 5.608723958333332  3.9648437500000004 5.732421875000001  L 5.732421875 7.5  L 3.9648437500000004 9.267578125000002  C 3.8411458333333335 9.391276041666666  3.779296875000001 9.537760416666666  3.779296875 9.707031250000002  C 3.779296875000001 9.882812500000002  3.8411458333333335 10.032552083333334  3.9648437500000004 10.156249999999998  L 4.84375 11.035156249999998  C 4.967447916666667 11.158854166666664  5.1171875 11.220703125  5.29296875 11.220703125  C 5.462239583333334 11.220703125  5.608723958333334 11.158854166666664  5.732421875 11.035156249999998  L 7.5 9.267578125000002  L 9.267578125 11.035156249999998  C 9.391276041666668 11.158854166666664  9.537760416666668 11.220703125  9.70703125 11.220703125  C 9.8828125 11.220703125  10.032552083333336 11.158854166666664  10.15625 11.035156249999998  L 11.03515625 10.156249999999998  Z M 13.994140625 3.7353515625  C 14.664713541666664 4.884440104166665  15 6.139322916666664  15 7.5  C 15 8.860677083333334  14.664713541666664 10.115559895833332  13.994140625 11.2646484375  C 13.323567708333336 12.413736979166666  12.413736979166666 13.323567708333334  11.2646484375 13.994140625  C 10.115559895833336 14.664713541666668  8.860677083333334 15  7.5 15  C 6.139322916666667 15  4.884440104166667 14.664713541666668  3.7353515625 13.994140625  C 2.5862630208333335 13.323567708333334  1.676432291666667 12.413736979166666  1.005859375 11.2646484375  C 0.33528645833333326 10.115559895833332  0 8.860677083333334  0 7.5  C 0 6.139322916666664  0.33528645833333326 4.884440104166665  1.005859375 3.7353515625  C 1.676432291666667 2.586263020833333  2.5862630208333335 1.6764322916666652  3.7353515625 1.0058593749999996  C 4.884440104166667 0.33528645833333204  6.139322916666667 0  7.5 0  C 8.860677083333334 0  10.115559895833336 0.33528645833333204  11.2646484375 1.0058593749999996  C 12.413736979166666 1.6764322916666652  13.323567708333336 2.586263020833333  13.994140625 3.7353515625  Z " fill-rule="nonzero" fill="#d9001b" stroke="none" transform="matrix(1 0 0 1 73 812 )" />
  </g>
</svg>