<?xml version="1.0" encoding="utf-8"?>
<svg version="1.1" xmlns:xlink="http://www.w3.org/1999/xlink" width="10px" height="46px" preserveAspectRatio="xMidYMin meet" viewBox="2207 356  8 46" xmlns="http://www.w3.org/2000/svg">
  <path d="M 1801 397  L 2206 397  A 5 5 0 0 0 2211 392 L 2211 366  A 5 5 0 0 1 2216 361 L 2615 361  " stroke-width="2" stroke="#ffb300" fill="none" />
  <path d="M 1798.5 393.5  A 3.5 3.5 0 0 0 1795 397 A 3.5 3.5 0 0 0 1798.5 400.5 A 3.5 3.5 0 0 0 1802 397 A 3.5 3.5 0 0 0 1798.5 393.5 Z M 1798.5 395.5  A 1.5 1.5 0 0 1 1800 397 A 1.5 1.5 0 0 1 1798.5 398.5 A 1.5 1.5 0 0 1 1797 397 A 1.5 1.5 0 0 1 1798.5 395.5 Z M 2613 370.5  L 2627 361  L 2613 351.5  L 2613 370.5  Z " fill-rule="nonzero" fill="#ffb300" stroke="none" />
</svg>