<?xml version="1.0" encoding="utf-8"?>
<svg version="1.1" xmlns:xlink="http://www.w3.org/1999/xlink" width="21px" height="21px" xmlns="http://www.w3.org/2000/svg">
  <g transform="matrix(1 0 0 1 -77 -417 )">
    <path d="M 15.44921875 14.218749999999998  C 15.622395833333334 14.045572916666668  15.708984375 13.835937500000002  15.708984375 13.589843750000002  C 15.708984375 13.352864583333332  15.622395833333334 13.147786458333332  15.44921875 12.974609375000002  L 12.974609375 10.5  L 15.44921875 8.025390625  C 15.622395833333334 7.852213541666665  15.708984375 7.647135416666665  15.708984375 7.410156250000001  C 15.708984375 7.164062500000001  15.622395833333334 6.95442708333333  15.44921875 6.781249999999999  L 14.21875 5.550781249999999  C 14.04557291666667 5.377604166666666  13.8359375 5.291015625  13.58984375 5.291015625  C 13.352864583333336 5.291015625  13.147786458333336 5.377604166666666  12.974609375 5.550781249999999  L 10.5 8.025390625  L 8.025390625 5.550781249999999  C 7.852213541666667 5.377604166666666  7.647135416666667 5.291015625  7.41015625 5.291015625  C 7.1640625 5.291015625  6.954427083333334 5.377604166666666  6.78125 5.550781249999999  L 5.55078125 6.781249999999999  C 5.377604166666667 6.95442708333333  5.291015625000001 7.164062500000001  5.291015625 7.410156250000001  C 5.291015625000001 7.647135416666665  5.377604166666667 7.852213541666665  5.55078125 8.025390625  L 8.025390625 10.5  L 5.55078125 12.974609375000002  C 5.377604166666667 13.147786458333332  5.291015625000001 13.352864583333332  5.291015625 13.589843750000002  C 5.291015625000001 13.835937500000002  5.377604166666667 14.045572916666668  5.55078125 14.218749999999998  L 6.78125 15.449218749999998  C 6.954427083333334 15.62239583333333  7.1640625 15.708984375  7.41015625 15.708984375  C 7.647135416666667 15.708984375  7.852213541666667 15.62239583333333  8.025390625 15.449218749999998  L 10.5 12.974609375000002  L 12.974609375 15.449218749999998  C 13.147786458333336 15.62239583333333  13.352864583333336 15.708984375  13.58984375 15.708984375  C 13.8359375 15.708984375  14.04557291666667 15.62239583333333  14.21875 15.449218749999998  L 15.44921875 14.218749999999998  Z M 19.591796875 5.2294921875  C 20.530598958333332 6.838216145833331  21 8.59505208333333  21 10.5  C 21 12.404947916666668  20.530598958333332 14.161783854166664  19.591796875 15.7705078125  C 18.652994791666668 17.379231770833332  17.379231770833332 18.652994791666668  15.7705078125 19.591796875  C 14.161783854166668 20.530598958333336  12.404947916666668 21  10.5 21  C 8.595052083333334 21  6.838216145833334 20.530598958333336  5.2294921875 19.591796875  C 3.620768229166667 18.652994791666668  2.3470052083333335 17.379231770833332  1.408203125 15.7705078125  C 0.46940104166666663 14.161783854166664  0 12.404947916666668  0 10.5  C 0 8.59505208333333  0.46940104166666663 6.838216145833331  1.408203125 5.2294921875  C 2.3470052083333335 3.6207682291666665  3.620768229166667 2.3470052083333313  5.2294921875 1.4082031249999991  C 6.838216145833334 0.46940104166666485  8.595052083333334 0  10.5 0  C 12.404947916666668 0  14.161783854166668 0.46940104166666485  15.7705078125 1.4082031249999991  C 17.379231770833332 2.3470052083333313  18.652994791666668 3.6207682291666665  19.591796875 5.2294921875  Z " fill-rule="nonzero" fill="#d9001b" stroke="none" transform="matrix(1 0 0 1 77 417 )" />
  </g>
</svg>