<?xml version="1.0" encoding="utf-8"?>
<svg version="1.1" xmlns:xlink="http://www.w3.org/1999/xlink" width="18px" height="10px" xmlns="http://www.w3.org/2000/svg">
  <g transform="matrix(1 0 0 1 -412 -458 )">
    <path d="M 17.819639278557116 1.030927835051546  C 17.939879759519037 1.145475372279493  18 1.2772050400916368  18 1.426116838487973  C 18 1.5750286368843058  17.939879759519037 1.7067583046964474  17.819639278557116 1.8213058419243988  L 9.414829659318636 9.828178694158074  C 9.294589178356714 9.942726231386022  9.156312625250502 10  9 10  C 8.8436873747495 10  8.705410821643287 9.942726231386022  8.585170340681362 9.828178694158074  L 0.18036072144288576 1.8213058419243988  C 0.060120240480962095 1.7067583046964474  0 1.5750286368843058  0 1.426116838487973  C 0 1.2772050400916368  0.060120240480962095 1.145475372279493  0.18036072144288576 1.030927835051546  L 1.0821643286573146 0.1718213058419249  C 1.2024048096192388 0.057273768613973486  1.340681362725451 0  1.496993987975952 0  C 1.6533066132264533 0  1.7915831663326656 0.057273768613973486  1.911823647294589 0.1718213058419249  L 9 6.9243986254295535  L 16.08817635270541 0.1718213058419249  C 16.208416833667336 0.057273768613973486  16.34669338677355 0  16.50300601202405 0  C 16.659318637274552 0  16.797595190380765 0.057273768613973486  16.917835671342687 0.1718213058419249  L 17.819639278557116 1.030927835051546  Z " fill-rule="nonzero" fill="#ffffff" stroke="none" transform="matrix(1 0 0 1 412 458 )" />
  </g>
</svg>