<?xml version="1.0" encoding="utf-8"?>
<svg version="1.1" xmlns:xlink="http://www.w3.org/1999/xlink" width="34px" height="34px" preserveAspectRatio="xMinYMid meet" viewBox="2707 190  34 32" xmlns="http://www.w3.org/2000/svg">
  <path d="M 2576 206  L 2718 206  " stroke-width="2" stroke="#ffb300" fill="none" />
  <path d="M 2573.5 202.5  A 3.5 3.5 0 0 0 2570 206 A 3.5 3.5 0 0 0 2573.5 209.5 A 3.5 3.5 0 0 0 2577 206 A 3.5 3.5 0 0 0 2573.5 202.5 Z M 2573.5 204.5  A 1.5 1.5 0 0 1 2575 206 A 1.5 1.5 0 0 1 2573.5 207.5 A 1.5 1.5 0 0 1 2572 206 A 1.5 1.5 0 0 1 2573.5 204.5 Z M 2716 215.5  L 2730 206  L 2716 196.5  L 2716 215.5  Z " fill-rule="nonzero" fill="#ffb300" stroke="none" />
</svg>