<?xml version="1.0" encoding="utf-8"?>
<svg version="1.1" xmlns:xlink="http://www.w3.org/1999/xlink" width="522px" height="10px" preserveAspectRatio="xMinYMid meet" viewBox="1770 171  522 8" xmlns="http://www.w3.org/2000/svg">
  <path d="M 1776 175  L 2275 175  " stroke-width="2" stroke="#ffb300" fill="none" />
  <path d="M 1773.5 171.5  A 3.5 3.5 0 0 0 1770 175 A 3.5 3.5 0 0 0 1773.5 178.5 A 3.5 3.5 0 0 0 1777 175 A 3.5 3.5 0 0 0 1773.5 171.5 Z M 1773.5 173.5  A 1.5 1.5 0 0 1 1775 175 A 1.5 1.5 0 0 1 1773.5 176.5 A 1.5 1.5 0 0 1 1772 175 A 1.5 1.5 0 0 1 1773.5 173.5 Z M 2273 184.5  L 2287 175  L 2273 165.5  L 2273 184.5  Z " fill-rule="nonzero" fill="#ffb300" stroke="none" />
</svg>