<?xml version="1.0" encoding="utf-8"?>
<svg version="1.1" xmlns:xlink="http://www.w3.org/1999/xlink" width="10px" height="56px" preserveAspectRatio="xMidYMin meet" viewBox="380 585  8 56" xmlns="http://www.w3.org/2000/svg">
  <path d="M 336 590  L 379 590  A 5 5 0 0 1 384 595 L 384 631  A 5 5 0 0 0 389 636 L 433 636  " stroke-width="2" stroke="#ffb300" fill="none" />
  <path d="M 333.5 586.5  A 3.5 3.5 0 0 0 330 590 A 3.5 3.5 0 0 0 333.5 593.5 A 3.5 3.5 0 0 0 337 590 A 3.5 3.5 0 0 0 333.5 586.5 Z M 333.5 588.5  A 1.5 1.5 0 0 1 335 590 A 1.5 1.5 0 0 1 333.5 591.5 A 1.5 1.5 0 0 1 332 590 A 1.5 1.5 0 0 1 333.5 588.5 Z M 435.5 632.5  A 3.5 3.5 0 0 0 432 636 A 3.5 3.5 0 0 0 435.5 639.5 A 3.5 3.5 0 0 0 439 636 A 3.5 3.5 0 0 0 435.5 632.5 Z M 435.5 634.5  A 1.5 1.5 0 0 1 437 636 A 1.5 1.5 0 0 1 435.5 637.5 A 1.5 1.5 0 0 1 434 636 A 1.5 1.5 0 0 1 435.5 634.5 Z " fill-rule="nonzero" fill="#ffb300" stroke="none" />
</svg>