<?xml version="1.0" encoding="utf-8"?>
<svg version="1.1" xmlns:xlink="http://www.w3.org/1999/xlink" width="21px" height="20px" preserveAspectRatio="xMinYMid meet" viewBox="323 497  21 18" xmlns="http://www.w3.org/2000/svg">
  <path d="M 336 506  L 433 506  " stroke-width="2" stroke="#ffb300" fill="none" />
  <path d="M 333.5 502.5  A 3.5 3.5 0 0 0 330 506 A 3.5 3.5 0 0 0 333.5 509.5 A 3.5 3.5 0 0 0 337 506 A 3.5 3.5 0 0 0 333.5 502.5 Z M 333.5 504.5  A 1.5 1.5 0 0 1 335 506 A 1.5 1.5 0 0 1 333.5 507.5 A 1.5 1.5 0 0 1 332 506 A 1.5 1.5 0 0 1 333.5 504.5 Z M 435.5 502.5  A 3.5 3.5 0 0 0 432 506 A 3.5 3.5 0 0 0 435.5 509.5 A 3.5 3.5 0 0 0 439 506 A 3.5 3.5 0 0 0 435.5 502.5 Z M 435.5 504.5  A 1.5 1.5 0 0 1 437 506 A 1.5 1.5 0 0 1 435.5 507.5 A 1.5 1.5 0 0 1 434 506 A 1.5 1.5 0 0 1 435.5 504.5 Z " fill-rule="nonzero" fill="#ffb300" stroke="none" />
</svg>