<?xml version="1.0" encoding="utf-8"?>
<svg version="1.1" xmlns:xlink="http://www.w3.org/1999/xlink" width="60px" height="10px" preserveAspectRatio="xMinYMid meet" viewBox="379 710  60 8" xmlns="http://www.w3.org/2000/svg">
  <path d="M 336 675  L 379 675  A 5 5 0 0 1 384 680 L 384 709  A 5 5 0 0 0 389 714 L 433 714  " stroke-width="2" stroke="#ffb300" fill="none" />
  <path d="M 333.5 671.5  A 3.5 3.5 0 0 0 330 675 A 3.5 3.5 0 0 0 333.5 678.5 A 3.5 3.5 0 0 0 337 675 A 3.5 3.5 0 0 0 333.5 671.5 Z M 333.5 673.5  A 1.5 1.5 0 0 1 335 675 A 1.5 1.5 0 0 1 333.5 676.5 A 1.5 1.5 0 0 1 332 675 A 1.5 1.5 0 0 1 333.5 673.5 Z M 435.5 710.5  A 3.5 3.5 0 0 0 432 714 A 3.5 3.5 0 0 0 435.5 717.5 A 3.5 3.5 0 0 0 439 714 A 3.5 3.5 0 0 0 435.5 710.5 Z M 435.5 712.5  A 1.5 1.5 0 0 1 437 714 A 1.5 1.5 0 0 1 435.5 715.5 A 1.5 1.5 0 0 1 434 714 A 1.5 1.5 0 0 1 435.5 712.5 Z " fill-rule="nonzero" fill="#ffb300" stroke="none" />
</svg>