<?xml version="1.0" encoding="utf-8"?>
<svg version="1.1" xmlns:xlink="http://www.w3.org/1999/xlink" width="21px" height="20px" preserveAspectRatio="xMinYMid meet" viewBox="755 497  21 18" xmlns="http://www.w3.org/2000/svg">
  <path d="M 675 636  L 725 636  A 5 5 0 0 0 730 631 L 730 511  A 5 5 0 0 1 735 506 L 763 506  " stroke-width="2" stroke="#ffb300" fill="none" />
  <path d="M 672.5 632.5  A 3.5 3.5 0 0 0 669 636 A 3.5 3.5 0 0 0 672.5 639.5 A 3.5 3.5 0 0 0 676 636 A 3.5 3.5 0 0 0 672.5 632.5 Z M 672.5 634.5  A 1.5 1.5 0 0 1 674 636 A 1.5 1.5 0 0 1 672.5 637.5 A 1.5 1.5 0 0 1 671 636 A 1.5 1.5 0 0 1 672.5 634.5 Z M 765.5 502.5  A 3.5 3.5 0 0 0 762 506 A 3.5 3.5 0 0 0 765.5 509.5 A 3.5 3.5 0 0 0 769 506 A 3.5 3.5 0 0 0 765.5 502.5 Z M 765.5 504.5  A 1.5 1.5 0 0 1 767 506 A 1.5 1.5 0 0 1 765.5 507.5 A 1.5 1.5 0 0 1 764 506 A 1.5 1.5 0 0 1 765.5 504.5 Z " fill-rule="nonzero" fill="#ffb300" stroke="none" />
</svg>