<?xml version="1.0" encoding="utf-8"?>
<svg version="1.1" xmlns:xlink="http://www.w3.org/1999/xlink" width="17px" height="15px" xmlns="http://www.w3.org/2000/svg">
  <g transform="matrix(1 0 0 1 -950 -318 )">
    <path d="M 16.789713541666668 12.22265625  C 16.92990451388889 12.371093750000002  17 12.546875000000002  17 12.75  L 17 14.25  C 17 14.453125  16.92990451388889 14.62890625  16.789713541666668 14.77734375  C 16.649522569444446 14.92578125  16.483506944444446 15  16.291666666666668 15  L 0.7083333333333333 15  C 0.5164930555555556 15  0.3504774305555555 14.92578125  0.21028645833333331 14.77734375  C 0.07009548611111112 14.62890625  0 14.453125  0 14.25  L 0 12.75  C 0 12.546875000000002  0.07009548611111112 12.371093750000002  0.21028645833333331 12.22265625  C 0.3504774305555555 12.07421875  0.5164930555555556 12  0.7083333333333333 12  L 16.291666666666668 12  C 16.483506944444446 12  16.649522569444446 12.07421875  16.789713541666668 12.22265625  Z M 16.789713541666668 6.222656249999999  C 16.92990451388889 6.371093749999999  17 6.546874999999999  17 6.749999999999999  L 17 8.25  C 17 8.453125  16.92990451388889 8.62890625  16.789713541666668 8.77734375  C 16.649522569444446 8.925781249999998  16.483506944444446 9  16.291666666666668 9  L 0.7083333333333333 9  C 0.5164930555555556 9  0.3504774305555555 8.925781249999998  0.21028645833333331 8.77734375  C 0.07009548611111112 8.62890625  0 8.453125  0 8.25  L 0 6.749999999999999  C 0 6.546874999999999  0.07009548611111112 6.371093749999999  0.21028645833333331 6.222656249999999  C 0.3504774305555555 6.074218750000001  0.5164930555555556 6  0.7083333333333333 6  L 16.291666666666668 6  C 16.483506944444446 6  16.649522569444446 6.074218750000001  16.789713541666668 6.222656249999999  Z M 16.789713541666668 0.22265625000000067  C 16.92990451388889 0.3710937499999989  17 0.5468749999999989  17 0.7500000000000007  L 17 2.2500000000000004  C 17 2.4531249999999987  16.92990451388889 2.6289062499999987  16.789713541666668 2.7773437500000004  C 16.649522569444446 2.9257812499999987  16.483506944444446 2.999999999999999  16.291666666666668 3  L 0.7083333333333333 3  C 0.5164930555555556 2.999999999999999  0.3504774305555555 2.9257812499999987  0.21028645833333331 2.7773437500000004  C 0.07009548611111112 2.6289062499999987  0 2.4531249999999987  0 2.2500000000000004  L 0 0.7500000000000007  C 0 0.5468749999999989  0.07009548611111112 0.3710937499999989  0.21028645833333331 0.22265625000000067  C 0.3504774305555555 0.07421874999999911  0.5164930555555556 0  0.7083333333333333 0  L 16.291666666666668 0  C 16.483506944444446 0  16.649522569444446 0.07421874999999911  16.789713541666668 0.22265625000000067  Z " fill-rule="nonzero" fill="#000000" stroke="none" transform="matrix(1 0 0 1 950 318 )" />
  </g>
</svg>