<?xml version="1.0" encoding="utf-8"?>
<svg version="1.1" xmlns:xlink="http://www.w3.org/1999/xlink" width="18px" height="12px" xmlns="http://www.w3.org/2000/svg">
  <g transform="matrix(1 0 0 1 -332 -239 )">
    <path d="M 17.819639278557116 1.2371134020618553  C 17.939879759519037 1.3745704467353916  18 1.5326460481099642  18 1.7113402061855676  C 18 1.890034364261167  17.939879759519037 2.048109965635737  17.819639278557116 2.1855670103092786  L 9.414829659318636 11.79381443298969  C 9.294589178356714 11.931271477663227  9.156312625250502 12  9 12  C 8.8436873747495 12  8.705410821643287 11.931271477663227  8.585170340681362 11.79381443298969  L 0.18036072144288576 2.1855670103092786  C 0.060120240480962095 2.048109965635737  0 1.890034364261167  0 1.7113402061855676  C 0 1.5326460481099642  0.060120240480962095 1.3745704467353916  0.18036072144288576 1.2371134020618553  L 1.0821643286573146 0.20618556701030988  C 1.2024048096192388 0.06872852233676818  1.340681362725451 0  1.496993987975952 0  C 1.6533066132264533 0  1.7915831663326656 0.06872852233676818  1.911823647294589 0.20618556701030988  L 9 8.309278350515463  L 16.08817635270541 0.20618556701030988  C 16.208416833667336 0.06872852233676818  16.34669338677355 0  16.50300601202405 0  C 16.659318637274552 0  16.797595190380765 0.06872852233676818  16.917835671342687 0.20618556701030988  L 17.819639278557116 1.2371134020618553  Z " fill-rule="nonzero" fill="#7f7f7f" stroke="none" transform="matrix(1 0 0 1 332 239 )" />
  </g>
</svg>