<?xml version="1.0" encoding="utf-8"?>
<svg version="1.1" xmlns:xlink="http://www.w3.org/1999/xlink" width="18px" height="18px" viewBox="39 684  18 18" xmlns="http://www.w3.org/2000/svg">
  <path d="M 48 685  C 52.480000000000004 685  56 688.52  56 693  C 56 697.48  52.480000000000004 701  48 701  C 43.519999999999996 701  40 697.48  40 693  C 40 688.52  43.519999999999996 685  48 685  Z " fill-rule="nonzero" fill="#6200ee" stroke="none" fill-opacity="0" />
  <path d="M 48 685  C 52.480000000000004 685  56 688.52  56 693  C 56 697.48  52.480000000000004 701  48 701  C 43.519999999999996 701  40 697.48  40 693  C 40 688.52  43.519999999999996 685  48 685  Z " stroke-width="2" stroke="#1e98d7" fill="none" />
  <path d="M 48 697.5  C 45.48 697.5  43.5 695.52  43.5 693  C 43.5 690.48  45.48 688.5  48 688.5  C 50.52 688.5  52.5 690.48  52.5 693  C 52.5 695.52  50.52 697.5  48 697.5  " fill-rule="nonzero" fill="#1e98d7" stroke="none" />
</svg>