<?xml version="1.0" encoding="utf-8"?>
<svg version="1.1" xmlns:xlink="http://www.w3.org/1999/xlink" width="18px" height="18px" viewBox="184 574.5  18 18" xmlns="http://www.w3.org/2000/svg">
  <path d="M 185.5 576.5  A 0.5 0.5 0 0 1 186 576 L 200 576  A 0.5 0.5 0 0 1 200.5 576.5 L 200.5 590.5  A 0.5 0.5 0 0 1 200 591 L 186 591  A 0.5 0.5 0 0 1 185.5 590.5 L 185.5 576.5  Z " fill-rule="nonzero" fill="#ffffff" stroke="none" fill-opacity="0" />
  <path d="M 185 576.5  A 1 1 0 0 1 186 575.5 L 200 575.5  A 1 1 0 0 1 201 576.5 L 201 590.5  A 1 1 0 0 1 200 591.5 L 186 591.5  A 1 1 0 0 1 185 590.5 L 185 576.5  Z " stroke-width="2" stroke="#797979" fill="none" />
</svg>