<?xml version="1.0" encoding="utf-8"?>
<svg version="1.1" xmlns:xlink="http://www.w3.org/1999/xlink" width="18px" height="18px" viewBox="43 781.5  18 18" xmlns="http://www.w3.org/2000/svg">
  <path d="M 44.5 783.5  A 0.5 0.5 0 0 1 45 783 L 59 783  A 0.5 0.5 0 0 1 59.5 783.5 L 59.5 797.5  A 0.5 0.5 0 0 1 59 798 L 45 798  A 0.5 0.5 0 0 1 44.5 797.5 L 44.5 783.5  Z " fill-rule="nonzero" fill="#ffffff" stroke="none" fill-opacity="0" />
  <path d="M 44 783.5  A 1 1 0 0 1 45 782.5 L 59 782.5  A 1 1 0 0 1 60 783.5 L 60 797.5  A 1 1 0 0 1 59 798.5 L 45 798.5  A 1 1 0 0 1 44 797.5 L 44 783.5  Z " stroke-width="2" stroke="#797979" fill="none" />
</svg>