<?xml version="1.0" encoding="utf-8"?>
<svg version="1.1" xmlns:xlink="http://www.w3.org/1999/xlink" width="18px" height="18px" viewBox="39 627  18 18" xmlns="http://www.w3.org/2000/svg">
  <path d="M 48 628  C 52.480000000000004 628  56 631.52  56 636  C 56 640.48  52.480000000000004 644  48 644  C 43.519999999999996 644  40 640.48  40 636  C 40 631.52  43.519999999999996 628  48 628  Z " fill-rule="nonzero" fill="#6200ee" stroke="none" fill-opacity="0" />
  <path d="M 48 628  C 52.480000000000004 628  56 631.52  56 636  C 56 640.48  52.480000000000004 644  48 644  C 43.519999999999996 644  40 640.48  40 636  C 40 631.52  43.519999999999996 628  48 628  Z " stroke-width="2" stroke="#1e98d7" fill="none" />
  <path d="M 48 640.5  C 45.48 640.5  43.5 638.52  43.5 636  C 43.5 633.48  45.48 631.5  48 631.5  C 50.52 631.5  52.5 633.48  52.5 636  C 52.5 638.52  50.52 640.5  48 640.5  " fill-rule="nonzero" fill="#1e98d7" stroke="none" />
</svg>