<?xml version="1.0" encoding="utf-8"?>
<svg version="1.1" xmlns:xlink="http://www.w3.org/1999/xlink" width="12px" height="14px" xmlns="http://www.w3.org/2000/svg">
  <g transform="matrix(1 0 0 1 -751 -18 )">
    <path d="M 2.0277227722772277 12.817161716171617  L 2.875247524752475 12.817161716171617  L 3.596039603960396 11.976237623762376  L 1.7346534653465344 9.804620462046204  L 1.0138613861386139 10.645544554455446  L 1.0138613861386139 11.634323432343233  L 2.0277227722772277 11.634323432343233  L 2.0277227722772277 12.817161716171617  Z M 6.9623762376237615 4.398679867986798  C 6.9993399339934 4.355555555555556  7.017821782178219 4.303190319031902  7.017821782178219 4.241584158415842  C 7.017821782178219 4.106050605060506  6.959735973597359 4.038283828382838  6.8435643564356425 4.038283828382838  C 6.790759075907591 4.038283828382838  6.745874587458747 4.059845984598459  6.7089108910891095 4.102970297029703  L 2.4158415841584158 9.111551155115512  C 2.378877887788779 9.154675467546754  2.3603960396039603 9.207040704070405  2.3603960396039603 9.268646864686469  C 2.3603960396039603 9.404180418041802  2.4184818481848187 9.471947194719473  2.5346534653465347 9.471947194719473  C 2.5874587458745877 9.471947194719473  2.6323432343234323 9.45038503850385  2.669306930693069 9.407260726072607  L 6.9623762376237615 4.398679867986798  Z M 0 10.155775577557757  L 6.590099009900991 2.4673267326732677  L 9.885148514851485 6.311551155115511  L 3.2950495049504953 14  L 0 14  L 0 10.155775577557757  Z M 11.706930693069307 2.5135313531353134  C 11.902310231023103 2.753795379537954  12 3.034103410341034  12 3.3544554455445543  C 12 3.680968096809681  11.902310231023103 3.958195819581957  11.706930693069307 4.186138613861386  L 10.39207920792079 5.7201320132013205  L 7.097029702970297 1.8759075907590765  L 8.411881188118812 0.35115511551155043  C 8.601980198019803 0.11705170517051577  8.83960396039604 0  9.124752475247526 0  C 9.404620462046207 0  9.644884488448845 0.11705170517051577  9.845544554455445 0.35115511551155043  L 11.706930693069307 2.5135313531353134  Z " fill-rule="nonzero" fill="#555555" stroke="none" transform="matrix(1 0 0 1 751 18 )" />
  </g>
</svg>