<?xml version="1.0" encoding="utf-8"?>
<svg version="1.1" xmlns:xlink="http://www.w3.org/1999/xlink" width="18px" height="18px" viewBox="55 373.5  18 18" xmlns="http://www.w3.org/2000/svg">
  <path d="M 56.5 375.5  A 0.5 0.5 0 0 1 57 375 L 71 375  A 0.5 0.5 0 0 1 71.5 375.5 L 71.5 389.5  A 0.5 0.5 0 0 1 71 390 L 57 390  A 0.5 0.5 0 0 1 56.5 389.5 L 56.5 375.5  Z " fill-rule="nonzero" fill="#ffffff" stroke="none" fill-opacity="0" />
  <path d="M 56 375.5  A 1 1 0 0 1 57 374.5 L 71 374.5  A 1 1 0 0 1 72 375.5 L 72 389.5  A 1 1 0 0 1 71 390.5 L 57 390.5  A 1 1 0 0 1 56 389.5 L 56 375.5  Z " stroke-width="2" stroke="#797979" fill="none" />
</svg>