<?xml version="1.0" encoding="utf-8"?>
<svg version="1.1" xmlns:xlink="http://www.w3.org/1999/xlink" width="18px" height="18px" viewBox="63 383.5  18 18" xmlns="http://www.w3.org/2000/svg">
  <path d="M 64.5 385.5  A 0.5 0.5 0 0 1 65 385 L 79 385  A 0.5 0.5 0 0 1 79.5 385.5 L 79.5 399.5  A 0.5 0.5 0 0 1 79 400 L 65 400  A 0.5 0.5 0 0 1 64.5 399.5 L 64.5 385.5  Z " fill-rule="nonzero" fill="#ffffff" stroke="none" fill-opacity="0" />
  <path d="M 64 385.5  A 1 1 0 0 1 65 384.5 L 79 384.5  A 1 1 0 0 1 80 385.5 L 80 399.5  A 1 1 0 0 1 79 400.5 L 65 400.5  A 1 1 0 0 1 64 399.5 L 64 385.5  Z " stroke-width="2" stroke="#797979" fill="none" />
</svg>