<?xml version="1.0" encoding="utf-8"?>
<svg version="1.1" xmlns:xlink="http://www.w3.org/1999/xlink" width="94px" height="38px" xmlns="http://www.w3.org/2000/svg">
  <g transform="matrix(1 0 0 1 -375 -126 )">
    <path d="M 376 128  A 1 1 0 0 1 377 127 L 467 127  A 1 1 0 0 1 468 128 L 468 162  A 1 1 0 0 1 467 163 L 377 163  A 1 1 0 0 1 376 162 L 376 128  Z " fill-rule="nonzero" fill="#f8c64f" stroke="none" fill-opacity="0.8" />
    <path d="M 375.5 128  A 1.5 1.5 0 0 1 377 126.5 L 467 126.5  A 1.5 1.5 0 0 1 468.5 128 L 468.5 162  A 1.5 1.5 0 0 1 467 163.5 L 377 163.5  A 1.5 1.5 0 0 1 375.5 162 L 375.5 128  Z " stroke-width="1" stroke="#f8c64f" fill="none" stroke-opacity="0.8" />
  </g>
</svg>