<?xml version="1.0" encoding="utf-8"?>
<svg version="1.1" xmlns:xlink="http://www.w3.org/1999/xlink" width="86px" height="38px" xmlns="http://www.w3.org/2000/svg">
  <g transform="matrix(1 0 0 1 -31 -225 )">
    <path d="M 31.5 227  A 1.5 1.5 0 0 1 33 225.5 L 115 225.5  A 1.5 1.5 0 0 1 116.5 227 L 116.5 261  A 1.5 1.5 0 0 1 115 262.5 L 33 262.5  A 1.5 1.5 0 0 1 31.5 261 L 31.5 227  Z " fill-rule="nonzero" fill="#33ab9f" stroke="none" />
    <path d="M 31.5 227  A 1.5 1.5 0 0 1 33 225.5 L 115 225.5  A 1.5 1.5 0 0 1 116.5 227 L 116.5 261  A 1.5 1.5 0 0 1 115 262.5 L 33 262.5  A 1.5 1.5 0 0 1 31.5 261 L 31.5 227  Z " stroke-width="1" stroke="#33ab9f" fill="none" />
  </g>
</svg>