<?xml version="1.0" encoding="utf-8"?>
<svg version="1.1" xmlns:xlink="http://www.w3.org/1999/xlink" width="64px" height="38px" xmlns="http://www.w3.org/2000/svg">
  <g transform="matrix(1 0 0 1 -275 -225 )">
    <path d="M 275.5 227  A 1.5 1.5 0 0 1 277 225.5 L 337 225.5  A 1.5 1.5 0 0 1 338.5 227 L 338.5 261  A 1.5 1.5 0 0 1 337 262.5 L 277 262.5  A 1.5 1.5 0 0 1 275.5 261 L 275.5 227  Z " fill-rule="nonzero" fill="#33ab9f" stroke="none" />
    <path d="M 275.5 227  A 1.5 1.5 0 0 1 277 225.5 L 337 225.5  A 1.5 1.5 0 0 1 338.5 227 L 338.5 261  A 1.5 1.5 0 0 1 337 262.5 L 277 262.5  A 1.5 1.5 0 0 1 275.5 261 L 275.5 227  Z " stroke-width="1" stroke="#33ab9f" fill="none" />
  </g>
</svg>