<?xml version="1.0" encoding="utf-8"?>
<svg version="1.1" xmlns:xlink="http://www.w3.org/1999/xlink" width="38px" height="30px" xmlns="http://www.w3.org/2000/svg">
  <g transform="matrix(1 0 0 1 -127 -361 )">
    <path d="M 127.5 363  A 1.5 1.5 0 0 1 129 361.5 L 163 361.5  A 1.5 1.5 0 0 1 164.5 363 L 164.5 389  A 1.5 1.5 0 0 1 163 390.5 L 129 390.5  A 1.5 1.5 0 0 1 127.5 389 L 127.5 363  Z " fill-rule="nonzero" fill="#f8c64f" stroke="none" />
    <path d="M 127.5 363  A 1.5 1.5 0 0 1 129 361.5 L 163 361.5  A 1.5 1.5 0 0 1 164.5 363 L 164.5 389  A 1.5 1.5 0 0 1 163 390.5 L 129 390.5  A 1.5 1.5 0 0 1 127.5 389 L 127.5 363  Z " stroke-width="1" stroke="#f8c64f" fill="none" />
  </g>
</svg>