<?xml version="1.0" encoding="utf-8"?>
<svg version="1.1" xmlns:xlink="http://www.w3.org/1999/xlink" width="38px" height="30px" xmlns="http://www.w3.org/2000/svg">
  <g transform="matrix(1 0 0 1 -31 -361 )">
    <path d="M 31.5 363  A 1.5 1.5 0 0 1 33 361.5 L 67 361.5  A 1.5 1.5 0 0 1 68.5 363 L 68.5 389  A 1.5 1.5 0 0 1 67 390.5 L 33 390.5  A 1.5 1.5 0 0 1 31.5 389 L 31.5 363  Z " fill-rule="nonzero" fill="#33ab9f" stroke="none" />
    <path d="M 31.5 363  A 1.5 1.5 0 0 1 33 361.5 L 67 361.5  A 1.5 1.5 0 0 1 68.5 363 L 68.5 389  A 1.5 1.5 0 0 1 67 390.5 L 33 390.5  A 1.5 1.5 0 0 1 31.5 389 L 31.5 363  Z " stroke-width="1" stroke="#33ab9f" fill="none" />
  </g>
</svg>