<?xml version="1.0" encoding="utf-8"?>
<svg version="1.1" xmlns:xlink="http://www.w3.org/1999/xlink" width="94px" height="38px" xmlns="http://www.w3.org/2000/svg">
  <g transform="matrix(1 0 0 1 -261 -126 )">
    <path d="M 262 128  A 1 1 0 0 1 263 127 L 353 127  A 1 1 0 0 1 354 128 L 354 162  A 1 1 0 0 1 353 163 L 263 163  A 1 1 0 0 1 262 162 L 262 128  Z " fill-rule="nonzero" fill="#4bb2ff" stroke="none" fill-opacity="0.8" />
    <path d="M 261.5 128  A 1.5 1.5 0 0 1 263 126.5 L 353 126.5  A 1.5 1.5 0 0 1 354.5 128 L 354.5 162  A 1.5 1.5 0 0 1 353 163.5 L 263 163.5  A 1.5 1.5 0 0 1 261.5 162 L 261.5 128  Z " stroke-width="1" stroke="#4bb2ff" fill="none" stroke-opacity="0.8" />
  </g>
</svg>