<?xml version="1.0" encoding="utf-8"?>
<svg version="1.1" xmlns:xlink="http://www.w3.org/1999/xlink" width="18px" height="18px" viewBox="32 188.5  18 18" xmlns="http://www.w3.org/2000/svg">
  <path d="M 33.5 190.5  A 0.5 0.5 0 0 1 34 190 L 48 190  A 0.5 0.5 0 0 1 48.5 190.5 L 48.5 204.5  A 0.5 0.5 0 0 1 48 205 L 34 205  A 0.5 0.5 0 0 1 33.5 204.5 L 33.5 190.5  Z " fill-rule="nonzero" fill="#ffffff" stroke="none" fill-opacity="0" />
  <path d="M 33 190.5  A 1 1 0 0 1 34 189.5 L 48 189.5  A 1 1 0 0 1 49 190.5 L 49 204.5  A 1 1 0 0 1 48 205.5 L 34 205.5  A 1 1 0 0 1 33 204.5 L 33 190.5  Z " stroke-width="2" stroke="#797979" fill="none" />
</svg>