<?xml version="1.0" encoding="utf-8"?>
<svg version="1.1" xmlns:xlink="http://www.w3.org/1999/xlink" width="58px" height="22px" xmlns="http://www.w3.org/2000/svg">
  <g transform="matrix(1 0 0 1 -353 -185 )">
    <path d="M 353.5 187  A 1.5 1.5 0 0 1 355 185.5 L 409 185.5  A 1.5 1.5 0 0 1 410.5 187 L 410.5 205  A 1.5 1.5 0 0 1 409 206.5 L 355 206.5  A 1.5 1.5 0 0 1 353.5 205 L 353.5 187  Z " fill-rule="nonzero" fill="#33ab9f" stroke="none" />
    <path d="M 353.5 187  A 1.5 1.5 0 0 1 355 185.5 L 409 185.5  A 1.5 1.5 0 0 1 410.5 187 L 410.5 205  A 1.5 1.5 0 0 1 409 206.5 L 355 206.5  A 1.5 1.5 0 0 1 353.5 205 L 353.5 187  Z " stroke-width="1" stroke="#33ab9f" fill="none" />
  </g>
</svg>