<?xml version="1.0" encoding="utf-8"?>
<svg version="1.1" xmlns:xlink="http://www.w3.org/1999/xlink" width="94px" height="38px" xmlns="http://www.w3.org/2000/svg">
  <g transform="matrix(1 0 0 1 -146 -126 )">
    <path d="M 147 128  A 1 1 0 0 1 148 127 L 238 127  A 1 1 0 0 1 239 128 L 239 162  A 1 1 0 0 1 238 163 L 148 163  A 1 1 0 0 1 147 162 L 147 128  Z " fill-rule="nonzero" fill="#33ab9f" stroke="none" fill-opacity="0.8" />
    <path d="M 146.5 128  A 1.5 1.5 0 0 1 148 126.5 L 238 126.5  A 1.5 1.5 0 0 1 239.5 128 L 239.5 162  A 1.5 1.5 0 0 1 238 163.5 L 148 163.5  A 1.5 1.5 0 0 1 146.5 162 L 146.5 128  Z " stroke-width="1" stroke="#33ab9f" fill="none" stroke-opacity="0.8" />
  </g>
</svg>