<?xml version="1.0" encoding="utf-8"?>
<svg version="1.1" xmlns:xlink="http://www.w3.org/1999/xlink" width="68px" height="30px" xmlns="http://www.w3.org/2000/svg">
  <g transform="matrix(1 0 0 1 -267 -181 )">
    <path d="M 268 183  A 1 1 0 0 1 269 182 L 333 182  A 1 1 0 0 1 334 183 L 334 209  A 1 1 0 0 1 333 210 L 269 210  A 1 1 0 0 1 268 209 L 268 183  Z " fill-rule="nonzero" fill="#33ab9f" stroke="none" fill-opacity="0.8" />
    <path d="M 267.5 183  A 1.5 1.5 0 0 1 269 181.5 L 333 181.5  A 1.5 1.5 0 0 1 334.5 183 L 334.5 209  A 1.5 1.5 0 0 1 333 210.5 L 269 210.5  A 1.5 1.5 0 0 1 267.5 209 L 267.5 183  Z " stroke-width="1" stroke="#33ab9f" fill="none" stroke-opacity="0.8" />
  </g>
</svg>