<?xml version="1.0" encoding="utf-8"?>
<svg version="1.1" xmlns:xlink="http://www.w3.org/1999/xlink" width="18px" height="18px" viewBox="68 383.5  18 18" xmlns="http://www.w3.org/2000/svg">
  <path d="M 69.5 385.5  A 0.5 0.5 0 0 1 70 385 L 84 385  A 0.5 0.5 0 0 1 84.5 385.5 L 84.5 399.5  A 0.5 0.5 0 0 1 84 400 L 70 400  A 0.5 0.5 0 0 1 69.5 399.5 L 69.5 385.5  Z " fill-rule="nonzero" fill="#ffffff" stroke="none" fill-opacity="0" />
  <path d="M 69 385.5  A 1 1 0 0 1 70 384.5 L 84 384.5  A 1 1 0 0 1 85 385.5 L 85 399.5  A 1 1 0 0 1 84 400.5 L 70 400.5  A 1 1 0 0 1 69 399.5 L 69 385.5  Z " stroke-width="2" stroke="#797979" fill="none" />
</svg>