<?xml version="1.0" encoding="utf-8"?>
<svg version="1.1" xmlns:xlink="http://www.w3.org/1999/xlink" width="38px" height="30px" xmlns="http://www.w3.org/2000/svg">
  <g transform="matrix(1 0 0 1 -79 -361 )">
    <path d="M 80 363  A 1 1 0 0 1 81 362 L 115 362  A 1 1 0 0 1 116 363 L 116 389  A 1 1 0 0 1 115 390 L 81 390  A 1 1 0 0 1 80 389 L 80 363  Z " fill-rule="nonzero" fill="#4bb2ff" stroke="none" fill-opacity="0.8" />
    <path d="M 79.5 363  A 1.5 1.5 0 0 1 81 361.5 L 115 361.5  A 1.5 1.5 0 0 1 116.5 363 L 116.5 389  A 1.5 1.5 0 0 1 115 390.5 L 81 390.5  A 1.5 1.5 0 0 1 79.5 389 L 79.5 363  Z " stroke-width="1" stroke="#4bb2ff" fill="none" stroke-opacity="0.8" />
  </g>
</svg>