<?xml version="1.0" encoding="utf-8"?>
<svg version="1.1" xmlns:xlink="http://www.w3.org/1999/xlink" width="114px" height="44px" xmlns="http://www.w3.org/2000/svg">
  <g transform="matrix(1 0 0 1 -31 -174 )">
    <path d="M 31.5 176  A 1.5 1.5 0 0 1 33 174.5 L 143 174.5  A 1.5 1.5 0 0 1 144.5 176 L 144.5 216  A 1.5 1.5 0 0 1 143 217.5 L 33 217.5  A 1.5 1.5 0 0 1 31.5 216 L 31.5 176  Z " fill-rule="nonzero" fill="#33ab9f" stroke="none" />
    <path d="M 31.5 176  A 1.5 1.5 0 0 1 33 174.5 L 143 174.5  A 1.5 1.5 0 0 1 144.5 176 L 144.5 216  A 1.5 1.5 0 0 1 143 217.5 L 33 217.5  A 1.5 1.5 0 0 1 31.5 216 L 31.5 176  Z " stroke-width="1" stroke="#33ab9f" fill="none" />
  </g>
</svg>