<?xml version="1.0" encoding="utf-8"?>
<svg version="1.1" xmlns:xlink="http://www.w3.org/1999/xlink" width="300px" height="170px" xmlns="http://www.w3.org/2000/svg">
  <g transform="matrix(1 0 0 1 -509 -430 )">
    <path d="M 509 430  L 809 430  L 809 600  L 509 600  L 509 430  " fill-rule="nonzero" fill="#cccccc" stroke="none" />
    <path d="M 521 442  L 797 442  L 797 588  L 521 588  L 521 442  " fill-rule="nonzero" fill="#ffffff" stroke="none" />
    <path d="M 677.75 481  C 670.61 481  665 475.39  665 468.25  C 665 461.11  670.61 455.5  677.75 455.5  C 684.89 455.5  690.5 461.11  690.5 468.25  C 690.5 475.39  684.89 481  677.75 481  " fill-rule="nonzero" fill="#cccccc" stroke="none" />
    <path d="M 526 584  L 526 508.65  L 592.75 474.4  L 686.2 537.42  L 739.6 494.95  L 793 537.42  L 793 584  L 526 584  " fill-rule="nonzero" fill="#169bd5" stroke="none" />
  </g>
</svg>