<?xml version="1.0" encoding="utf-8"?>
<svg version="1.1" xmlns:xlink="http://www.w3.org/1999/xlink" width="15px" height="16px" xmlns="http://www.w3.org/2000/svg">
  <g transform="matrix(1 0 0 1 -1293 -528 )">
    <path d="M 10.714285714285715 3.428571428571429  L 14.196428571428571 3.428571428571429  C 14.419642857142858 3.428571428571429  14.609375 3.511904761904761  14.765625 3.678571428571429  C 14.921875000000002 3.845238095238093  15 4.0476190476190474  15 4.2857142857142865  L 15 15.142857142857142  C 15 15.380952380952381  14.921875000000002 15.583333333333332  14.765625 15.75  C 14.609375 15.916666666666668  14.419642857142858 16  14.196428571428571 16  L 6.160714285714286 16  C 5.937500000000001 16  5.747767857142858 15.916666666666668  5.591517857142858 15.75  C 5.435267857142858 15.583333333333332  5.357142857142858 15.380952380952381  5.357142857142858 15.142857142857142  L 5.357142857142858 12.571428571428571  L 0.8035714285714285 12.571428571428571  C 0.580357142857143 12.571428571428571  0.390625 12.488095238095239  0.234375 12.321428571428571  C 0.078125 12.154761904761905  0 11.952380952380953  0 11.714285714285715  L 0 5.7142857142857135  C 0 5.476190476190476  0.055803571428571425 5.2142857142857135  0.1674107142857143 4.928571428571429  C 0.27901785714285715 4.642857142857142  0.4129464285714286 4.416666666666666  0.5691964285714285 4.25  L 3.984375 0.6071428571428577  C 4.140625 0.4404761904761898  4.352678571428572 0.29761904761904745  4.620535714285714 0.17857142857142883  C 4.888392857142858 0.0595238095238102  5.133928571428571 0  5.357142857142858 0  L 8.839285714285715 0  C 9.062500000000002 0  9.252232142857144 0.08333333333333393  9.408482142857144 0.25  C 9.564732142857142 0.4166666666666661  9.642857142857144 0.6190476190476186  9.642857142857144 0.8571428571428577  L 9.642857142857144 3.7857142857142865  C 10.022321428571429 3.5476190476190474  10.379464285714285 3.428571428571429  10.714285714285715 3.428571428571429  Z M 9.642857142857144 8  L 9.642857142857144 5.330357142857142  L 7.140066964285714 8  L 9.642857142857144 8  Z M 4.285714285714286 4.571428571428571  L 4.285714285714286 1.9017857142857135  L 1.782924107142857 4.571428571428571  L 4.285714285714286 4.571428571428571  Z M 5.524553571428572 8.357142857142858  C 5.636160714285714 8.071428571428571  5.7700892857142865 7.845238095238095  5.926339285714286 7.678571428571429  L 8.571428571428571 4.857142857142858  L 8.571428571428571 1.1428571428571423  L 5.357142857142858 1.1428571428571423  L 5.357142857142858 4.857142857142858  C 5.357142857142858 5.095238095238093  5.279017857142858 5.2976190476190474  5.122767857142858 5.4642857142857135  C 4.966517857142858 5.63095238095238  4.776785714285714 5.7142857142857135  4.553571428571428 5.7142857142857135  L 1.0714285714285714 5.7142857142857135  L 1.0714285714285714 11.428571428571429  L 5.357142857142858 11.428571428571429  L 5.357142857142858 9.142857142857142  C 5.357142857142858 8.904761904761905  5.41294642857143 8.642857142857142  5.524553571428572 8.357142857142858  Z M 6.428571428571428 14.857142857142858  L 14 14.857142857142858  L 14 4.571428571428571  L 10.714285714285715 4.571428571428571  L 10.714285714285715 8.285714285714285  C 10.714285714285715 8.523809523809524  10.636160714285715 8.726190476190474  10.479910714285715 8.892857142857142  C 10.323660714285715 9.05952380952381  10.133928571428573 9.142857142857142  9.910714285714285 9.142857142857142  L 6.428571428571428 9.142857142857142  L 6.428571428571428 14.857142857142858  Z " fill-rule="nonzero" fill="#7f7f7f" stroke="none" transform="matrix(1 0 0 1 1293 528 )" />
  </g>
</svg>