<?xml version="1.0" encoding="utf-8"?>
<svg version="1.1" xmlns:xlink="http://www.w3.org/1999/xlink" width="33px" height="41px" xmlns="http://www.w3.org/2000/svg">
  <defs>
    <filter x="749px" y="351px" width="33px" height="41px" filterUnits="userSpaceOnUse" id="filter30">
      <feOffset dx="1" dy="1" in="SourceAlpha" result="shadowOffsetInner" />
      <feGaussianBlur stdDeviation="2.5" in="shadowOffsetInner" result="shadowGaussian" />
      <feComposite in2="shadowGaussian" operator="atop" in="SourceAlpha" result="shadowComposite" />
      <feColorMatrix type="matrix" values="0 0 0 0 0  0 0 0 0 0  0 0 0 0 0  0 0 0 0.6980392156862745 0  " in="shadowComposite" />
    </filter>
    <g id="widget31">
      <path d="M 764.5 385.02985538131156  C 760.1 377.6529879269609  753.5 373.2268674543506  753.5 365.85  C 753.5 362.0057142857143  755.7 355.5  764.5 355.5  C 773.3 355.5  775.5 362.0057142857143  775.5 365.85  C 775.5 373.2268674543506  768.9 377.6529879269609  764.5 385.02985538131156  Z " fill-rule="nonzero" fill="#00c2ff" stroke="none" />
      <path d="M 764.5 386  C 759.9 378.25  753 373.6  753 365.85  C 753 361.82  755.3 355  764.5 355  C 773.7 355  776 361.82  776 365.85  C 776 373.6  769.1 378.25  764.5 386  Z M 764.5 384.05971076262307  C 768.7 377.0559758539219  775 372.8537349087012  775 365.85  C 775 362.19142857142856  772.9 356  764.5 356  C 756.1 356  754 362.19142857142856  754 365.85  C 754 372.8537349087012  760.3 377.0559758539219  764.5 384.05971076262307  Z " fill-rule="nonzero" fill="#ffffff" stroke="none" />
    </g>
  </defs>
  <g transform="matrix(1 0 0 1 -749 -351 )">
    <use xlink:href="#widget31" filter="url(#filter30)" />
    <use xlink:href="#widget31" />
  </g>
</svg>