<?xml version="1.0" encoding="utf-8"?>
<svg version="1.1" xmlns:xlink="http://www.w3.org/1999/xlink" width="369px" height="10px" preserveAspectRatio="xMinYMid meet" viewBox="1916 500  369 8" xmlns="http://www.w3.org/2000/svg">
  <path d="M 1922 504  L 2275 504  A 5 5 0 0 0 2280 499 L 2280 446  A 5 5 0 0 1 2285 441 L 2615 441  " stroke-width="2" stroke="#ffb300" fill="none" />
  <path d="M 1919.5 500.5  A 3.5 3.5 0 0 0 1916 504 A 3.5 3.5 0 0 0 1919.5 507.5 A 3.5 3.5 0 0 0 1923 504 A 3.5 3.5 0 0 0 1919.5 500.5 Z M 1919.5 502.5  A 1.5 1.5 0 0 1 1921 504 A 1.5 1.5 0 0 1 1919.5 505.5 A 1.5 1.5 0 0 1 1918 504 A 1.5 1.5 0 0 1 1919.5 502.5 Z M 2613 450.5  L 2627 441  L 2613 431.5  L 2613 450.5  Z " fill-rule="nonzero" fill="#ffb300" stroke="none" />
</svg>