<?xml version="1.0" encoding="utf-8"?>
<svg version="1.1" xmlns:xlink="http://www.w3.org/1999/xlink" width="20px" height="18px" xmlns="http://www.w3.org/2000/svg">
  <g transform="matrix(1 0 0 1 -1350 -624 )">
    <path d="M 3.3795379537953796 16.479207920792078  L 4.792079207920792 16.479207920792078  L 5.993399339933994 15.398019801980197  L 2.891089108910891 12.605940594059406  L 1.6897689768976898 13.687128712871287  L 1.6897689768976898 14.95841584158416  L 3.3795379537953796 14.95841584158416  L 3.3795379537953796 16.479207920792078  Z M 11.603960396039604 5.655445544554455  C 11.665566556655666 5.6  11.696369636963697 5.532673267326732  11.696369636963697 5.453465346534655  C 11.696369636963697 5.279207920792079  11.5995599559956 5.192079207920791  11.405940594059405 5.192079207920791  C 11.31793179317932 5.192079207920791  11.243124312431245 5.219801980198019  11.181518151815181 5.275247524752476  L 4.026402640264026 11.714851485148516  C 3.964796479647965 11.770297029702968  3.933993399339934 11.837623762376236  3.933993399339934 11.916831683168317  C 3.933993399339934 12.091089108910888  4.030803080308031 12.17821782178218  4.224422442244224 12.17821782178218  C 4.312431243124313 12.17821782178218  4.387238723872388 12.15049504950495  4.448844884488449 12.095049504950495  L 11.603960396039604 5.655445544554455  Z M 0 13.057425742574258  L 10.983498349834983 3.1722772277227733  L 16.475247524752476 8.114851485148515  L 5.491749174917492 18  L 0 18  L 0 13.057425742574258  Z M 19.511551155115512 3.231683168316831  C 19.83718371837184 3.540594059405941  20 3.900990099009901  20 4.312871287128713  C 20 4.732673267326732  19.83718371837184 5.089108910891087  19.511551155115512 5.382178217821783  L 17.32013201320132 7.354455445544554  L 11.82838283828383 2.4118811881188127  L 14.019801980198018 0.45148514851485055  C 14.336633663366335 0.15049504950494885  14.732673267326732 0  15.207920792079207 0  C 15.674367436743676 0  16.074807480748078 0.15049504950494885  16.40924092409241 0.45148514851485055  L 19.511551155115512 3.231683168316831  Z " fill-rule="nonzero" fill="#7f7f7f" stroke="none" transform="matrix(1 0 0 1 1350 624 )" />
  </g>
</svg>