<?xml version="1.0" encoding="utf-8"?>
<svg version="1.1" xmlns:xlink="http://www.w3.org/1999/xlink" width="18px" height="18px" viewBox="17 61  18 18" xmlns="http://www.w3.org/2000/svg">
  <path d="M 26 62  C 30.48 62  34 65.52  34 70  C 34 74.48  30.48 78  26 78  C 21.52 78  18 74.48  18 70  C 18 65.52  21.52 62  26 62  Z " fill-rule="nonzero" fill="#6200ee" stroke="none" fill-opacity="0" />
  <path d="M 26 62  C 30.48 62  34 65.52  34 70  C 34 74.48  30.48 78  26 78  C 21.52 78  18 74.48  18 70  C 18 65.52  21.52 62  26 62  Z " stroke-width="2" stroke="#1e98d7" fill="none" />
  <path d="M 26 74.5  C 23.48 74.5  21.5 72.52  21.5 70  C 21.5 67.48  23.48 65.5  26 65.5  C 28.52 65.5  30.5 67.48  30.5 70  C 30.5 72.52  28.52 74.5  26 74.5  " fill-rule="nonzero" fill="#1e98d7" stroke="none" />
</svg>