<?xml version="1.0" encoding="utf-8"?>
<svg version="1.1" xmlns:xlink="http://www.w3.org/1999/xlink" width="21px" height="22px" xmlns="http://www.w3.org/2000/svg">
  <defs>
    <mask fill="white" id="clip27">
      <path d="M 12.126953125 5.62890625  C 12.208984375 5.71484375  12.25 5.824652777777775  12.25 5.958333333333334  L 12.25 12.375  C 12.25 12.508680555555554  12.208984375 12.618489583333332  12.126953125 12.704427083333332  C 12.044921875 12.790364583333332  11.940104166666668 12.833333333333332  11.8125 12.833333333333332  L 7.4375 12.833333333333332  C 7.309895833333335 12.833333333333332  7.205078125 12.790364583333332  7.123046875 12.704427083333332  C 7.041015625 12.618489583333332  7 12.508680555555554  7 12.375  L 7 11.458333333333332  C 7 11.324652777777777  7.041015625 11.21484375  7.123046875 11.12890625  C 7.205078125 11.04296875  7.309895833333335 11  7.4375 11  L 10.5 11  L 10.5 5.958333333333334  C 10.5 5.824652777777775  10.541015625 5.71484375  10.623046875 5.62890625  C 10.705078125000002 5.54296875  10.809895833333336 5.5  10.9375 5.5  L 11.8125 5.5  C 11.940104166666668 5.5  12.044921875 5.54296875  12.126953125 5.62890625  Z M 16.939453125 14.91015625  C 17.604817708333332 13.716579861111109  17.9375 12.413194444444446  17.9375 11  C 17.9375 9.586805555555554  17.604817708333332 8.28342013888889  16.939453125 7.08984375  C 16.274088541666668 5.896267361111109  15.371744791666668 4.950954861111109  14.232421875 4.25390625  C 13.093098958333334 3.5568576388888884  11.848958333333334 3.208333333333334  10.5 3.208333333333334  C 9.151041666666666 3.208333333333334  7.906901041666668 3.5568576388888884  6.767578125 4.25390625  C 5.628255208333334 4.950954861111109  4.725911458333334 5.896267361111109  4.060546875 7.08984375  C 3.395182291666667 8.28342013888889  3.0625 9.586805555555554  3.0625 11  C 3.0625 12.413194444444446  3.395182291666667 13.716579861111109  4.060546875 14.91015625  C 4.725911458333334 16.103732638888886  5.628255208333334 17.04904513888889  6.767578125 17.74609375  C 7.906901041666668 18.44314236111111  9.151041666666666 18.791666666666664  10.5 18.791666666666664  C 11.848958333333334 18.791666666666664  13.093098958333334 18.44314236111111  14.232421875 17.74609375  C 15.371744791666668 17.04904513888889  16.274088541666668 16.103732638888886  16.939453125 14.91015625  Z M 19.591796875 5.478515625  C 20.530598958333332 7.163845486111109  21 9.004340277777775  21 11  C 21 12.995659722222223  20.530598958333332 14.836154513888886  19.591796875 16.521484375  C 18.652994791666668 18.20681423611111  17.379231770833332 19.54123263888889  15.7705078125 20.524739583333336  C 14.161783854166668 21.50824652777778  12.404947916666668 22  10.5 22  C 8.595052083333334 22  6.838216145833334 21.50824652777778  5.2294921875 20.524739583333336  C 3.620768229166667 19.54123263888889  2.3470052083333335 18.20681423611111  1.408203125 16.521484375  C 0.46940104166666663 14.836154513888886  0 12.995659722222223  0 11  C 0 9.004340277777775  0.46940104166666663 7.163845486111109  1.408203125 5.478515625  C 2.3470052083333335 3.7931857638888884  3.620768229166667 2.458767361111109  5.2294921875 1.4752604166666659  C 6.838216145833334 0.4917534722222203  8.595052083333334 0  10.5 0  C 12.404947916666668 0  14.161783854166668 0.4917534722222203  15.7705078125 1.4752604166666659  C 17.379231770833332 2.458767361111109  18.652994791666668 3.7931857638888884  19.591796875 5.478515625  Z " fill-rule="evenodd" />
    </mask>
  </defs>
  <g transform="matrix(1 0 0 1 -931 -392 )">
    <path d="M 12.126953125 5.62890625  C 12.208984375 5.71484375  12.25 5.824652777777775  12.25 5.958333333333334  L 12.25 12.375  C 12.25 12.508680555555554  12.208984375 12.618489583333332  12.126953125 12.704427083333332  C 12.044921875 12.790364583333332  11.940104166666668 12.833333333333332  11.8125 12.833333333333332  L 7.4375 12.833333333333332  C 7.309895833333335 12.833333333333332  7.205078125 12.790364583333332  7.123046875 12.704427083333332  C 7.041015625 12.618489583333332  7 12.508680555555554  7 12.375  L 7 11.458333333333332  C 7 11.324652777777777  7.041015625 11.21484375  7.123046875 11.12890625  C 7.205078125 11.04296875  7.309895833333335 11  7.4375 11  L 10.5 11  L 10.5 5.958333333333334  C 10.5 5.824652777777775  10.541015625 5.71484375  10.623046875 5.62890625  C 10.705078125000002 5.54296875  10.809895833333336 5.5  10.9375 5.5  L 11.8125 5.5  C 11.940104166666668 5.5  12.044921875 5.54296875  12.126953125 5.62890625  Z M 16.939453125 14.91015625  C 17.604817708333332 13.716579861111109  17.9375 12.413194444444446  17.9375 11  C 17.9375 9.586805555555554  17.604817708333332 8.28342013888889  16.939453125 7.08984375  C 16.274088541666668 5.896267361111109  15.371744791666668 4.950954861111109  14.232421875 4.25390625  C 13.093098958333334 3.5568576388888884  11.848958333333334 3.208333333333334  10.5 3.208333333333334  C 9.151041666666666 3.208333333333334  7.906901041666668 3.5568576388888884  6.767578125 4.25390625  C 5.628255208333334 4.950954861111109  4.725911458333334 5.896267361111109  4.060546875 7.08984375  C 3.395182291666667 8.28342013888889  3.0625 9.586805555555554  3.0625 11  C 3.0625 12.413194444444446  3.395182291666667 13.716579861111109  4.060546875 14.91015625  C 4.725911458333334 16.103732638888886  5.628255208333334 17.04904513888889  6.767578125 17.74609375  C 7.906901041666668 18.44314236111111  9.151041666666666 18.791666666666664  10.5 18.791666666666664  C 11.848958333333334 18.791666666666664  13.093098958333334 18.44314236111111  14.232421875 17.74609375  C 15.371744791666668 17.04904513888889  16.274088541666668 16.103732638888886  16.939453125 14.91015625  Z M 19.591796875 5.478515625  C 20.530598958333332 7.163845486111109  21 9.004340277777775  21 11  C 21 12.995659722222223  20.530598958333332 14.836154513888886  19.591796875 16.521484375  C 18.652994791666668 18.20681423611111  17.379231770833332 19.54123263888889  15.7705078125 20.524739583333336  C 14.161783854166668 21.50824652777778  12.404947916666668 22  10.5 22  C 8.595052083333334 22  6.838216145833334 21.50824652777778  5.2294921875 20.524739583333336  C 3.620768229166667 19.54123263888889  2.3470052083333335 18.20681423611111  1.408203125 16.521484375  C 0.46940104166666663 14.836154513888886  0 12.995659722222223  0 11  C 0 9.004340277777775  0.46940104166666663 7.163845486111109  1.408203125 5.478515625  C 2.3470052083333335 3.7931857638888884  3.620768229166667 2.458767361111109  5.2294921875 1.4752604166666659  C 6.838216145833334 0.4917534722222203  8.595052083333334 0  10.5 0  C 12.404947916666668 0  14.161783854166668 0.4917534722222203  15.7705078125 1.4752604166666659  C 17.379231770833332 2.458767361111109  18.652994791666668 3.7931857638888884  19.591796875 5.478515625  Z " fill-rule="nonzero" fill="#ffffff" stroke="none" transform="matrix(1 0 0 1 931 392 )" />
    <path d="M 12.126953125 5.62890625  C 12.208984375 5.71484375  12.25 5.824652777777775  12.25 5.958333333333334  L 12.25 12.375  C 12.25 12.508680555555554  12.208984375 12.618489583333332  12.126953125 12.704427083333332  C 12.044921875 12.790364583333332  11.940104166666668 12.833333333333332  11.8125 12.833333333333332  L 7.4375 12.833333333333332  C 7.309895833333335 12.833333333333332  7.205078125 12.790364583333332  7.123046875 12.704427083333332  C 7.041015625 12.618489583333332  7 12.508680555555554  7 12.375  L 7 11.458333333333332  C 7 11.324652777777777  7.041015625 11.21484375  7.123046875 11.12890625  C 7.205078125 11.04296875  7.309895833333335 11  7.4375 11  L 10.5 11  L 10.5 5.958333333333334  C 10.5 5.824652777777775  10.541015625 5.71484375  10.623046875 5.62890625  C 10.705078125000002 5.54296875  10.809895833333336 5.5  10.9375 5.5  L 11.8125 5.5  C 11.940104166666668 5.5  12.044921875 5.54296875  12.126953125 5.62890625  Z " stroke-width="2" stroke="#7f7f7f" fill="none" transform="matrix(1 0 0 1 931 392 )" mask="url(#clip27)" />
    <path d="M 16.939453125 14.91015625  C 17.604817708333332 13.716579861111109  17.9375 12.413194444444446  17.9375 11  C 17.9375 9.586805555555554  17.604817708333332 8.28342013888889  16.939453125 7.08984375  C 16.274088541666668 5.896267361111109  15.371744791666668 4.950954861111109  14.232421875 4.25390625  C 13.093098958333334 3.5568576388888884  11.848958333333334 3.208333333333334  10.5 3.208333333333334  C 9.151041666666666 3.208333333333334  7.906901041666668 3.5568576388888884  6.767578125 4.25390625  C 5.628255208333334 4.950954861111109  4.725911458333334 5.896267361111109  4.060546875 7.08984375  C 3.395182291666667 8.28342013888889  3.0625 9.586805555555554  3.0625 11  C 3.0625 12.413194444444446  3.395182291666667 13.716579861111109  4.060546875 14.91015625  C 4.725911458333334 16.103732638888886  5.628255208333334 17.04904513888889  6.767578125 17.74609375  C 7.906901041666668 18.44314236111111  9.151041666666666 18.791666666666664  10.5 18.791666666666664  C 11.848958333333334 18.791666666666664  13.093098958333334 18.44314236111111  14.232421875 17.74609375  C 15.371744791666668 17.04904513888889  16.274088541666668 16.103732638888886  16.939453125 14.91015625  Z " stroke-width="2" stroke="#7f7f7f" fill="none" transform="matrix(1 0 0 1 931 392 )" mask="url(#clip27)" />
    <path d="M 19.591796875 5.478515625  C 20.530598958333332 7.163845486111109  21 9.004340277777775  21 11  C 21 12.995659722222223  20.530598958333332 14.836154513888886  19.591796875 16.521484375  C 18.652994791666668 18.20681423611111  17.379231770833332 19.54123263888889  15.7705078125 20.524739583333336  C 14.161783854166668 21.50824652777778  12.404947916666668 22  10.5 22  C 8.595052083333334 22  6.838216145833334 21.50824652777778  5.2294921875 20.524739583333336  C 3.620768229166667 19.54123263888889  2.3470052083333335 18.20681423611111  1.408203125 16.521484375  C 0.46940104166666663 14.836154513888886  0 12.995659722222223  0 11  C 0 9.004340277777775  0.46940104166666663 7.163845486111109  1.408203125 5.478515625  C 2.3470052083333335 3.7931857638888884  3.620768229166667 2.458767361111109  5.2294921875 1.4752604166666659  C 6.838216145833334 0.4917534722222203  8.595052083333334 0  10.5 0  C 12.404947916666668 0  14.161783854166668 0.4917534722222203  15.7705078125 1.4752604166666659  C 17.379231770833332 2.458767361111109  18.652994791666668 3.7931857638888884  19.591796875 5.478515625  Z " stroke-width="2" stroke="#7f7f7f" fill="none" transform="matrix(1 0 0 1 931 392 )" mask="url(#clip27)" />
  </g>
</svg>