<?xml version="1.0" encoding="utf-8"?>
<svg version="1.1" xmlns:xlink="http://www.w3.org/1999/xlink" width="21px" height="26px" xmlns="http://www.w3.org/2000/svg">
  <g transform="matrix(1 0 0 1 -621 -353 )">
    <path d="M 5.33203125 23.901041666666668  C 5.71484375 23.585069444444443  5.90625 23.20138888888889  5.90625 22.75  C 5.90625 22.29861111111111  5.71484375 21.914930555555557  5.33203125 21.598958333333332  C 4.94921875 21.28298611111111  4.484375 21.125  3.9375 21.125  C 3.390625 21.125  2.9257812500000004 21.28298611111111  2.54296875 21.598958333333332  C 2.16015625 21.914930555555557  1.96875 22.29861111111111  1.96875 22.75  C 1.96875 23.20138888888889  2.16015625 23.585069444444443  2.54296875 23.901041666666668  C 2.9257812500000004 24.21701388888889  3.390625 24.375  3.9375 24.375  C 4.484375 24.375  4.94921875 24.21701388888889  5.33203125 23.901041666666668  Z M 5.33203125 4.401041666666668  C 5.71484375 4.085069444444442  5.90625 3.7013888888888875  5.90625 3.25  C 5.90625 2.79861111111111  5.71484375 2.414930555555552  5.33203125 2.098958333333332  C 4.94921875 1.7829861111111098  4.484375 1.625  3.9375 1.625  C 3.390625 1.625  2.9257812500000004 1.7829861111111098  2.54296875 2.098958333333332  C 2.16015625 2.414930555555552  1.96875 2.79861111111111  1.96875 3.25  C 1.96875 3.7013888888888875  2.16015625 4.085069444444442  2.54296875 4.401041666666668  C 2.9257812500000004 4.7170138888888875  3.390625 4.875  3.9375 4.875  C 4.484375 4.875  4.94921875 4.7170138888888875  5.33203125 4.401041666666668  Z M 18.45703125 6.567708333333332  C 18.83984375 6.25173611111111  19.03125 5.868055555555552  19.03125 5.416666666666668  C 19.03125 4.965277777777778  18.83984375 4.58159722222222  18.45703125 4.265625  C 18.07421875 3.9496527777777777  17.609375 3.791666666666668  17.0625 3.791666666666668  C 16.515625000000004 3.791666666666668  16.05078125 3.9496527777777777  15.66796875 4.265625  C 15.28515625 4.58159722222222  15.09375 4.965277777777778  15.09375 5.416666666666668  C 15.09375 5.868055555555552  15.28515625 6.25173611111111  15.66796875 6.567708333333332  C 16.05078125 6.883680555555552  16.515625000000004 7.041666666666668  17.0625 7.041666666666668  C 17.609375 7.041666666666668  18.07421875 6.883680555555552  18.45703125 6.567708333333332  Z M 19.8515625 3.114583333333332  C 20.6171875 3.7465277777777777  21 4.5138888888888875  21 5.416666666666668  C 21 6.00347222222222  20.822265625 6.547960069444442  20.466796875 7.050130208333332  C 20.111328125 7.55230034722222  19.632812500000004 7.944444444444442  19.03125 8.2265625  C 19.00390625 11.465277777777777  17.458984375 13.801215277777775  14.396484375 15.234375  C 13.48046875 15.663194444444445  12.092773437500002 16.120225694444446  10.2333984375 16.60546875  C 8.4833984375 17.056857638888886  7.32470703125 17.457465277777775  6.75732421875 17.807291666666664  C 6.189941406250001 18.157118055555554  5.90625 18.721354166666664  5.90625 19.5  L 5.90625 19.940104166666668  C 6.507812500000001 20.22222222222222  6.986328125 20.614366319444443  7.341796875 21.116536458333332  C 7.697265625 21.61870659722222  7.875 22.163194444444443  7.875 22.75  C 7.875 23.65277777777778  7.4921875 24.42013888888889  6.7265625 25.052083333333332  C 5.9609375 25.68402777777778  5.03125 26  3.9375 26  C 2.8437500000000004 26  1.9140625000000002 25.68402777777778  1.1484375 25.052083333333332  C 0.3828125 24.42013888888889  0 23.65277777777778  0 22.75  C 0 22.163194444444443  0.17773437500000006 21.61870659722222  0.5332031250000001 21.116536458333332  C 0.8886718750000002 20.614366319444443  1.3671875 20.22222222222222  2 19.940104166666668  L 2 6.059895833333332  C 1.3671875 5.777777777777778  0.8886718750000002 5.385633680555552  0.5332031250000001 4.883463541666668  C 0.17773437500000006 4.381293402777778  0 3.836805555555552  0 3.25  C 0 2.3472222222222197  0.3828125 1.5798611111111098  1.1484375 0.9479166666666676  C 1.9140625000000002 0.31597222222221966  2.8437500000000004 0  3.9375 0  C 5.03125 0  5.9609375 0.31597222222221966  6.7265625 0.9479166666666676  C 7.4921875 1.5798611111111098  7.875 2.3472222222222197  7.875 3.25  C 7.875 3.836805555555552  7.697265625 4.381293402777778  7.341796875 4.883463541666668  C 6.986328125 5.385633680555552  6.507812500000001 5.777777777777778  5.90625 6.059895833333332  L 5.90625 14.47265625  C 6.64453125 14.17925347222222  7.697265625000001 13.85763888888889  9.064453125 13.5078125  C 9.81640625 13.31597222222222  10.41455078125 13.149522569444445  10.85888671875 13.008463541666664  C 11.303222656250002 12.867404513888888  11.785156250000002 12.692491319444443  12.3046875 12.483723958333332  C 12.82421875 12.274956597222223  13.2275390625 12.052083333333332  13.5146484375 11.815104166666668  C 13.8017578125 11.578125  14.07861328125 11.290364583333332  14.34521484375 10.951822916666668  C 14.61181640625 10.61328125  14.80322265625 10.221137152777777  14.91943359375 9.775390625  C 15.035644531250002 9.32964409722222  15.09375 8.813368055555552  15.09375 8.2265625  C 14.492187500000002 7.944444444444442  14.013671875 7.55230034722222  13.658203125 7.050130208333332  C 13.302734375000002 6.547960069444442  13.125 6.00347222222222  13.125 5.416666666666668  C 13.125 4.5138888888888875  13.507812500000002 3.7465277777777777  14.2734375 3.114583333333332  C 15.0390625 2.4826388888888875  15.968750000000002 2.166666666666668  17.0625 2.166666666666668  C 18.156250000000004 2.166666666666668  19.0859375 2.4826388888888875  19.8515625 3.114583333333332  Z " fill-rule="nonzero" fill="#7f7f7f" stroke="none" transform="matrix(1 0 0 1 621 353 )" />
  </g>
</svg>