<?xml version="1.0" encoding="utf-8"?>
<svg version="1.1" xmlns:xlink="http://www.w3.org/1999/xlink" width="19px" height="24px" xmlns="http://www.w3.org/2000/svg">
  <defs>
    <mask fill="white" id="clip25">
      <path d="M 8.346754807692308 2.2433035714285703  C 8.065104166666668 1.8906249999999991  7.71875 1.7142857142857135  7.307692307692308 1.7142857142857135  C 6.904246794871796 1.7142857142857135  6.559795673076923 1.8816964285714297  6.274338942307692 2.2165178571428568  C 5.988882211538462 2.5513392857142865  5.846153846153847 2.9553571428571397  5.846153846153847 3.4285714285714297  L 5.846153846153847 10.285714285714286  L 5.846153846153847 15.428571428571427  L 4.1219951923076925 12.723214285714286  C 3.8098958333333335 12.241071428571427  3.402644230769231 12  2.900240384615385 12  C 2.5044070512820515 12  2.1656650641025643 12.169642857142856  1.884014423076923 12.508928571428573  C 1.6023637820512822 12.848214285714285  1.4615384615384617 13.249999999999998  1.4615384615384617 13.714285714285714  C 1.4615384615384617 14.098214285714285  1.5604967948717952 14.441964285714285  1.7584134615384617 14.745535714285714  L 6.143028846153847 21.60267857142857  C 6.432291666666667 22.058035714285715  6.82051282051282 22.285714285714285  7.307692307692308 22.285714285714285  L 15.506009615384617 22.285714285714285  C 15.673477564102564 22.285714285714285  15.823818108974361 22.22544642857143  15.95703125 22.104910714285715  C 16.090244391025642 21.984375  16.175881410256412 21.830357142857142  16.213942307692307 21.642857142857142  L 17.264423076923077 16.714285714285715  C 17.447115384615383 15.857142857142858  17.53846153846154 14.99107142857143  17.53846153846154 14.116071428571427  L 17.53846153846154 11.20982142857143  C 17.53846153846154 10.84375  17.431891025641026 10.526785714285714  17.21875 10.25892857142857  C 17.005608974358974 9.99107142857143  16.746794871794872 9.857142857142858  16.442307692307693 9.857142857142858  C 16.137820512820515 9.857142857142858  15.87900641025641 9.982142857142854  15.665865384615383 10.232142857142858  C 15.452724358974361 10.482142857142856  15.346153846153847 10.785714285714285  15.346153846153847 11.142857142857142  L 14.98076923076923 11.142857142857142  L 14.98076923076923 10.325892857142858  C 14.98076923076923 9.89732142857143  14.858974358974361 9.533482142857142  14.615384615384617 9.234375  C 14.371794871794874 8.935267857142856  14.067307692307693 8.785714285714286  13.701923076923077 8.785714285714286  C 13.351762820512821 8.785714285714286  13.05108173076923 8.933035714285714  12.799879807692307 9.22767857142857  C 12.548677884615383 9.52232142857143  12.423076923076923 9.874999999999998  12.423076923076923 10.285714285714286  L 12.423076923076923 11.142857142857142  L 12.057692307692307 11.142857142857142  L 12.057692307692307 9.9375  C 12.057692307692307 9.446428571428571  11.916866987179487 9.024553571428571  11.635216346153847 8.671875  C 11.353565705128206 8.319196428571427  11.00721153846154 8.142857142857142  10.596153846153847 8.142857142857142  C 10.192708333333334 8.142857142857142  9.84825721153846 8.310267857142858  9.56280048076923 8.645089285714286  C 9.27734375 8.979910714285714  9.134615384615385 9.38392857142857  9.134615384615385 9.857142857142858  L 9.134615384615385 11.142857142857142  L 8.76923076923077 11.142857142857142  L 8.76923076923077 3.5089285714285703  C 8.76923076923077 3.0178571428571415  8.628405448717949 2.5959821428571415  8.346754807692308 2.2433035714285703  Z M 5.240985576923077 1.0044642857142865  C 5.811899038461539 0.3348214285714297  6.500801282051282 0  7.307692307692308 0  C 8.122195512820513 0  8.813000801282051 0.3459821428571441  9.380108173076923 1.0379464285714297  C 9.947215544871797 1.7299107142857126  10.23076923076923 2.553571428571426  10.23076923076923 3.5089285714285703  L 10.23076923076923 6.455357142857143  C 10.39823717948718 6.437499999999999  10.520032051282055 6.42857142857143  10.596153846153847 6.42857142857143  C 11.349759615384617 6.42857142857143  12.00821314102564 6.736607142857143  12.571514423076923 7.35267857142857  C 12.929286858974361 7.16517857142857  13.306089743589745 7.07142857142857  13.701923076923077 7.07142857142857  C 14.562099358974361 7.07142857142857  15.262419871794874 7.45982142857143  15.802884615384617 8.236607142857142  C 16.00841346153846 8.174107142857142  16.22155448717949 8.142857142857142  16.442307692307693 8.142857142857142  C 17.157852564102566 8.142857142857142  17.763020833333336 8.44419642857143  18.2578125 9.046875  C 18.752604166666668 9.64955357142857  19 10.370535714285715  19 11.20982142857143  L 19 14.116071428571427  C 19 15.151785714285712  18.89342948717949 16.15625  18.68028846153846 17.129464285714285  L 17.629807692307693 22.058035714285715  C 17.50801282051282 22.629464285714285  17.24919871794872 23.095982142857142  16.853365384615383 23.457589285714285  C 16.457532051282055 23.81919642857143  16.00841346153846 24  15.506009615384617 24  L 7.307692307692308 24  C 6.850961538461538 24  6.415164262820514 23.877232142857142  6.00030048076923 23.63169642857143  C 5.585436698717949 23.386160714285715  5.2409855769230775 23.05357142857143  4.966947115384615 22.63392857142857  L 0.5823317307692307 15.776785714285714  C 0.19411057692307693 15.169642857142856  0 14.482142857142858  0 13.714285714285714  C 0 12.776785714285714  0.2835536858974359 11.970982142857142  0.8506610576923077 11.296875  C 1.4177684294871795 10.622767857142858  2.1009615384615383 10.285714285714286  2.900240384615385 10.285714285714286  C 3.4407051282051286 10.285714285714286  3.935496794871795 10.441964285714285  4.384615384615385 10.754464285714286  L 4.384615384615385 3.4285714285714297  C 4.384615384615385 2.482142857142855  4.670072115384615 1.6741071428571432  5.240985576923077 1.0044642857142865  Z M 8.403846153846153 18.857142857142858  L 8.76923076923077 18.857142857142858  L 8.76923076923077 13.714285714285714  L 8.403846153846153 13.714285714285714  L 8.403846153846153 18.857142857142858  Z M 11.326923076923077 18.857142857142858  L 11.692307692307693 18.857142857142858  L 11.692307692307693 13.714285714285714  L 11.326923076923077 13.714285714285714  L 11.326923076923077 18.857142857142858  Z M 14.25 18.857142857142858  L 14.615384615384617 18.857142857142858  L 14.615384615384617 13.714285714285714  L 14.25 13.714285714285714  L 14.25 18.857142857142858  Z " fill-rule="evenodd" />
    </mask>
  </defs>
  <g transform="matrix(1 0 0 1 -618 -390 )">
    <path d="M 8.346754807692308 2.2433035714285703  C 8.065104166666668 1.8906249999999991  7.71875 1.7142857142857135  7.307692307692308 1.7142857142857135  C 6.904246794871796 1.7142857142857135  6.559795673076923 1.8816964285714297  6.274338942307692 2.2165178571428568  C 5.988882211538462 2.5513392857142865  5.846153846153847 2.9553571428571397  5.846153846153847 3.4285714285714297  L 5.846153846153847 10.285714285714286  L 5.846153846153847 15.428571428571427  L 4.1219951923076925 12.723214285714286  C 3.8098958333333335 12.241071428571427  3.402644230769231 12  2.900240384615385 12  C 2.5044070512820515 12  2.1656650641025643 12.169642857142856  1.884014423076923 12.508928571428573  C 1.6023637820512822 12.848214285714285  1.4615384615384617 13.249999999999998  1.4615384615384617 13.714285714285714  C 1.4615384615384617 14.098214285714285  1.5604967948717952 14.441964285714285  1.7584134615384617 14.745535714285714  L 6.143028846153847 21.60267857142857  C 6.432291666666667 22.058035714285715  6.82051282051282 22.285714285714285  7.307692307692308 22.285714285714285  L 15.506009615384617 22.285714285714285  C 15.673477564102564 22.285714285714285  15.823818108974361 22.22544642857143  15.95703125 22.104910714285715  C 16.090244391025642 21.984375  16.175881410256412 21.830357142857142  16.213942307692307 21.642857142857142  L 17.264423076923077 16.714285714285715  C 17.447115384615383 15.857142857142858  17.53846153846154 14.99107142857143  17.53846153846154 14.116071428571427  L 17.53846153846154 11.20982142857143  C 17.53846153846154 10.84375  17.431891025641026 10.526785714285714  17.21875 10.25892857142857  C 17.005608974358974 9.99107142857143  16.746794871794872 9.857142857142858  16.442307692307693 9.857142857142858  C 16.137820512820515 9.857142857142858  15.87900641025641 9.982142857142854  15.665865384615383 10.232142857142858  C 15.452724358974361 10.482142857142856  15.346153846153847 10.785714285714285  15.346153846153847 11.142857142857142  L 14.98076923076923 11.142857142857142  L 14.98076923076923 10.325892857142858  C 14.98076923076923 9.89732142857143  14.858974358974361 9.533482142857142  14.615384615384617 9.234375  C 14.371794871794874 8.935267857142856  14.067307692307693 8.785714285714286  13.701923076923077 8.785714285714286  C 13.351762820512821 8.785714285714286  13.05108173076923 8.933035714285714  12.799879807692307 9.22767857142857  C 12.548677884615383 9.52232142857143  12.423076923076923 9.874999999999998  12.423076923076923 10.285714285714286  L 12.423076923076923 11.142857142857142  L 12.057692307692307 11.142857142857142  L 12.057692307692307 9.9375  C 12.057692307692307 9.446428571428571  11.916866987179487 9.024553571428571  11.635216346153847 8.671875  C 11.353565705128206 8.319196428571427  11.00721153846154 8.142857142857142  10.596153846153847 8.142857142857142  C 10.192708333333334 8.142857142857142  9.84825721153846 8.310267857142858  9.56280048076923 8.645089285714286  C 9.27734375 8.979910714285714  9.134615384615385 9.38392857142857  9.134615384615385 9.857142857142858  L 9.134615384615385 11.142857142857142  L 8.76923076923077 11.142857142857142  L 8.76923076923077 3.5089285714285703  C 8.76923076923077 3.0178571428571415  8.628405448717949 2.5959821428571415  8.346754807692308 2.2433035714285703  Z M 5.240985576923077 1.0044642857142865  C 5.811899038461539 0.3348214285714297  6.500801282051282 0  7.307692307692308 0  C 8.122195512820513 0  8.813000801282051 0.3459821428571441  9.380108173076923 1.0379464285714297  C 9.947215544871797 1.7299107142857126  10.23076923076923 2.553571428571426  10.23076923076923 3.5089285714285703  L 10.23076923076923 6.455357142857143  C 10.39823717948718 6.437499999999999  10.520032051282055 6.42857142857143  10.596153846153847 6.42857142857143  C 11.349759615384617 6.42857142857143  12.00821314102564 6.736607142857143  12.571514423076923 7.35267857142857  C 12.929286858974361 7.16517857142857  13.306089743589745 7.07142857142857  13.701923076923077 7.07142857142857  C 14.562099358974361 7.07142857142857  15.262419871794874 7.45982142857143  15.802884615384617 8.236607142857142  C 16.00841346153846 8.174107142857142  16.22155448717949 8.142857142857142  16.442307692307693 8.142857142857142  C 17.157852564102566 8.142857142857142  17.763020833333336 8.44419642857143  18.2578125 9.046875  C 18.752604166666668 9.64955357142857  19 10.370535714285715  19 11.20982142857143  L 19 14.116071428571427  C 19 15.151785714285712  18.89342948717949 16.15625  18.68028846153846 17.129464285714285  L 17.629807692307693 22.058035714285715  C 17.50801282051282 22.629464285714285  17.24919871794872 23.095982142857142  16.853365384615383 23.457589285714285  C 16.457532051282055 23.81919642857143  16.00841346153846 24  15.506009615384617 24  L 7.307692307692308 24  C 6.850961538461538 24  6.415164262820514 23.877232142857142  6.00030048076923 23.63169642857143  C 5.585436698717949 23.386160714285715  5.2409855769230775 23.05357142857143  4.966947115384615 22.63392857142857  L 0.5823317307692307 15.776785714285714  C 0.19411057692307693 15.169642857142856  0 14.482142857142858  0 13.714285714285714  C 0 12.776785714285714  0.2835536858974359 11.970982142857142  0.8506610576923077 11.296875  C 1.4177684294871795 10.622767857142858  2.1009615384615383 10.285714285714286  2.900240384615385 10.285714285714286  C 3.4407051282051286 10.285714285714286  3.935496794871795 10.441964285714285  4.384615384615385 10.754464285714286  L 4.384615384615385 3.4285714285714297  C 4.384615384615385 2.482142857142855  4.670072115384615 1.6741071428571432  5.240985576923077 1.0044642857142865  Z M 8.403846153846153 18.857142857142858  L 8.76923076923077 18.857142857142858  L 8.76923076923077 13.714285714285714  L 8.403846153846153 13.714285714285714  L 8.403846153846153 18.857142857142858  Z M 11.326923076923077 18.857142857142858  L 11.692307692307693 18.857142857142858  L 11.692307692307693 13.714285714285714  L 11.326923076923077 13.714285714285714  L 11.326923076923077 18.857142857142858  Z M 14.25 18.857142857142858  L 14.615384615384617 18.857142857142858  L 14.615384615384617 13.714285714285714  L 14.25 13.714285714285714  L 14.25 18.857142857142858  Z " fill-rule="nonzero" fill="#ffffff" stroke="none" transform="matrix(1 0 0 1 618 390 )" />
    <path d="M 8.346754807692308 2.2433035714285703  C 8.065104166666668 1.8906249999999991  7.71875 1.7142857142857135  7.307692307692308 1.7142857142857135  C 6.904246794871796 1.7142857142857135  6.559795673076923 1.8816964285714297  6.274338942307692 2.2165178571428568  C 5.988882211538462 2.5513392857142865  5.846153846153847 2.9553571428571397  5.846153846153847 3.4285714285714297  L 5.846153846153847 10.285714285714286  L 5.846153846153847 15.428571428571427  L 4.1219951923076925 12.723214285714286  C 3.8098958333333335 12.241071428571427  3.402644230769231 12  2.900240384615385 12  C 2.5044070512820515 12  2.1656650641025643 12.169642857142856  1.884014423076923 12.508928571428573  C 1.6023637820512822 12.848214285714285  1.4615384615384617 13.249999999999998  1.4615384615384617 13.714285714285714  C 1.4615384615384617 14.098214285714285  1.5604967948717952 14.441964285714285  1.7584134615384617 14.745535714285714  L 6.143028846153847 21.60267857142857  C 6.432291666666667 22.058035714285715  6.82051282051282 22.285714285714285  7.307692307692308 22.285714285714285  L 15.506009615384617 22.285714285714285  C 15.673477564102564 22.285714285714285  15.823818108974361 22.22544642857143  15.95703125 22.104910714285715  C 16.090244391025642 21.984375  16.175881410256412 21.830357142857142  16.213942307692307 21.642857142857142  L 17.264423076923077 16.714285714285715  C 17.447115384615383 15.857142857142858  17.53846153846154 14.99107142857143  17.53846153846154 14.116071428571427  L 17.53846153846154 11.20982142857143  C 17.53846153846154 10.84375  17.431891025641026 10.526785714285714  17.21875 10.25892857142857  C 17.005608974358974 9.99107142857143  16.746794871794872 9.857142857142858  16.442307692307693 9.857142857142858  C 16.137820512820515 9.857142857142858  15.87900641025641 9.982142857142854  15.665865384615383 10.232142857142858  C 15.452724358974361 10.482142857142856  15.346153846153847 10.785714285714285  15.346153846153847 11.142857142857142  L 14.98076923076923 11.142857142857142  L 14.98076923076923 10.325892857142858  C 14.98076923076923 9.89732142857143  14.858974358974361 9.533482142857142  14.615384615384617 9.234375  C 14.371794871794874 8.935267857142856  14.067307692307693 8.785714285714286  13.701923076923077 8.785714285714286  C 13.351762820512821 8.785714285714286  13.05108173076923 8.933035714285714  12.799879807692307 9.22767857142857  C 12.548677884615383 9.52232142857143  12.423076923076923 9.874999999999998  12.423076923076923 10.285714285714286  L 12.423076923076923 11.142857142857142  L 12.057692307692307 11.142857142857142  L 12.057692307692307 9.9375  C 12.057692307692307 9.446428571428571  11.916866987179487 9.024553571428571  11.635216346153847 8.671875  C 11.353565705128206 8.319196428571427  11.00721153846154 8.142857142857142  10.596153846153847 8.142857142857142  C 10.192708333333334 8.142857142857142  9.84825721153846 8.310267857142858  9.56280048076923 8.645089285714286  C 9.27734375 8.979910714285714  9.134615384615385 9.38392857142857  9.134615384615385 9.857142857142858  L 9.134615384615385 11.142857142857142  L 8.76923076923077 11.142857142857142  L 8.76923076923077 3.5089285714285703  C 8.76923076923077 3.0178571428571415  8.628405448717949 2.5959821428571415  8.346754807692308 2.2433035714285703  Z " stroke-width="2" stroke="#7f7f7f" fill="none" transform="matrix(1 0 0 1 618 390 )" mask="url(#clip25)" />
    <path d="M 5.240985576923077 1.0044642857142865  C 5.811899038461539 0.3348214285714297  6.500801282051282 0  7.307692307692308 0  C 8.122195512820513 0  8.813000801282051 0.3459821428571441  9.380108173076923 1.0379464285714297  C 9.947215544871797 1.7299107142857126  10.23076923076923 2.553571428571426  10.23076923076923 3.5089285714285703  L 10.23076923076923 6.455357142857143  C 10.39823717948718 6.437499999999999  10.520032051282055 6.42857142857143  10.596153846153847 6.42857142857143  C 11.349759615384617 6.42857142857143  12.00821314102564 6.736607142857143  12.571514423076923 7.35267857142857  C 12.929286858974361 7.16517857142857  13.306089743589745 7.07142857142857  13.701923076923077 7.07142857142857  C 14.562099358974361 7.07142857142857  15.262419871794874 7.45982142857143  15.802884615384617 8.236607142857142  C 16.00841346153846 8.174107142857142  16.22155448717949 8.142857142857142  16.442307692307693 8.142857142857142  C 17.157852564102566 8.142857142857142  17.763020833333336 8.44419642857143  18.2578125 9.046875  C 18.752604166666668 9.64955357142857  19 10.370535714285715  19 11.20982142857143  L 19 14.116071428571427  C 19 15.151785714285712  18.89342948717949 16.15625  18.68028846153846 17.129464285714285  L 17.629807692307693 22.058035714285715  C 17.50801282051282 22.629464285714285  17.24919871794872 23.095982142857142  16.853365384615383 23.457589285714285  C 16.457532051282055 23.81919642857143  16.00841346153846 24  15.506009615384617 24  L 7.307692307692308 24  C 6.850961538461538 24  6.415164262820514 23.877232142857142  6.00030048076923 23.63169642857143  C 5.585436698717949 23.386160714285715  5.2409855769230775 23.05357142857143  4.966947115384615 22.63392857142857  L 0.5823317307692307 15.776785714285714  C 0.19411057692307693 15.169642857142856  0 14.482142857142858  0 13.714285714285714  C 0 12.776785714285714  0.2835536858974359 11.970982142857142  0.8506610576923077 11.296875  C 1.4177684294871795 10.622767857142858  2.1009615384615383 10.285714285714286  2.900240384615385 10.285714285714286  C 3.4407051282051286 10.285714285714286  3.935496794871795 10.441964285714285  4.384615384615385 10.754464285714286  L 4.384615384615385 3.4285714285714297  C 4.384615384615385 2.482142857142855  4.670072115384615 1.6741071428571432  5.240985576923077 1.0044642857142865  Z " stroke-width="2" stroke="#7f7f7f" fill="none" transform="matrix(1 0 0 1 618 390 )" mask="url(#clip25)" />
    <path d="M 8.403846153846153 18.857142857142858  L 8.76923076923077 18.857142857142858  L 8.76923076923077 13.714285714285714  L 8.403846153846153 13.714285714285714  L 8.403846153846153 18.857142857142858  Z " stroke-width="2" stroke="#7f7f7f" fill="none" transform="matrix(1 0 0 1 618 390 )" mask="url(#clip25)" />
    <path d="M 11.326923076923077 18.857142857142858  L 11.692307692307693 18.857142857142858  L 11.692307692307693 13.714285714285714  L 11.326923076923077 13.714285714285714  L 11.326923076923077 18.857142857142858  Z " stroke-width="2" stroke="#7f7f7f" fill="none" transform="matrix(1 0 0 1 618 390 )" mask="url(#clip25)" />
    <path d="M 14.25 18.857142857142858  L 14.615384615384617 18.857142857142858  L 14.615384615384617 13.714285714285714  L 14.25 13.714285714285714  L 14.25 18.857142857142858  Z " stroke-width="2" stroke="#7f7f7f" fill="none" transform="matrix(1 0 0 1 618 390 )" mask="url(#clip25)" />
  </g>
</svg>