<?xml version="1.0" encoding="utf-8"?>
<svg version="1.1" xmlns:xlink="http://www.w3.org/1999/xlink" width="19px" height="23px" xmlns="http://www.w3.org/2000/svg">
  <defs>
    <mask fill="white" id="clip26">
      <path d="M 14.98076923076923 12.077566964285715  C 14.98076923076923 12.188802083333332  14.946514423076923 12.287202380952381  14.878004807692307 12.372767857142858  L 9.031850961538462 18.94419642857143  C 8.955729166666668 19.021205357142858  8.868189102564104 19.05970982142857  8.76923076923077 19.05970982142857  C 8.670272435897436 19.05970982142857  8.582732371794872 19.021205357142858  8.506610576923077 18.94419642857143  L 5.218149038461538 15.247767857142858  C 5.149639423076923 15.162202380952381  5.115384615384615 15.06380208333333  5.115384615384615 14.952566964285715  C 5.115384615384615 14.841331845238097  5.149639423076923 14.747209821428571  5.218149038461538 14.670200892857142  L 5.743389423076923 14.079799107142858  C 5.811899038461538 14.002790178571429  5.895633012820514 13.964285714285715  5.994591346153847 13.964285714285715  C 6.093549679487181 13.964285714285715  6.181089743589744 14.002790178571429  6.257211538461538 14.079799107142858  L 8.76923076923077 16.90345982142857  L 13.838942307692307 11.204799107142858  C 13.915064102564104 11.127790178571429  14.002604166666668 11.089285714285714  14.1015625 11.089285714285714  C 14.200520833333334 11.089285714285714  14.284254807692307 11.127790178571429  14.352764423076923 11.204799107142858  L 14.878004807692307 11.795200892857142  C 14.946514423076923 11.872209821428571  14.98076923076923 11.966331845238093  14.98076923076923 12.077566964285715  Z M 1.4615384615384617 8.214285714285714  L 1.4615384615384617 21  L 17.53846153846154 21  L 17.53846153846154 8.214285714285714  L 1.4615384615384617 8.214285714285714  Z M 5.743389423076923 6.045200892857142  C 5.811899038461538 5.9681919642857135  5.846153846153847 5.869791666666665  5.846153846153847 5.75  L 5.846153846153847 2.053571428571429  C 5.846153846153847 1.9337797619047588  5.811899038461538 1.835379464285713  5.743389423076923 1.758370535714287  C 5.674879807692308 1.6813616071428579  5.587339743589744 1.6428571428571421  5.48076923076923 1.6428571428571421  L 4.75 1.6428571428571421  C 4.643429487179488 1.6428571428571421  4.555889423076923 1.6813616071428579  4.4873798076923075 1.758370535714287  C 4.4188701923076925 1.835379464285713  4.384615384615385 1.9337797619047588  4.384615384615385 2.053571428571429  L 4.384615384615385 5.75  C 4.384615384615385 5.869791666666665  4.4188701923076925 5.9681919642857135  4.4873798076923075 6.045200892857142  C 4.555889423076923 6.122209821428571  4.643429487179488 6.1607142857142865  4.75 6.1607142857142865  L 5.48076923076923 6.1607142857142865  C 5.587339743589744 6.1607142857142865  5.674879807692308 6.122209821428571  5.743389423076923 6.045200892857142  Z M 14.512620192307693 6.045200892857142  C 14.581129807692307 5.9681919642857135  14.615384615384617 5.869791666666665  14.615384615384617 5.75  L 14.615384615384617 2.053571428571429  C 14.615384615384617 1.9337797619047588  14.581129807692307 1.835379464285713  14.512620192307693 1.758370535714287  C 14.444110576923077 1.6813616071428579  14.356570512820515 1.6428571428571421  14.25 1.6428571428571421  L 13.51923076923077 1.6428571428571421  C 13.412660256410257 1.6428571428571421  13.325120192307693 1.6813616071428579  13.256610576923077 1.758370535714287  C 13.18810096153846 1.835379464285713  13.153846153846153 1.9337797619047588  13.153846153846153 2.053571428571429  L 13.153846153846153 5.75  C 13.153846153846153 5.869791666666665  13.18810096153846 5.9681919642857135  13.256610576923077 6.045200892857142  C 13.325120192307693 6.122209821428571  13.412660256410257 6.1607142857142865  13.51923076923077 6.1607142857142865  L 14.25 6.1607142857142865  C 14.356570512820515 6.1607142857142865  14.444110576923077 6.122209821428571  14.512620192307693 6.045200892857142  Z M 18.56610576923077 3.7734375  C 18.85536858974359 4.098586309523809  19 4.483630952380952  19 4.928571428571429  L 19 21.357142857142858  C 19 21.802083333333336  18.85536858974359 22.187127976190478  18.56610576923077 22.51227678571429  C 18.27684294871795 22.837425595238095  17.934294871794872 23  17.53846153846154 23  L 1.4615384615384617 23  C 1.0657051282051284 23  0.7231570512820513 22.837425595238095  0.4338942307692307 22.51227678571429  C 0.14463141025641024 22.187127976190478  0 21.802083333333336  0 21.357142857142858  L 0 4.928571428571429  C 0 4.483630952380952  0.14463141025641024 4.098586309523809  0.4338942307692307 3.7734375  C 0.7231570512820513 3.448288690476188  1.0657051282051284 3.285714285714287  1.4615384615384617 3.285714285714287  L 2.9230769230769234 3.285714285714287  L 2.9230769230769234 2.053571428571429  C 2.9230769230769234 1.488839285714287  3.101963141025641 1.005394345238094  3.4597355769230766 0.6032366071428579  C 3.8175080128205137 0.2010788690476193  4.247596153846154 0  4.75 0  L 5.48076923076923 0  C 5.983173076923077 0  6.413261217948719 0.2010788690476193  6.771033653846153 0.6032366071428579  C 7.12880608974359 1.005394345238094  7.307692307692308 1.488839285714287  7.307692307692308 2.053571428571429  L 7.307692307692308 3.285714285714287  L 11.692307692307693 3.285714285714287  L 11.692307692307693 2.053571428571429  C 11.692307692307693 1.488839285714287  11.87119391025641 1.005394345238094  12.228966346153847 0.6032366071428579  C 12.586738782051285 0.2010788690476193  13.016826923076923 0  13.51923076923077 0  L 14.25 0  C 14.752403846153847 0  15.182491987179487 0.2010788690476193  15.540264423076923 0.6032366071428579  C 15.898036858974361 1.005394345238094  16.076923076923077 1.488839285714287  16.076923076923077 2.053571428571429  L 16.076923076923077 3.285714285714287  L 17.53846153846154 3.285714285714287  C 17.934294871794872 3.285714285714287  18.27684294871795 3.448288690476188  18.56610576923077 3.7734375  Z " fill-rule="evenodd" />
    </mask>
  </defs>
  <g transform="matrix(1 0 0 1 -932 -356 )">
    <path d="M 14.98076923076923 12.077566964285715  C 14.98076923076923 12.188802083333332  14.946514423076923 12.287202380952381  14.878004807692307 12.372767857142858  L 9.031850961538462 18.94419642857143  C 8.955729166666668 19.021205357142858  8.868189102564104 19.05970982142857  8.76923076923077 19.05970982142857  C 8.670272435897436 19.05970982142857  8.582732371794872 19.021205357142858  8.506610576923077 18.94419642857143  L 5.218149038461538 15.247767857142858  C 5.149639423076923 15.162202380952381  5.115384615384615 15.06380208333333  5.115384615384615 14.952566964285715  C 5.115384615384615 14.841331845238097  5.149639423076923 14.747209821428571  5.218149038461538 14.670200892857142  L 5.743389423076923 14.079799107142858  C 5.811899038461538 14.002790178571429  5.895633012820514 13.964285714285715  5.994591346153847 13.964285714285715  C 6.093549679487181 13.964285714285715  6.181089743589744 14.002790178571429  6.257211538461538 14.079799107142858  L 8.76923076923077 16.90345982142857  L 13.838942307692307 11.204799107142858  C 13.915064102564104 11.127790178571429  14.002604166666668 11.089285714285714  14.1015625 11.089285714285714  C 14.200520833333334 11.089285714285714  14.284254807692307 11.127790178571429  14.352764423076923 11.204799107142858  L 14.878004807692307 11.795200892857142  C 14.946514423076923 11.872209821428571  14.98076923076923 11.966331845238093  14.98076923076923 12.077566964285715  Z M 1.4615384615384617 8.214285714285714  L 1.4615384615384617 21  L 17.53846153846154 21  L 17.53846153846154 8.214285714285714  L 1.4615384615384617 8.214285714285714  Z M 5.743389423076923 6.045200892857142  C 5.811899038461538 5.9681919642857135  5.846153846153847 5.869791666666665  5.846153846153847 5.75  L 5.846153846153847 2.053571428571429  C 5.846153846153847 1.9337797619047588  5.811899038461538 1.835379464285713  5.743389423076923 1.758370535714287  C 5.674879807692308 1.6813616071428579  5.587339743589744 1.6428571428571421  5.48076923076923 1.6428571428571421  L 4.75 1.6428571428571421  C 4.643429487179488 1.6428571428571421  4.555889423076923 1.6813616071428579  4.4873798076923075 1.758370535714287  C 4.4188701923076925 1.835379464285713  4.384615384615385 1.9337797619047588  4.384615384615385 2.053571428571429  L 4.384615384615385 5.75  C 4.384615384615385 5.869791666666665  4.4188701923076925 5.9681919642857135  4.4873798076923075 6.045200892857142  C 4.555889423076923 6.122209821428571  4.643429487179488 6.1607142857142865  4.75 6.1607142857142865  L 5.48076923076923 6.1607142857142865  C 5.587339743589744 6.1607142857142865  5.674879807692308 6.122209821428571  5.743389423076923 6.045200892857142  Z M 14.512620192307693 6.045200892857142  C 14.581129807692307 5.9681919642857135  14.615384615384617 5.869791666666665  14.615384615384617 5.75  L 14.615384615384617 2.053571428571429  C 14.615384615384617 1.9337797619047588  14.581129807692307 1.835379464285713  14.512620192307693 1.758370535714287  C 14.444110576923077 1.6813616071428579  14.356570512820515 1.6428571428571421  14.25 1.6428571428571421  L 13.51923076923077 1.6428571428571421  C 13.412660256410257 1.6428571428571421  13.325120192307693 1.6813616071428579  13.256610576923077 1.758370535714287  C 13.18810096153846 1.835379464285713  13.153846153846153 1.9337797619047588  13.153846153846153 2.053571428571429  L 13.153846153846153 5.75  C 13.153846153846153 5.869791666666665  13.18810096153846 5.9681919642857135  13.256610576923077 6.045200892857142  C 13.325120192307693 6.122209821428571  13.412660256410257 6.1607142857142865  13.51923076923077 6.1607142857142865  L 14.25 6.1607142857142865  C 14.356570512820515 6.1607142857142865  14.444110576923077 6.122209821428571  14.512620192307693 6.045200892857142  Z M 18.56610576923077 3.7734375  C 18.85536858974359 4.098586309523809  19 4.483630952380952  19 4.928571428571429  L 19 21.357142857142858  C 19 21.802083333333336  18.85536858974359 22.187127976190478  18.56610576923077 22.51227678571429  C 18.27684294871795 22.837425595238095  17.934294871794872 23  17.53846153846154 23  L 1.4615384615384617 23  C 1.0657051282051284 23  0.7231570512820513 22.837425595238095  0.4338942307692307 22.51227678571429  C 0.14463141025641024 22.187127976190478  0 21.802083333333336  0 21.357142857142858  L 0 4.928571428571429  C 0 4.483630952380952  0.14463141025641024 4.098586309523809  0.4338942307692307 3.7734375  C 0.7231570512820513 3.448288690476188  1.0657051282051284 3.285714285714287  1.4615384615384617 3.285714285714287  L 2.9230769230769234 3.285714285714287  L 2.9230769230769234 2.053571428571429  C 2.9230769230769234 1.488839285714287  3.101963141025641 1.005394345238094  3.4597355769230766 0.6032366071428579  C 3.8175080128205137 0.2010788690476193  4.247596153846154 0  4.75 0  L 5.48076923076923 0  C 5.983173076923077 0  6.413261217948719 0.2010788690476193  6.771033653846153 0.6032366071428579  C 7.12880608974359 1.005394345238094  7.307692307692308 1.488839285714287  7.307692307692308 2.053571428571429  L 7.307692307692308 3.285714285714287  L 11.692307692307693 3.285714285714287  L 11.692307692307693 2.053571428571429  C 11.692307692307693 1.488839285714287  11.87119391025641 1.005394345238094  12.228966346153847 0.6032366071428579  C 12.586738782051285 0.2010788690476193  13.016826923076923 0  13.51923076923077 0  L 14.25 0  C 14.752403846153847 0  15.182491987179487 0.2010788690476193  15.540264423076923 0.6032366071428579  C 15.898036858974361 1.005394345238094  16.076923076923077 1.488839285714287  16.076923076923077 2.053571428571429  L 16.076923076923077 3.285714285714287  L 17.53846153846154 3.285714285714287  C 17.934294871794872 3.285714285714287  18.27684294871795 3.448288690476188  18.56610576923077 3.7734375  Z " fill-rule="nonzero" fill="#ffffff" stroke="none" transform="matrix(1 0 0 1 932 356 )" />
    <path d="M 14.98076923076923 12.077566964285715  C 14.98076923076923 12.188802083333332  14.946514423076923 12.287202380952381  14.878004807692307 12.372767857142858  L 9.031850961538462 18.94419642857143  C 8.955729166666668 19.021205357142858  8.868189102564104 19.05970982142857  8.76923076923077 19.05970982142857  C 8.670272435897436 19.05970982142857  8.582732371794872 19.021205357142858  8.506610576923077 18.94419642857143  L 5.218149038461538 15.247767857142858  C 5.149639423076923 15.162202380952381  5.115384615384615 15.06380208333333  5.115384615384615 14.952566964285715  C 5.115384615384615 14.841331845238097  5.149639423076923 14.747209821428571  5.218149038461538 14.670200892857142  L 5.743389423076923 14.079799107142858  C 5.811899038461538 14.002790178571429  5.895633012820514 13.964285714285715  5.994591346153847 13.964285714285715  C 6.093549679487181 13.964285714285715  6.181089743589744 14.002790178571429  6.257211538461538 14.079799107142858  L 8.76923076923077 16.90345982142857  L 13.838942307692307 11.204799107142858  C 13.915064102564104 11.127790178571429  14.002604166666668 11.089285714285714  14.1015625 11.089285714285714  C 14.200520833333334 11.089285714285714  14.284254807692307 11.127790178571429  14.352764423076923 11.204799107142858  L 14.878004807692307 11.795200892857142  C 14.946514423076923 11.872209821428571  14.98076923076923 11.966331845238093  14.98076923076923 12.077566964285715  Z " stroke-width="2" stroke="#7f7f7f" fill="none" transform="matrix(1 0 0 1 932 356 )" mask="url(#clip26)" />
    <path d="M 1.4615384615384617 8.214285714285714  L 1.4615384615384617 21  L 17.53846153846154 21  L 17.53846153846154 8.214285714285714  L 1.4615384615384617 8.214285714285714  Z " stroke-width="2" stroke="#7f7f7f" fill="none" transform="matrix(1 0 0 1 932 356 )" mask="url(#clip26)" />
    <path d="M 5.743389423076923 6.045200892857142  C 5.811899038461538 5.9681919642857135  5.846153846153847 5.869791666666665  5.846153846153847 5.75  L 5.846153846153847 2.053571428571429  C 5.846153846153847 1.9337797619047588  5.811899038461538 1.835379464285713  5.743389423076923 1.758370535714287  C 5.674879807692308 1.6813616071428579  5.587339743589744 1.6428571428571421  5.48076923076923 1.6428571428571421  L 4.75 1.6428571428571421  C 4.643429487179488 1.6428571428571421  4.555889423076923 1.6813616071428579  4.4873798076923075 1.758370535714287  C 4.4188701923076925 1.835379464285713  4.384615384615385 1.9337797619047588  4.384615384615385 2.053571428571429  L 4.384615384615385 5.75  C 4.384615384615385 5.869791666666665  4.4188701923076925 5.9681919642857135  4.4873798076923075 6.045200892857142  C 4.555889423076923 6.122209821428571  4.643429487179488 6.1607142857142865  4.75 6.1607142857142865  L 5.48076923076923 6.1607142857142865  C 5.587339743589744 6.1607142857142865  5.674879807692308 6.122209821428571  5.743389423076923 6.045200892857142  Z " stroke-width="2" stroke="#7f7f7f" fill="none" transform="matrix(1 0 0 1 932 356 )" mask="url(#clip26)" />
    <path d="M 14.512620192307693 6.045200892857142  C 14.581129807692307 5.9681919642857135  14.615384615384617 5.869791666666665  14.615384615384617 5.75  L 14.615384615384617 2.053571428571429  C 14.615384615384617 1.9337797619047588  14.581129807692307 1.835379464285713  14.512620192307693 1.758370535714287  C 14.444110576923077 1.6813616071428579  14.356570512820515 1.6428571428571421  14.25 1.6428571428571421  L 13.51923076923077 1.6428571428571421  C 13.412660256410257 1.6428571428571421  13.325120192307693 1.6813616071428579  13.256610576923077 1.758370535714287  C 13.18810096153846 1.835379464285713  13.153846153846153 1.9337797619047588  13.153846153846153 2.053571428571429  L 13.153846153846153 5.75  C 13.153846153846153 5.869791666666665  13.18810096153846 5.9681919642857135  13.256610576923077 6.045200892857142  C 13.325120192307693 6.122209821428571  13.412660256410257 6.1607142857142865  13.51923076923077 6.1607142857142865  L 14.25 6.1607142857142865  C 14.356570512820515 6.1607142857142865  14.444110576923077 6.122209821428571  14.512620192307693 6.045200892857142  Z " stroke-width="2" stroke="#7f7f7f" fill="none" transform="matrix(1 0 0 1 932 356 )" mask="url(#clip26)" />
    <path d="M 18.56610576923077 3.7734375  C 18.85536858974359 4.098586309523809  19 4.483630952380952  19 4.928571428571429  L 19 21.357142857142858  C 19 21.802083333333336  18.85536858974359 22.187127976190478  18.56610576923077 22.51227678571429  C 18.27684294871795 22.837425595238095  17.934294871794872 23  17.53846153846154 23  L 1.4615384615384617 23  C 1.0657051282051284 23  0.7231570512820513 22.837425595238095  0.4338942307692307 22.51227678571429  C 0.14463141025641024 22.187127976190478  0 21.802083333333336  0 21.357142857142858  L 0 4.928571428571429  C 0 4.483630952380952  0.14463141025641024 4.098586309523809  0.4338942307692307 3.7734375  C 0.7231570512820513 3.448288690476188  1.0657051282051284 3.285714285714287  1.4615384615384617 3.285714285714287  L 2.9230769230769234 3.285714285714287  L 2.9230769230769234 2.053571428571429  C 2.9230769230769234 1.488839285714287  3.101963141025641 1.005394345238094  3.4597355769230766 0.6032366071428579  C 3.8175080128205137 0.2010788690476193  4.247596153846154 0  4.75 0  L 5.48076923076923 0  C 5.983173076923077 0  6.413261217948719 0.2010788690476193  6.771033653846153 0.6032366071428579  C 7.12880608974359 1.005394345238094  7.307692307692308 1.488839285714287  7.307692307692308 2.053571428571429  L 7.307692307692308 3.285714285714287  L 11.692307692307693 3.285714285714287  L 11.692307692307693 2.053571428571429  C 11.692307692307693 1.488839285714287  11.87119391025641 1.005394345238094  12.228966346153847 0.6032366071428579  C 12.586738782051285 0.2010788690476193  13.016826923076923 0  13.51923076923077 0  L 14.25 0  C 14.752403846153847 0  15.182491987179487 0.2010788690476193  15.540264423076923 0.6032366071428579  C 15.898036858974361 1.005394345238094  16.076923076923077 1.488839285714287  16.076923076923077 2.053571428571429  L 16.076923076923077 3.285714285714287  L 17.53846153846154 3.285714285714287  C 17.934294871794872 3.285714285714287  18.27684294871795 3.448288690476188  18.56610576923077 3.7734375  Z " stroke-width="2" stroke="#7f7f7f" fill="none" transform="matrix(1 0 0 1 932 356 )" mask="url(#clip26)" />
  </g>
</svg>