<?xml version="1.0" encoding="utf-8"?>
<svg version="1.1" xmlns:xlink="http://www.w3.org/1999/xlink" width="22px" height="25px" xmlns="http://www.w3.org/2000/svg">
  <g transform="matrix(1 0 0 1 -1268 -378 )">
    <path d="M 3.7174917491749175 22.887788778877887  L 5.271287128712871 22.887788778877887  L 6.592739273927393 21.386138613861387  L 3.18019801980198 17.50825082508251  L 1.8587458745874588 19.00990099009901  L 1.8587458745874588 20.775577557755774  L 3.7174917491749175 20.775577557755774  L 3.7174917491749175 22.887788778877887  Z M 12.764356435643563 7.854785478547854  C 12.832123212321234 7.777777777777778  12.866006600660066 7.684268426842683  12.866006600660066 7.574257425742576  C 12.866006600660066 7.332233223322332  12.75951595159516 7.21122112211221  12.546534653465345 7.21122112211221  C 12.44972497249725 7.21122112211221  12.36743674367437 7.249724972497249  12.2996699669967 7.326732673267328  L 4.429042904290429 16.27062706270627  C 4.361276127612761 16.347634763476346  4.327392739273927 16.441144114411436  4.327392739273927 16.551155115511552  C 4.327392739273927 16.793179317931788  4.433883388338835 16.914191419141915  4.646864686468647 16.914191419141915  C 4.7436743674367445 16.914191419141915  4.825962596259626 16.875687568756874  4.893729372937294 16.7986798679868  L 12.764356435643563 7.854785478547854  Z M 0 18.135313531353138  L 12.081848184818481 4.405940594059407  L 18.12277227722772 11.27062706270627  L 6.040924092409241 25  L 0 25  L 0 18.135313531353138  Z M 21.462706270627063 4.488448844884488  C 21.82090209020902 4.917491749174918  22 5.418041804180418  22 5.99009900990099  C 22 6.5731573157315735  21.82090209020902 7.068206820682066  21.462706270627063 7.475247524752477  L 19.052145214521452 10.214521452145215  L 13.011221122112211 3.3498349834983507  L 15.421782178217821 0.6270627062706258  C 15.77029702970297 0.20902090209020674  16.205940594059406 0  16.72871287128713 0  C 17.241804180418043 0  17.682288228822884 0.20902090209020674  18.05016501650165 0.6270627062706258  L 21.462706270627063 4.488448844884488  Z " fill-rule="nonzero" fill="#7f7f7f" stroke="none" transform="matrix(1 0 0 1 1268 378 )" />
  </g>
</svg>