<?xml version="1.0" encoding="utf-8"?>
<svg version="1.1" xmlns:xlink="http://www.w3.org/1999/xlink" width="22px" height="23px" xmlns="http://www.w3.org/2000/svg">
  <g transform="matrix(1 0 0 1 -517 -53 )">
    <path d="M 7.859375 8.759765625  C 7.953125 8.849609375  8 8.964409722222221  8 9.104166666666668  L 8 17.729166666666668  C 8 17.86892361111111  7.953125 17.983723958333332  7.859375 18.073567708333332  C 7.765625 18.163411458333332  7.645833333333335 18.208333333333332  7.499999999999999 18.208333333333332  L 6.5 18.208333333333332  C 6.354166666666668 18.208333333333332  6.234375000000002 18.163411458333332  6.140625 18.073567708333332  C 6.046875 17.983723958333332  6 17.86892361111111  6 17.729166666666668  L 6 9.104166666666668  C 6 8.964409722222221  6.046875 8.849609375  6.140625 8.759765625  C 6.234375000000002 8.669921875  6.354166666666668 8.625  6.5 8.625  L 7.499999999999999 8.625  C 7.645833333333335 8.625  7.765625 8.669921875  7.859375 8.759765625  Z M 11.859375 8.759765625  C 11.953125 8.849609375  12 8.964409722222221  12 9.104166666666668  L 12 17.729166666666668  C 12 17.86892361111111  11.953125 17.983723958333332  11.859375 18.073567708333332  C 11.765625 18.163411458333332  11.645833333333334 18.208333333333332  11.5 18.208333333333332  L 10.5 18.208333333333332  C 10.354166666666668 18.208333333333332  10.234375 18.163411458333332  10.140625 18.073567708333332  C 10.046875 17.983723958333332  10 17.86892361111111  10 17.729166666666668  L 10 9.104166666666668  C 10 8.964409722222221  10.046875 8.849609375  10.140625 8.759765625  C 10.234375 8.669921875  10.354166666666668 8.625  10.5 8.625  L 11.5 8.625  C 11.645833333333334 8.625  11.765625 8.669921875  11.859375 8.759765625  Z M 15.859374999999998 8.759765625  C 15.953125 8.849609375  16 8.964409722222221  16 9.104166666666668  L 16 17.729166666666668  C 16 17.86892361111111  15.953125 17.983723958333332  15.859374999999998 18.073567708333332  C 15.765625000000002 18.163411458333332  15.645833333333334 18.208333333333332  15.5 18.208333333333332  L 14.5 18.208333333333332  C 14.354166666666666 18.208333333333332  14.234375 18.163411458333332  14.140624999999998 18.073567708333332  C 14.046875000000002 17.983723958333332  14 17.86892361111111  14 17.729166666666668  L 14 9.104166666666668  C 14 8.964409722222221  14.046875000000002 8.849609375  14.140624999999998 8.759765625  C 14.234375 8.669921875  14.354166666666666 8.625  14.5 8.625  L 15.5 8.625  C 15.645833333333334 8.625  15.765625000000002 8.669921875  15.859374999999998 8.759765625  Z M 17.890625 20.5517578125  C 17.963541666666668 20.367078993055557  18 20.164930555555557  18 19.9453125  L 18 6  L 4 6  L 4 19.9453125  C 4 20.164930555555557  4.036458333333334 20.367078993055557  4.109375 20.5517578125  C 4.182291666666667 20.736436631944443  4.2578125 20.871202256944443  4.3359375 20.9560546875  C 4.4140625 21.040907118055557  4.46875 21.083333333333332  4.5 21  L 17.5 21  C 17.53125 21.083333333333332  17.5859375 21.040907118055557  17.6640625 20.9560546875  C 17.7421875 20.871202256944443  17.817708333333336 20.736436631944443  17.890625 20.5517578125  Z M 8.265625 2.0813802083333326  L 7.499999999999999 3.8333333333333326  L 14.5 3.8333333333333326  L 13.75 2.0813802083333326  C 13.677083333333336 1.9915364583333326  13.588541666666668 1.9366319444444433  13.484375 1.9166666666666674  L 8.53125 1.9166666666666674  C 8.427083333333334 1.9366319444444433  8.338541666666668 1.9915364583333326  8.265625 2.0813802083333326  Z M 21.859375 3.9680989583333326  C 21.953125 4.057942708333332  22 4.1727430555555545  22 4.3125  L 22 5.270833333333332  C 22 5.410590277777776  21.953125 5.525390625  21.859375 5.615234375  C 21.765625 5.705078125  21.645833333333336 5.75  21.5 5.75  L 20 5.75  L 20 19.9453125  C 20 20.773871527777775  19.755208333333336 21.490125868055557  19.265625 22.094075520833332  C 18.776041666666668 22.69802517361111  18.1875 23  17.5 23  L 4.5 23  C 3.8125000000000004 23  3.223958333333334 22.7080078125  2.734375 22.1240234375  C 2.244791666666667 21.5400390625  2 20.83376736111111  2 20.005208333333332  L 2 5.75  L 0.5 5.75  C 0.35416666666666663 5.75  0.23437500000000003 5.705078125  0.140625 5.615234375  C 0.046875 5.525390625  0 5.410590277777776  0 5.270833333333332  L 0 4.3125  C 0 4.1727430555555545  0.046875 4.057942708333332  0.140625 3.9680989583333326  C 0.23437500000000003 3.8782552083333326  0.35416666666666663 3.8333333333333326  0.5 3.8333333333333326  L 5.328125 3.8333333333333326  L 6.421875000000001 1.3326822916666674  C 6.578125000000002 0.9633246527777758  6.859375000000001 0.6488715277777758  7.265625 0.3893229166666675  C 7.671875000000001 0.12977430555555414  8.083333333333334 0  8.5 0  L 13.5 0  C 13.91666666666667 0  14.328125 0.12977430555555414  14.734375000000002 0.3893229166666675  C 15.140625 0.6488715277777758  15.421875000000002 0.9633246527777758  15.578125 1.3326822916666674  L 16.671875 3.8333333333333326  L 21.5 3.8333333333333326  C 21.645833333333336 3.8333333333333326  21.765625 3.8782552083333326  21.859375 3.9680989583333326  Z " fill-rule="nonzero" fill="#7f7f7f" stroke="none" transform="matrix(1 0 0 1 517 53 )" />
  </g>
</svg>