<?xml version="1.0" encoding="utf-8"?>
<svg version="1.1" xmlns:xlink="http://www.w3.org/1999/xlink" width="20px" height="23px" xmlns="http://www.w3.org/2000/svg">
  <g transform="matrix(1 0 0 1 -1072 -5 )">
    <path d="M 14.285714285714286 4.928571428571429  L 18.928571428571427 4.928571428571429  C 19.226190476190478 4.928571428571429  19.479166666666668 5.048363095238094  19.6875 5.287946428571429  C 19.895833333333336 5.527529761904759  20 5.8184523809523805  20 6.1607142857142865  L 20 21.767857142857142  C 20 22.110119047619047  19.895833333333336 22.401041666666664  19.6875 22.640625  C 19.479166666666668 22.880208333333336  19.226190476190478 23  18.928571428571427 23  L 8.214285714285714 23  C 7.916666666666668 23  7.663690476190476 22.880208333333336  7.455357142857143 22.640625  C 7.24702380952381 22.401041666666664  7.142857142857143 22.110119047619047  7.142857142857143 21.767857142857142  L 7.142857142857143 18.07142857142857  L 1.0714285714285714 18.07142857142857  C 0.773809523809524 18.07142857142857  0.5208333333333334 17.951636904761905  0.3125 17.71205357142857  C 0.10416666666666666 17.472470238095237  0 17.18154761904762  0 16.839285714285715  L 0 8.214285714285714  C 0 7.872023809523809  0.0744047619047619 7.4955357142857135  0.22321428571428573 7.084821428571429  C 0.37202380952380953 6.674107142857142  0.5505952380952381 6.348958333333332  0.7589285714285714 6.109375  L 5.3125 0.8727678571428579  C 5.520833333333334 0.6331845238095228  5.803571428571429 0.4278273809523807  6.1607142857142865 0.25669642857142894  C 6.517857142857143 0.08556547619047716  6.845238095238095 0  7.142857142857143 0  L 11.785714285714286 0  C 12.083333333333336 0  12.336309523809526 0.11979166666666752  12.544642857142858 0.359375  C 12.75297619047619 0.5989583333333325  12.857142857142858 0.8898809523809518  12.857142857142858 1.2321428571428579  L 12.857142857142858 5.4419642857142865  C 13.363095238095239 5.0997023809523805  13.839285714285714 4.928571428571429  14.285714285714286 4.928571428571429  Z M 12.857142857142858 11.5  L 12.857142857142858 7.662388392857142  L 9.520089285714286 11.5  L 12.857142857142858 11.5  Z M 5.7142857142857135 6.571428571428571  L 5.7142857142857135 2.733816964285713  L 2.377232142857143 6.571428571428571  L 5.7142857142857135 6.571428571428571  Z M 7.366071428571429 12.013392857142858  C 7.5148809523809526 11.602678571428571  7.693452380952381 11.277529761904761  7.9017857142857135 11.037946428571429  L 11.428571428571427 6.982142857142858  L 11.428571428571427 1.6428571428571421  L 7.142857142857143 1.6428571428571421  L 7.142857142857143 6.982142857142858  C 7.142857142857143 7.324404761904759  7.038690476190476 7.6153273809523805  6.830357142857143 7.8549107142857135  C 6.62202380952381 8.094494047619046  6.3690476190476195 8.214285714285714  6.071428571428571 8.214285714285714  L 1.4285714285714284 8.214285714285714  L 1.4285714285714284 16.42857142857143  L 7.142857142857143 16.42857142857143  L 7.142857142857143 13.142857142857142  C 7.142857142857143 12.800595238095239  7.217261904761906 12.424107142857142  7.366071428571429 12.013392857142858  Z M 8.571428571428571 21  L 18.571428571428573 21  L 18.571428571428573 6.571428571428571  L 14.285714285714286 6.571428571428571  L 14.285714285714286 11.910714285714285  C 14.285714285714286 12.25297619047619  14.18154761904762 12.543898809523807  13.973214285714286 12.783482142857142  C 13.764880952380953 13.023065476190478  13.511904761904763 13.142857142857142  13.214285714285714 13.142857142857142  L 8.571428571428571 13.142857142857142  L 8.571428571428571 21  Z " fill-rule="nonzero" fill="#7f7f7f" stroke="none" transform="matrix(1 0 0 1 1072 5 )" />
  </g>
</svg>