<?xml version="1.0" encoding="utf-8"?>
<svg version="1.1" xmlns:xlink="http://www.w3.org/1999/xlink" width="20px" height="21px" xmlns="http://www.w3.org/2000/svg">
  <g transform="matrix(1 0 0 1 -1032 -7 )">
    <path d="M 7.144886363636363 7.998046875  C 7.230113636363637 8.080078125  7.272727272727273 8.184895833333332  7.272727272727273 8.3125  L 7.272727272727273 16.1875  C 7.272727272727273 16.315104166666668  7.230113636363637 16.419921875  7.144886363636363 16.501953125  C 7.059659090909091 16.583984375  6.950757575757577 16.625  6.8181818181818175 16.625  L 5.909090909090909 16.625  C 5.776515151515152 16.625  5.667613636363638 16.583984375  5.582386363636363 16.501953125  C 5.497159090909091 16.419921875  5.454545454545454 16.315104166666668  5.454545454545454 16.1875  L 5.454545454545454 8.3125  C 5.454545454545454 8.184895833333332  5.497159090909091 8.080078125  5.582386363636363 7.998046875  C 5.667613636363638 7.916015625  5.776515151515152 7.875  5.909090909090909 7.875  L 6.8181818181818175 7.875  C 6.950757575757577 7.875  7.059659090909091 7.916015625  7.144886363636363 7.998046875  Z M 10.78125 7.998046875  C 10.866477272727273 8.080078125  10.909090909090908 8.184895833333332  10.909090909090908 8.3125  L 10.909090909090908 16.1875  C 10.909090909090908 16.315104166666668  10.866477272727273 16.419921875  10.78125 16.501953125  C 10.696022727272727 16.583984375  10.587121212121213 16.625  10.454545454545453 16.625  L 9.545454545454547 16.625  C 9.412878787878789 16.625  9.303977272727273 16.583984375  9.21875 16.501953125  C 9.133522727272727 16.419921875  9.09090909090909 16.315104166666668  9.09090909090909 16.1875  L 9.09090909090909 8.3125  C 9.09090909090909 8.184895833333332  9.133522727272727 8.080078125  9.21875 7.998046875  C 9.303977272727273 7.916015625  9.412878787878789 7.875  9.545454545454547 7.875  L 10.454545454545453 7.875  C 10.587121212121213 7.875  10.696022727272727 7.916015625  10.78125 7.998046875  Z M 14.417613636363635 7.998046875  C 14.502840909090908 8.080078125  14.545454545454547 8.184895833333332  14.545454545454547 8.3125  L 14.545454545454547 16.1875  C 14.545454545454547 16.315104166666668  14.502840909090908 16.419921875  14.417613636363635 16.501953125  C 14.332386363636365 16.583984375  14.223484848484848 16.625  14.090909090909092 16.625  L 13.181818181818182 16.625  C 13.049242424242424 16.625  12.940340909090908 16.583984375  12.855113636363635 16.501953125  C 12.769886363636365 16.419921875  12.727272727272727 16.315104166666668  12.727272727272727 16.1875  L 12.727272727272727 8.3125  C 12.727272727272727 8.184895833333332  12.769886363636365 8.080078125  12.855113636363635 7.998046875  C 12.940340909090908 7.916015625  13.049242424242424 7.875  13.181818181818182 7.875  L 14.090909090909092 7.875  C 14.223484848484848 7.875  14.332386363636365 7.916015625  14.417613636363635 7.998046875  Z M 16.264204545454547 18.7646484375  C 16.330492424242426 18.596028645833336  16.363636363636363 18.411458333333336  16 18.2109375  L 16 5.25  L 4 5.25  L 4 18.2109375  C 3.6363636363636367 18.411458333333336  3.669507575757576 18.596028645833336  3.7357954545454546 18.7646484375  C 3.802083333333334 18.933268229166664  3.8707386363636367 19.056315104166664  3.9417613636363633 19.1337890625  C 4.012784090909091 19.211263020833336  4.0625 19.25  4.090909090909091 19  L 15.909090909090908 19  C 15.9375 19.25  15.987215909090908 19.211263020833336  16.058238636363637 19.1337890625  C 16.129261363636363 19.056315104166664  16.19791666666667 18.933268229166664  16.264204545454547 18.7646484375  Z M 7.514204545454546 1.9003906249999991  L 6.8181818181818175 3.499999999999999  L 13.181818181818182 3.499999999999999  L 12.5 1.9003906249999991  C 12.433712121212125 1.8183593749999991  12.353219696969697 1.7682291666666656  12.258522727272727 1.7500000000000009  L 7.7556818181818175 1.7500000000000009  C 7.660984848484849 1.7682291666666656  7.580492424242426 1.8183593749999991  7.514204545454546 1.9003906249999991  Z M 19.872159090909093 3.623046874999999  C 19.957386363636363 3.705078124999999  20 3.809895833333332  20 3.9375  L 20 4.812499999999999  C 20 4.940104166666665  19.957386363636363 5.044921875  19.872159090909093 5.126953125  C 19.78693181818182 5.208984375  19.678030303030305 5.25  19.545454545454547 5.25  L 18 5.25  L 18 18.2109375  C 18.18181818181818 18.967447916666664  17.959280303030305 19.621419270833336  17.514204545454547 20.1728515625  C 17.06912878787879 20.724283854166668  16.534090909090907 21  15.909090909090908 21  L 4.090909090909091 21  C 3.4659090909090913 21  2.930871212121213 20.7333984375  2.4857954545454546 20.2001953125  C 2.0407196969696972 19.6669921875  1.8181818181818183 19.022135416666668  2 18.265625  L 2 5.25  L 0.4545454545454546 5.25  C 0.32196969696969696 5.25  0.21306818181818182 5.208984375  0.1278409090909091 5.126953125  C 0.04261363636363636 5.044921875  0 4.940104166666665  0 4.812499999999999  L 0 3.9375  C 0 3.809895833333332  0.04261363636363636 3.705078124999999  0.1278409090909091 3.623046874999999  C 0.21306818181818182 3.541015624999999  0.32196969696969696 3.499999999999999  0.4545454545454546 3.499999999999999  L 4.84375 3.499999999999999  L 5.8380681818181825 1.2167968750000009  C 5.980113636363638 0.8795572916666649  6.235795454545455 0.5924479166666649  6.605113636363637 0.3554687500000008  C 6.974431818181818 0.11848958333333204  7.348484848484849 0  7.727272727272727 0  L 12.272727272727273 0  C 12.651515151515154 0  13.025568181818182 0.11848958333333204  13.394886363636365 0.3554687500000008  C 13.764204545454547 0.5924479166666649  14.019886363636365 0.8795572916666649  14.161931818181818 1.2167968750000009  L 15.15625 3.499999999999999  L 19.545454545454547 3.499999999999999  C 19.678030303030305 3.499999999999999  19.78693181818182 3.541015624999999  19.872159090909093 3.623046874999999  Z " fill-rule="nonzero" fill="#7f7f7f" stroke="none" transform="matrix(1 0 0 1 1032 7 )" />
  </g>
</svg>