<?xml version="1.0" encoding="utf-8"?>
<svg version="1.1" xmlns:xlink="http://www.w3.org/1999/xlink" width="18px" height="20px" xmlns="http://www.w3.org/2000/svg">
  <g transform="matrix(1 0 0 1 -223 -50 )">
    <path d="M 3.0415841584158416 18.31023102310231  L 4.312871287128713 18.31023102310231  L 5.394059405940594 17.10891089108911  L 2.6019801980198016 14.006600660066006  L 1.5207920792079208 15.207920792079207  L 1.5207920792079208 16.620462046204622  L 3.0415841584158416 16.620462046204622  L 3.0415841584158416 18.31023102310231  Z M 10.443564356435642 6.2838283828382835  C 10.4990099009901 6.222222222222222  10.526732673267327 6.1474147414741465  10.526732673267327 6.05940594059406  C 10.526732673267327 5.865786578657866  10.43960396039604 5.768976897689768  10.265346534653464 5.768976897689768  C 10.186138613861386 5.768976897689768  10.11881188118812 5.799779977997799  10.063366336633663 5.861386138613862  L 3.6237623762376234 13.016501650165019  C 3.568316831683169 13.078107810781077  3.5405940594059406 13.152915291529151  3.5405940594059406 13.24092409240924  C 3.5405940594059406 13.43454345434543  3.6277227722772283 13.531353135313534  3.801980198019802 13.531353135313534  C 3.8811881188118815 13.531353135313534  3.948514851485149 13.500550055005501  4.003960396039604 13.438943894389439  L 10.443564356435642 6.2838283828382835  Z M 0 14.50825082508251  L 9.885148514851485 3.5247524752475257  L 14.827722772277227 9.016501650165017  L 4.9425742574257425 20  L 0 20  L 0 14.50825082508251  Z M 17.560396039603962 3.5907590759075902  C 17.853465346534655 3.9339933993399345  18 4.334433443344334  18 4.792079207920792  C 18 5.258525852585258  17.853465346534655 5.654565456545653  17.560396039603962 5.980198019801981  L 15.588118811881188 8.17161716171617  L 10.645544554455446 2.6798679867986808  L 12.617821782178217 0.5016501650165006  C 12.902970297029702 0.1672167216721654  13.259405940594059 0  13.687128712871287 0  C 14.106930693069309 0  14.46732673267327 0.1672167216721654  14.768316831683169 0.5016501650165006  L 17.560396039603962 3.5907590759075902  Z " fill-rule="nonzero" fill="#000000" stroke="none" transform="matrix(1 0 0 1 223 50 )" />
  </g>
</svg>