<?xml version="1.0" encoding="utf-8"?>
<svg version="1.1" xmlns:xlink="http://www.w3.org/1999/xlink" width="18px" height="20px" xmlns="http://www.w3.org/2000/svg">
  <g transform="matrix(1 0 0 1 -254 -50 )">
    <path d="M 6.4303977272727275 7.6171875  C 6.5071022727272725 7.6953125  6.545454545454546 7.795138888888888  6.545454545454546 7.916666666666668  L 6.545454545454546 15.416666666666668  C 6.545454545454546 15.538194444444445  6.5071022727272725 15.638020833333332  6.4303977272727275 15.716145833333332  C 6.353693181818182 15.794270833333332  6.255681818181819 15.833333333333332  6.136363636363636 15.833333333333332  L 5.318181818181818 15.833333333333332  C 5.198863636363638 15.833333333333332  5.100852272727273 15.794270833333332  5.0241477272727275 15.716145833333332  C 4.947443181818182 15.638020833333332  4.909090909090908 15.538194444444445  4.909090909090908 15.416666666666668  L 4.909090909090908 7.916666666666668  C 4.909090909090908 7.795138888888888  4.947443181818182 7.6953125  5.0241477272727275 7.6171875  C 5.100852272727273 7.5390625  5.198863636363638 7.5  5.318181818181818 7.5  L 6.136363636363636 7.5  C 6.255681818181819 7.5  6.353693181818182 7.5390625  6.4303977272727275 7.6171875  Z M 9.703125 7.6171875  C 9.779829545454545 7.6953125  9.818181818181817 7.795138888888888  9.818181818181817 7.916666666666668  L 9.818181818181817 15.416666666666668  C 9.818181818181817 15.538194444444445  9.779829545454545 15.638020833333332  9.703125 15.716145833333332  C 9.626420454545455 15.794270833333332  9.528409090909092 15.833333333333332  9.409090909090908 15.833333333333332  L 8.590909090909092 15.833333333333332  C 8.47159090909091 15.833333333333332  8.373579545454545 15.794270833333332  8.296875 15.716145833333332  C 8.220170454545455 15.638020833333332  8.181818181818182 15.538194444444445  8.181818181818182 15.416666666666668  L 8.181818181818182 7.916666666666668  C 8.181818181818182 7.795138888888888  8.220170454545455 7.6953125  8.296875 7.6171875  C 8.373579545454545 7.5390625  8.47159090909091 7.5  8.590909090909092 7.5  L 9.409090909090908 7.5  C 9.528409090909092 7.5  9.626420454545455 7.5390625  9.703125 7.6171875  Z M 12.975852272727272 7.6171875  C 13.052556818181817 7.6953125  13.090909090909092 7.795138888888888  13.090909090909092 7.916666666666668  L 13.090909090909092 15.416666666666668  C 13.090909090909092 15.538194444444445  13.052556818181817 15.638020833333332  12.975852272727272 15.716145833333332  C 12.899147727272728 15.794270833333332  12.801136363636363 15.833333333333332  12.681818181818183 15.833333333333332  L 11.863636363636363 15.833333333333332  C 11.744318181818182 15.833333333333332  11.646306818181817 15.794270833333332  11.569602272727272 15.716145833333332  C 11.492897727272728 15.638020833333332  11.454545454545455 15.538194444444445  11.454545454545455 15.416666666666668  L 11.454545454545455 7.916666666666668  C 11.454545454545455 7.795138888888888  11.492897727272728 7.6953125  11.569602272727272 7.6171875  C 11.646306818181817 7.5390625  11.744318181818182 7.5  11.863636363636363 7.5  L 12.681818181818183 7.5  C 12.801136363636363 7.5  12.899147727272728 7.5390625  12.975852272727272 7.6171875  Z M 14.637784090909092 17.87109375  C 14.697443181818182 17.71050347222222  14.727272727272728 17.53472222222222  14.727272727272728 17.34375  L 14.727272727272728 5  L 3.272727272727273 5  L 3.272727272727273 17.34375  C 3.272727272727273 17.53472222222222  3.302556818181819 17.71050347222222  3.362215909090909 17.87109375  C 3.4218750000000004 18.03168402777778  3.483664772727273 18.14887152777778  3.547585227272727 18.22265625  C 3.611505681818182 18.29644097222222  3.65625 18.333333333333332  3.681818181818182 18  L 14.318181818181817 18  C 14.34375 18.333333333333332  14.388494318181817 18.29644097222222  14.452414772727272 18.22265625  C 14.516335227272728 18.14887152777778  14.578125000000004 18.03168402777778  14.637784090909092 17.87109375  Z M 6.762784090909092 1.8098958333333326  L 6.136363636363636 3.3333333333333326  L 11.863636363636363 3.3333333333333326  L 11.25 1.8098958333333326  C 11.190340909090912 1.7317708333333326  11.117897727272727 1.6840277777777768  11.032670454545455 1.6666666666666674  L 6.980113636363636 1.6666666666666674  C 6.894886363636363 1.6840277777777768  6.8224431818181825 1.7317708333333326  6.762784090909092 1.8098958333333326  Z M 17.884943181818183 3.4505208333333326  C 17.961647727272727 3.5286458333333326  18 3.628472222222221  18 3.75  L 18 4.583333333333332  C 18 4.704861111111109  17.961647727272727 4.8046875  17.884943181818183 4.8828125  C 17.808238636363637 4.9609375  17.710227272727273 5  17.59090909090909 5  L 16.363636363636363 5  L 16.363636363636363 17.34375  C 16.363636363636363 18.06423611111111  16.163352272727273 18.68706597222222  15.762784090909092 19.212239583333332  C 15.36221590909091 19.737413194444443  14.880681818181817 20  14.318181818181817 20  L 3.681818181818182 20  C 3.119318181818182 20  2.6377840909090913 19.74609375  2.237215909090909 19.23828125  C 1.8366477272727275 18.73046875  1.6363636363636365 18.116319444444443  1.6363636363636365 17.395833333333332  L 1.6363636363636365 5  L 0.4090909090909091 5  C 0.2897727272727273 5  0.19176136363636365 4.9609375  0.11505681818181819 4.8828125  C 0.03835227272727272 4.8046875  0 4.704861111111109  0 4.583333333333332  L 0 3.75  C 0 3.628472222222221  0.03835227272727272 3.5286458333333326  0.11505681818181819 3.4505208333333326  C 0.19176136363636365 3.3723958333333326  0.2897727272727273 3.3333333333333326  0.4090909090909091 3.3333333333333326  L 4.359375 3.3333333333333326  L 5.254261363636364 1.1588541666666674  C 5.382102272727273 0.8376736111111094  5.61221590909091 0.5642361111111094  5.9446022727272725 0.3385416666666674  C 6.276988636363637 0.11284722222222099  6.613636363636363 0  6.954545454545454 0  L 11.045454545454545 0  C 11.386363636363638 0  11.723011363636363 0.11284722222222099  12.055397727272728 0.3385416666666674  C 12.387784090909092 0.5642361111111094  12.617897727272728 0.8376736111111094  12.745738636363637 1.1588541666666674  L 13.640625 3.3333333333333326  L 17.59090909090909 3.3333333333333326  C 17.710227272727273 3.3333333333333326  17.808238636363637 3.3723958333333326  17.884943181818183 3.4505208333333326  Z " fill-rule="nonzero" fill="#000000" stroke="none" transform="matrix(1 0 0 1 254 50 )" />
  </g>
</svg>