<?xml version="1.0" encoding="utf-8"?>
<svg version="1.1" xmlns:xlink="http://www.w3.org/1999/xlink" width="18px" height="18px" xmlns="http://www.w3.org/2000/svg">
  <g transform="matrix(1 0 0 1 -310 -21 )">
    <path d="M 6.4303977272727275 6.85546875  C 6.5071022727272725 6.92578125  6.545454545454546 7.015625  6.545454545454546 7.125000000000001  L 6.545454545454546 13.875  C 6.545454545454546 13.984375  6.5071022727272725 14.07421875  6.4303977272727275 14.14453125  C 6.353693181818182 14.21484375  6.255681818181819 14.25  6.136363636363636 14.25  L 5.318181818181818 14.25  C 5.198863636363638 14.25  5.100852272727273 14.21484375  5.0241477272727275 14.14453125  C 4.947443181818182 14.07421875  4.909090909090908 13.984375  4.909090909090908 13.875  L 4.909090909090908 7.125000000000001  C 4.909090909090908 7.015625  4.947443181818182 6.92578125  5.0241477272727275 6.85546875  C 5.100852272727273 6.78515625  5.198863636363638 6.75  5.318181818181818 6.75  L 6.136363636363636 6.75  C 6.255681818181819 6.75  6.353693181818182 6.78515625  6.4303977272727275 6.85546875  Z M 9.703125 6.85546875  C 9.779829545454545 6.92578125  9.818181818181817 7.015625  9.818181818181817 7.125000000000001  L 9.818181818181817 13.875  C 9.818181818181817 13.984375  9.779829545454545 14.07421875  9.703125 14.14453125  C 9.626420454545455 14.21484375  9.528409090909092 14.25  9.409090909090908 14.25  L 8.590909090909092 14.25  C 8.47159090909091 14.25  8.373579545454545 14.21484375  8.296875 14.14453125  C 8.220170454545455 14.07421875  8.181818181818182 13.984375  8.181818181818182 13.875  L 8.181818181818182 7.125000000000001  C 8.181818181818182 7.015625  8.220170454545455 6.92578125  8.296875 6.85546875  C 8.373579545454545 6.78515625  8.47159090909091 6.75  8.590909090909092 6.75  L 9.409090909090908 6.75  C 9.528409090909092 6.75  9.626420454545455 6.78515625  9.703125 6.85546875  Z M 12.975852272727272 6.85546875  C 13.052556818181817 6.92578125  13.090909090909092 7.015625  13.090909090909092 7.125000000000001  L 13.090909090909092 13.875  C 13.090909090909092 13.984375  13.052556818181817 14.07421875  12.975852272727272 14.14453125  C 12.899147727272728 14.21484375  12.801136363636363 14.25  12.681818181818183 14.25  L 11.863636363636363 14.25  C 11.744318181818182 14.25  11.646306818181817 14.21484375  11.569602272727272 14.14453125  C 11.492897727272728 14.07421875  11.454545454545455 13.984375  11.454545454545455 13.875  L 11.454545454545455 7.125000000000001  C 11.454545454545455 7.015625  11.492897727272728 6.92578125  11.569602272727272 6.85546875  C 11.646306818181817 6.78515625  11.744318181818182 6.75  11.863636363636363 6.75  L 12.681818181818183 6.75  C 12.801136363636363 6.75  12.899147727272728 6.78515625  12.975852272727272 6.85546875  Z M 14.637784090909092 16.083984375  C 14.697443181818182 15.939453125  14.727272727272728 15.78125  14.727272727272728 15.609375  L 14.727272727272728 4.5  L 3.272727272727273 4.5  L 3.272727272727273 15.609375  C 3.272727272727273 15.78125  3.302556818181819 15.939453125  3.362215909090909 16.083984375  C 3.4218750000000004 16.228515625  3.483664772727273 16.333984375  3.547585227272727 16.400390625  C 3.611505681818182 16.466796875  3.65625 16.5  3.681818181818182 16.5  L 14.318181818181817 16.5  C 14.34375 16.5  14.388494318181817 16.466796875  14.452414772727272 16.400390625  C 14.516335227272728 16.333984375  14.578125000000004 16.228515625  14.637784090909092 16.083984375  Z M 6.762784090909092 1.6289062499999993  L 6.136363636363636 2.999999999999999  L 11.863636363636363 2.999999999999999  L 11.25 1.6289062499999993  C 11.190340909090912 1.5585937499999993  11.117897727272727 1.5156249999999991  11.032670454545455 1.5000000000000007  L 6.980113636363636 1.5000000000000007  C 6.894886363636363 1.5156249999999991  6.8224431818181825 1.5585937499999993  6.762784090909092 1.6289062499999993  Z M 17.884943181818183 3.105468749999999  C 17.961647727272727 3.175781249999999  18 3.265624999999999  18 3.375  L 18 4.124999999999999  C 18 4.234374999999998  17.961647727272727 4.32421875  17.884943181818183 4.39453125  C 17.808238636363637 4.46484375  17.710227272727273 4.5  17.59090909090909 4.5  L 16.363636363636363 4.5  L 16.363636363636363 15.609375  C 16.363636363636363 16.2578125  16.163352272727273 16.818359375  15.762784090909092 17.291015625  C 15.36221590909091 17.763671875  14.880681818181817 18  14.318181818181817 18  L 3.681818181818182 18  C 3.119318181818182 18  2.6377840909090913 17.771484375  2.237215909090909 17.314453125  C 1.8366477272727275 16.857421875  1.6363636363636365 16.3046875  1.6363636363636365 15.65625  L 1.6363636363636365 4.5  L 0.4090909090909091 4.5  C 0.2897727272727273 4.5  0.19176136363636365 4.46484375  0.11505681818181819 4.39453125  C 0.03835227272727272 4.32421875  0 4.234374999999998  0 4.124999999999999  L 0 3.375  C 0 3.265624999999999  0.03835227272727272 3.175781249999999  0.11505681818181819 3.105468749999999  C 0.19176136363636365 3.035156249999999  0.2897727272727273 2.999999999999999  0.4090909090909091 2.999999999999999  L 4.359375 2.999999999999999  L 5.254261363636364 1.0429687500000007  C 5.382102272727273 0.7539062499999984  5.61221590909091 0.5078124999999984  5.9446022727272725 0.30468750000000067  C 6.276988636363637 0.10156249999999889  6.613636363636363 0  6.954545454545454 0  L 11.045454545454545 0  C 11.386363636363638 0  11.723011363636363 0.10156249999999889  12.055397727272728 0.30468750000000067  C 12.387784090909092 0.5078124999999984  12.617897727272728 0.7539062499999984  12.745738636363637 1.0429687500000007  L 13.640625 2.999999999999999  L 17.59090909090909 2.999999999999999  C 17.710227272727273 2.999999999999999  17.808238636363637 3.035156249999999  17.884943181818183 3.105468749999999  Z " fill-rule="nonzero" fill="#000000" stroke="none" transform="matrix(1 0 0 1 310 21 )" />
  </g>
</svg>