<?xml version="1.0" encoding="utf-8"?>
<svg version="1.1" xmlns:xlink="http://www.w3.org/1999/xlink" width="15px" height="15px" xmlns="http://www.w3.org/2000/svg">
  <defs>
    <mask fill="white" id="clip24">
      <path d="M 7 0  C 10.92 0  14 3.0799999999999987  14 7  C 14 10.92  10.92 14  7 14  C 3.0799999999999943 14  0 10.92  0 7  C 0 3.0799999999999987  3.0799999999999943 0  7 0  Z " fill-rule="evenodd" />
    </mask>
  </defs>
  <g transform="matrix(1 0 0 1 -371 -484 )">
    <path d="M 7 0  C 10.92 0  14 3.0799999999999987  14 7  C 14 10.92  10.92 14  7 14  C 3.0799999999999943 14  0 10.92  0 7  C 0 3.0799999999999987  3.0799999999999943 0  7 0  Z " fill-rule="nonzero" fill="#f59a23" stroke="none" fill-opacity="0" transform="matrix(1 0 0 1 371 484 )" />
    <path d="M 7 0  C 10.92 0  14 3.0799999999999987  14 7  C 14 10.92  10.92 14  7 14  C 3.0799999999999943 14  0 10.92  0 7  C 0 3.0799999999999987  3.0799999999999943 0  7 0  Z " stroke-width="2" stroke="#f59a23" fill="none" transform="matrix(1 0 0 1 371 484 )" mask="url(#clip24)" />
    <path d="M 7 0  L 7 14  M 0 7  L 14 7  " stroke-width="1" stroke="#f59a23" fill="none" transform="matrix(1 0 0 1 371 484 )" />
  </g>
</svg>