<?xml version="1.0" encoding="utf-8"?>
<svg version="1.1" xmlns:xlink="http://www.w3.org/1999/xlink" width="13px" height="13px" viewBox="257 229  13 13" xmlns="http://www.w3.org/2000/svg">
  <path d="M 263.5 229  C 267.14 229  270 231.86  270 235.5  C 270 239.14  267.14 242  263.5 242  C 259.86 242  257 239.14  257 235.5  C 257 231.86  259.86 229  263.5 229  Z " fill-rule="nonzero" fill="#ffffff" stroke="none" />
  <path d="M 263.5 229.5  C 266.86 229.5  269.5 232.14  269.5 235.5  C 269.5 238.86  266.86 241.5  263.5 241.5  C 260.14 241.5  257.5 238.86  257.5 235.5  C 257.5 232.14  260.14 229.5  263.5 229.5  Z " stroke-width="1" stroke="#797979" fill="none" />
  <path d="M 263.5 238.75  C 261.68 238.75  260.25 237.32  260.25 235.5  C 260.25 233.68  261.68 232.25  263.5 232.25  C 265.32 232.25  266.75 233.68  266.75 235.5  C 266.75 237.32  265.32 238.75  263.5 238.75  " fill-rule="nonzero" fill="#797979" stroke="none" />
</svg>