<?xml version="1.0" encoding="utf-8"?>
<svg version="1.1" xmlns:xlink="http://www.w3.org/1999/xlink" width="13px" height="13px" viewBox="118 229  13 13" xmlns="http://www.w3.org/2000/svg">
  <path d="M 124.5 229  C 128.14 229  131 231.86  131 235.5  C 131 239.14  128.14 242  124.5 242  C 120.86 242  118 239.14  118 235.5  C 118 231.86  120.86 229  124.5 229  Z " fill-rule="nonzero" fill="#ffffff" stroke="none" />
  <path d="M 124.5 229.5  C 127.86 229.5  130.5 232.14  130.5 235.5  C 130.5 238.86  127.86 241.5  124.5 241.5  C 121.14 241.5  118.5 238.86  118.5 235.5  C 118.5 232.14  121.14 229.5  124.5 229.5  Z " stroke-width="1" stroke="#797979" fill="none" />
  <path d="M 124.5 238.75  C 122.68 238.75  121.25 237.32  121.25 235.5  C 121.25 233.68  122.68 232.25  124.5 232.25  C 126.32 232.25  127.75 233.68  127.75 235.5  C 127.75 237.32  126.32 238.75  124.5 238.75  " fill-rule="nonzero" fill="#797979" stroke="none" />
</svg>