<?xml version="1.0" encoding="utf-8"?>
<svg version="1.1" xmlns:xlink="http://www.w3.org/1999/xlink" width="26px" height="32px" xmlns="http://www.w3.org/2000/svg">
  <g transform="matrix(1 0 0 1 -1228 -23 )">
    <path d="M 9.288352272727273 12.1875  C 9.399147727272727 12.3125  9.454545454545455 12.472222222222221  9.454545454545455 12.666666666666668  L 9.454545454545455 24.666666666666668  C 9.454545454545455 24.86111111111111  9.399147727272727 25.020833333333332  9.288352272727273 25.145833333333332  C 9.177556818181818 25.270833333333332  9.03598484848485 25.333333333333332  8.863636363636363 25.333333333333332  L 7.6818181818181825 25.333333333333332  C 7.509469696969698 25.333333333333332  7.367897727272728 25.270833333333332  7.2571022727272725 25.145833333333332  C 7.1463068181818175 25.020833333333332  7.09090909090909 24.86111111111111  7 24.666666666666668  L 7 12.666666666666668  C 7.09090909090909 12.472222222222221  7.1463068181818175 12.3125  7.2571022727272725 12.1875  C 7.367897727272728 12.0625  7.509469696969698 12  7.6818181818181825 12  L 8.863636363636363 12  C 9.03598484848485 12  9.177556818181818 12.0625  9.288352272727273 12.1875  Z M 14.015625 12.1875  C 14.126420454545455 12.3125  14.18181818181818 12.472222222222221  14 12.666666666666668  L 14 24.666666666666668  C 14.18181818181818 24.86111111111111  14.126420454545455 25.020833333333332  14.015625 25.145833333333332  C 13.904829545454545 25.270833333333332  13.763257575757578 25.333333333333332  13.59090909090909 25.333333333333332  L 12.40909090909091 25.333333333333332  C 12.236742424242426 25.333333333333332  12.095170454545455 25.270833333333332  11.984375 25.145833333333332  C 11.873579545454545 25.020833333333332  11.818181818181818 24.86111111111111  12 24.666666666666668  L 12 12.666666666666668  C 11.818181818181818 12.472222222222221  11.873579545454545 12.3125  11.984375 12.1875  C 12.095170454545455 12.0625  12.236742424242426 12  12.40909090909091 12  L 13.59090909090909 12  C 13.763257575757578 12  13.904829545454545 12.0625  14.015625 12.1875  Z M 18.742897727272727 12.1875  C 18.85369318181818 12.3125  18.90909090909091 12.472222222222221  19 12.666666666666668  L 19 24.666666666666668  C 18.90909090909091 24.86111111111111  18.85369318181818 25.020833333333332  18.742897727272727 25.145833333333332  C 18.632102272727273 25.270833333333332  18.490530303030305 25.333333333333332  18.31818181818182 25.333333333333332  L 17.136363636363637 25.333333333333332  C 16.964015151515152 25.333333333333332  16.82244318181818 25.270833333333332  16.711647727272727 25.145833333333332  C 16.600852272727273 25.020833333333332  16.545454545454547 24.86111111111111  16.545454545454547 24.666666666666668  L 16.545454545454547 12.666666666666668  C 16.545454545454547 12.472222222222221  16.600852272727273 12.3125  16.711647727272727 12.1875  C 16.82244318181818 12.0625  16.964015151515152 12  17.136363636363637 12  L 18.31818181818182 12  C 18.490530303030305 12  18.632102272727273 12.0625  18.742897727272727 12.1875  Z M 21.14346590909091 28.59375  C 21.229640151515152 28.336805555555557  21.272727272727273 28.055555555555557  21 27.75  L 21 8  L 5 8  L 5 27.75  C 4.7272727272727275 28.055555555555557  4.7703598484848495 28.336805555555557  4.856534090909091 28.59375  C 4.942708333333334 28.850694444444443  5.0319602272727275 29.038194444444443  5.1242897727272725 29.15625  C 5.216619318181818 29.274305555555557  5.28125 29.333333333333332  5.318181818181818 29  L 20.68181818181818 29  C 20.71875 29.333333333333332  20.78338068181818 29.274305555555557  20.875710227272727 29.15625  C 20.968039772727273 29.038194444444443  21.05729166666667 28.850694444444443  21.14346590909091 28.59375  Z M 9.76846590909091 2.895833333333332  L 8.863636363636363 5.333333333333332  L 17.136363636363637 5.333333333333332  L 16.25 2.895833333333332  C 16.16382575757576 2.770833333333332  16.059185606060606 2.694444444444443  15.936079545454545 2.666666666666668  L 10.082386363636363 2.666666666666668  C 9.959280303030303 2.694444444444443  9.854640151515152 2.770833333333332  9.76846590909091 2.895833333333332  Z M 25.83380681818182 5.520833333333332  C 25.944602272727273 5.645833333333332  26 5.805555555555554  26 6  L 26 7.333333333333332  C 26 7.527777777777775  25.944602272727273 7.6875  25.83380681818182 7.8125  C 25.723011363636363 7.9375  25.581439393939398 8  25.40909090909091 8  L 23.636363636363637 8  L 23.636363636363637 27.75  C 23.636363636363637 28.902777777777775  23.347064393939398 29.899305555555557  22.76846590909091 30.739583333333332  C 22.189867424242426 31.57986111111111  21.49431818181818 32  20.68181818181818 32  L 5.318181818181818 32  C 4.505681818181818 32  3.8101325757575766 31.59375  3.231534090909091 30.78125  C 2.6529356060606064 29.96875  2.3636363636363638 28.98611111111111  2.3636363636363638 27.833333333333332  L 2.3636363636363638 8  L 0.5909090909090909 8  C 0.4185606060606061 8  0.2769886363636364 7.9375  0.16619318181818182 7.8125  C 0.055397727272727265 7.6875  0 7.527777777777775  0 7.333333333333332  L 0 6  C 0 5.805555555555554  0.055397727272727265 5.645833333333332  0.16619318181818182 5.520833333333332  C 0.2769886363636364 5.395833333333332  0.4185606060606061 5.333333333333332  0.5909090909090909 5.333333333333332  L 6.296875 5.333333333333332  L 7.589488636363637 1.8541666666666679  C 7.774147727272728 1.340277777777775  8.106534090909092 0.902777777777775  8.586647727272727 0.5416666666666679  C 9.066761363636365 0.18055555555555358  9.553030303030303 0  10.045454545454545 0  L 15.954545454545455 0  C 16.4469696969697 0  16.933238636363637 0.18055555555555358  17.413352272727273 0.5416666666666679  C 17.89346590909091 0.902777777777775  18.225852272727273 1.340277777777775  18.410511363636363 1.8541666666666679  L 19.703125 5.333333333333332  L 25.40909090909091 5.333333333333332  C 25.581439393939398 5.333333333333332  25.723011363636363 5.395833333333332  25.83380681818182 5.520833333333332  Z " fill-rule="nonzero" fill="#000000" stroke="none" transform="matrix(1 0 0 1 1228 23 )" />
  </g>
</svg>